{"glyphs":{"0":{"ha":768,"x_min":74,"x_max":739,"o":"m 609 499 l 609 544 q 571 706 609 644 q 463 768 532 768 q 289 642 364 768 q 227 486 250 576 q 203 311 203 395 l 203 302 q 242 123 203 185 q 341 60 281 60 l 359 60 q 446 95 400 60 q 586 342 540 165 q 609 499 609 431 m 74 298 l 74 322 q 106 514 75 414 q 328 806 170 719 q 467 842 394 842 l 492 842 q 593 818 547 842 q 739 518 739 740 l 739 506 q 709 315 739 410 q 624 145 679 220 q 493 27 570 69 q 347 -14 417 -14 l 321 -14 q 224 8 271 -14 q 147 69 178 31 q 74 298 74 160 z "},"1":{"ha":570,"x_min":87,"x_max":479,"o":"m 186 0 q 87 27 87 0 q 142 78 87 49 q 214 155 197 107 q 262 420 230 203 q 295 657 295 637 q 239 703 295 703 q 182 730 182 703 q 224 766 182 743 q 334 806 236 772 q 456 841 433 841 q 479 817 479 841 q 464 749 479 793 q 437 659 449 704 q 409 507 425 614 l 357 172 q 390 97 357 127 q 440 36 440 52 q 407 8 440 16 q 267 1 373 1 l 239 0 l 186 0 z "},"2":{"ha":703,"x_min":50,"x_max":649,"o":"m 50 31 q 97 119 50 69 q 255 263 144 169 q 423 429 365 357 q 506 625 506 532 q 468 715 506 684 q 382 747 430 747 q 237 644 302 747 q 176 585 200 585 q 156 624 156 585 q 238 774 156 711 q 427 838 321 838 l 448 838 q 592 783 534 838 q 649 639 649 728 q 583 465 649 550 q 374 266 516 379 q 231 126 231 153 q 335 111 231 111 q 474 122 438 111 q 543 159 510 134 q 591 183 576 183 q 610 165 610 183 q 564 27 610 77 q 458 -1 537 -1 l 437 -1 l 396 0 q 319 2 366 1 q 248 4 272 4 l 104 1 q 50 31 50 1 z "},"3":{"ha":688,"x_min":51,"x_max":625,"o":"m 480 654 q 387 738 480 738 q 272 700 345 738 q 197 661 198 661 q 173 692 173 661 q 238 798 173 755 q 408 841 304 841 q 568 807 511 841 q 625 719 625 774 l 625 701 q 511 498 625 600 q 461 439 461 453 l 511 404 q 571 340 543 382 q 600 234 600 299 q 490 12 600 100 q 242 -76 381 -76 q 107 -49 163 -76 q 51 22 51 -22 q 96 67 51 67 q 161 39 115 67 q 246 12 208 12 q 401 69 340 12 q 461 215 461 126 q 331 373 461 339 q 267 416 267 389 q 329 462 267 429 q 418 524 391 495 q 480 654 480 591 z "},"4":{"ha":725,"x_min":36,"x_max":654,"o":"m 252 269 l 385 269 q 424 307 415 269 q 475 635 475 526 l 475 640 l 474 642 q 336 490 465 642 l 291 437 q 271 414 283 427 q 207 339 258 401 q 155 277 155 278 l 155 273 q 252 269 155 269 m 549 20 q 500 -48 549 -18 q 375 -78 451 -78 q 321 -38 321 -78 q 352 37 321 -5 q 383 114 383 79 q 349 169 383 150 q 221 178 332 178 q 98 180 111 178 q 36 216 36 191 q 454 722 36 263 q 585 817 541 817 q 622 758 622 817 q 600 608 622 755 q 577 397 577 461 q 583 320 577 332 q 607 299 589 308 q 627 289 625 290 q 654 250 654 271 l 654 233 q 637 209 654 220 q 582 143 621 198 q 543 79 543 89 q 549 20 549 43 z "},"5":{"ha":693,"x_min":54,"x_max":675,"o":"m 254 551 q 271 521 254 528 q 334 515 278 518 q 435 501 389 512 q 520 458 480 490 q 603 263 603 391 q 576 143 603 204 q 496 35 549 83 q 376 -38 444 -12 q 239 -64 307 -64 l 220 -64 q 104 -39 154 -64 q 54 13 54 -14 q 70 54 54 41 q 101 66 85 66 q 164 43 117 66 q 252 20 212 20 q 404 86 342 20 q 465 240 465 153 q 417 375 465 327 q 262 424 368 424 l 243 422 l 225 420 l 207 418 q 154 452 154 418 q 196 642 154 509 q 250 794 238 774 q 277 820 261 813 q 396 827 293 827 l 459 827 q 513 826 480 826 q 578 833 545 826 l 646 849 q 675 828 675 849 l 675 812 q 625 726 675 753 q 478 709 593 709 l 378 715 q 300 689 320 715 q 254 551 254 628 z "},"6":{"ha":732,"x_min":73,"x_max":672,"o":"m 399 496 l 387 496 q 312 475 354 496 q 203 271 203 422 l 203 245 q 244 109 203 161 q 342 56 286 56 l 361 56 q 485 133 429 56 q 541 302 541 210 l 541 340 q 500 452 541 408 q 399 496 460 496 m 672 867 q 578 814 672 850 q 425 730 485 779 q 319 610 364 681 q 298 557 298 577 q 338 542 298 542 q 383 547 343 542 q 453 553 422 553 q 607 490 543 553 q 672 330 672 427 l 672 314 q 644 190 671 252 q 467 14 591 68 q 342 -12 409 -12 l 325 -12 q 217 11 264 -12 q 141 68 170 34 q 73 259 73 147 l 73 292 q 121 502 73 395 q 244 692 168 610 q 431 832 319 775 q 630 889 542 889 l 642 889 q 672 867 672 889 z "},"7":{"ha":689,"x_min":121,"x_max":697,"o":"m 697 801 q 668 720 697 774 q 514 445 640 665 q 367 180 388 225 q 279 -10 284 -2 q 183 -69 244 -69 q 145 -43 145 -69 q 347 346 145 7 q 549 690 549 685 q 420 714 549 714 q 254 702 292 714 q 185 663 215 690 q 136 637 155 637 q 121 667 121 637 q 155 805 121 743 q 213 834 170 834 l 245 831 l 345 829 l 412 827 l 479 825 l 565 824 q 697 801 697 824 z "},"8":{"ha":720,"x_min":68,"x_max":694,"o":"m 298 702 l 298 688 q 348 588 298 637 q 438 538 397 538 q 527 597 479 538 q 576 718 576 656 l 576 742 q 540 828 576 796 q 452 861 504 861 l 447 860 q 341 811 385 860 q 298 702 298 762 m 191 218 l 191 201 q 232 97 191 139 q 336 56 274 56 l 341 56 q 474 113 422 56 q 527 242 527 170 l 527 254 q 481 363 527 314 q 358 437 414 437 q 247 365 303 437 q 191 218 191 292 m 542 495 q 579 449 542 490 q 635 368 616 408 q 654 269 654 328 q 558 67 654 149 q 334 -14 462 -14 l 302 -14 q 135 46 201 -14 q 68 197 68 106 l 68 212 q 201 429 68 331 q 259 485 259 471 q 231 525 259 488 q 188 595 202 562 q 174 676 174 629 q 196 772 174 724 q 260 856 218 820 q 458 926 344 926 l 473 926 q 634 874 574 926 q 694 748 694 822 q 664 629 694 675 q 588 546 633 583 q 542 495 542 509 z "},"9":{"ha":735,"x_min":101,"x_max":703,"o":"m 372 331 l 385 331 l 391 332 q 518 392 467 332 q 570 553 570 452 l 570 585 q 531 718 570 665 q 435 772 492 772 l 416 772 q 289 694 345 772 q 232 522 232 617 l 232 503 q 269 382 232 433 q 372 331 305 331 m 437 842 q 680 686 618 842 q 703 558 703 627 l 703 542 q 653 319 703 431 q 356 1 558 104 q 149 -61 235 -61 l 136 -61 q 101 -39 101 -61 q 200 15 101 -25 q 357 102 300 56 q 446 197 415 149 q 476 267 476 245 q 425 284 476 284 q 390 280 424 284 q 325 276 355 276 q 166 341 229 276 q 103 510 103 406 q 134 645 103 581 q 211 751 164 709 q 437 842 309 842 z "},"\u0000":{"ha":781,"x_min":36,"x_max":741,"o":"m 552 44 q 626 51 626 44 q 458 310 626 65 q 421 366 452 318 q 387 414 390 414 l 354 363 l 351 357 l 325 318 q 317 307 322 313 q 150 47 150 63 q 162 47 150 47 l 169 46 l 175 45 l 222 44 l 552 44 m 102 492 l 102 242 q 105 109 102 109 q 180 218 109 109 l 221 279 q 245 315 236 302 q 268 350 254 328 q 315 418 283 372 q 347 467 347 463 l 347 474 q 257 610 347 479 q 163 749 168 741 l 104 835 q 102 492 102 835 m 673 431 l 673 511 q 670 836 673 836 q 633 785 667 836 q 514 611 600 734 q 429 477 429 488 q 480 391 429 465 q 599 214 532 317 q 670 112 666 112 q 673 431 673 112 m 459 903 l 438 903 l 431 902 l 390 902 q 149 896 149 902 q 184 839 149 890 q 238 759 219 788 q 271 709 256 730 q 336 611 286 688 q 390 533 387 533 q 433 594 393 533 q 478 664 472 654 q 494 687 484 673 l 577 813 q 631 897 631 890 q 459 903 631 903 m 36 27 l 36 163 l 37 180 l 37 486 q 38 958 37 955 q 94 970 43 970 l 667 970 q 737 959 734 970 q 740 686 740 948 l 740 399 l 741 331 l 741 9 q 719 -17 741 -15 q 532 -20 698 -20 l 227 -20 q 43 -16 50 -20 q 36 27 36 -12 z "}," ":{"ha":352,"x_min":0,"x_max":0,"o":""},"!":{"ha":394,"x_min":77,"x_max":387,"o":"m 387 922 l 387 908 q 372 823 387 878 q 350 736 357 768 q 337 682 342 703 q 330 653 332 661 l 326 637 l 322 621 l 318 606 q 313 582 315 593 q 304 551 311 570 l 298 519 l 294 503 q 277 440 290 487 l 245 315 q 193 264 229 264 l 186 264 q 166 292 166 264 l 166 307 q 200 587 166 317 q 241 887 235 856 q 336 956 257 956 l 343 956 q 387 922 387 956 m 252 92 l 252 75 q 226 17 252 47 q 166 -14 200 -14 l 149 -14 q 102 7 127 -14 q 77 60 77 28 l 77 75 q 79 88 79 83 q 106 136 79 109 q 157 162 132 162 l 163 163 l 180 163 q 229 141 206 163 q 252 92 252 118 z "},"\"":{"ha":527,"x_min":158,"x_max":533,"o":"m 262 969 l 279 969 q 312 939 312 969 l 312 935 l 311 931 l 311 927 q 243 682 311 845 q 186 623 218 623 l 174 623 q 158 637 158 623 l 158 644 q 160 663 160 656 q 173 722 160 669 q 186 793 186 774 l 189 810 q 189 819 189 810 l 189 828 q 189 854 189 828 l 189 863 q 194 943 189 936 q 262 969 214 969 m 406 623 l 397 623 q 376 637 376 623 l 376 649 q 391 722 376 657 q 406 818 406 787 l 406 854 l 402 895 q 402 903 402 899 q 490 970 402 970 l 495 970 q 533 939 533 970 l 533 927 l 530 901 q 455 662 530 827 q 406 623 437 623 z "},"#":{"ha":817,"x_min":58,"x_max":788,"o":"m 456 551 q 362 542 370 551 q 341 484 355 533 q 316 405 328 434 q 304 362 304 376 l 304 359 q 321 355 304 355 l 374 355 l 378 355 l 424 355 l 455 355 q 486 376 477 355 q 537 543 537 505 l 537 547 q 525 552 537 552 l 471 552 l 467 551 l 456 551 m 662 355 q 715 323 715 355 q 687 281 715 292 q 625 271 671 274 q 561 253 580 269 q 505 165 526 224 l 491 119 q 468 53 472 60 q 421 23 450 23 q 392 48 392 23 q 417 157 392 74 q 443 250 443 241 q 366 273 443 273 q 274 251 289 273 q 243 161 267 241 q 214 71 218 82 q 158 23 191 23 q 125 52 125 23 q 144 121 125 60 q 163 214 163 182 q 143 260 163 245 l 128 267 l 108 269 l 89 274 q 58 306 58 285 q 89 345 58 328 q 149 354 102 352 q 211 369 197 356 q 242 439 224 381 q 260 517 260 498 q 196 549 260 545 q 131 583 131 553 q 163 623 131 610 q 220 631 174 628 q 292 657 266 635 q 345 766 317 680 q 375 858 372 852 q 425 883 390 883 q 451 847 451 883 q 426 749 451 837 q 400 647 400 662 q 475 633 400 633 q 560 643 550 633 q 600 746 570 653 q 635 846 630 838 q 691 878 653 878 q 711 838 711 878 q 696 779 711 832 q 681 693 681 726 q 695 647 681 660 l 709 640 l 729 637 l 750 633 q 788 608 788 622 l 788 595 q 751 557 788 569 q 691 551 747 555 q 627 536 636 547 q 598 464 617 525 q 578 381 578 402 q 662 355 578 355 z "},"$":{"ha":714,"x_min":53,"x_max":685,"o":"m 366 566 l 372 566 q 379 578 376 566 q 434 836 434 761 q 429 844 434 844 l 422 844 l 418 843 q 322 800 365 843 q 279 700 279 758 l 279 685 q 301 621 279 655 q 366 566 335 566 m 339 75 l 339 68 q 347 60 339 60 l 350 60 q 466 114 418 60 q 514 227 514 168 l 514 247 q 490 317 514 287 q 415 378 444 378 l 410 378 q 398 359 403 378 q 339 75 339 143 m 685 814 l 685 795 q 666 741 685 765 q 632 717 648 717 q 580 759 617 717 q 522 801 543 801 q 495 770 510 801 q 451 556 451 677 q 511 481 451 525 q 595 406 572 438 q 635 260 635 349 q 574 105 635 172 q 412 5 513 38 q 340 -24 352 -16 q 311 -75 328 -33 q 269 -117 294 -117 l 254 -117 q 240 -80 243 -117 q 229 -29 237 -43 q 146 21 211 -2 q 67 57 82 43 q 53 114 53 71 l 53 132 q 71 205 53 180 q 97 231 90 231 q 149 168 113 231 q 237 85 197 85 q 281 136 265 85 q 332 379 332 301 q 276 461 332 418 q 193 546 221 504 q 165 654 165 588 q 234 823 165 751 q 375 904 283 873 q 430 925 423 920 q 457 963 437 930 q 500 997 477 997 q 526 975 522 997 q 545 917 536 925 q 609 887 564 901 q 661 869 654 873 q 685 814 685 854 z "},"%":{"ha":1022,"x_min":123,"x_max":956,"o":"m 226 661 l 226 631 q 248 557 226 585 q 294 529 269 529 l 311 529 q 394 588 357 529 q 432 724 432 648 l 431 728 l 431 737 l 429 762 q 409 817 429 791 q 363 843 389 843 l 346 843 q 273 797 305 843 q 229 683 229 734 q 226 661 226 665 m 648 182 q 668 102 648 134 q 721 71 689 71 l 733 71 q 813 125 775 71 q 851 232 851 180 q 853 245 853 244 l 854 262 l 854 275 q 833 356 854 326 q 781 386 812 386 l 768 386 q 688 331 727 386 q 650 217 650 275 l 649 213 l 648 208 l 648 191 l 648 182 m 123 631 l 123 652 q 194 828 123 751 q 353 904 265 904 l 374 904 q 487 857 440 904 q 534 734 534 810 l 534 721 q 463 545 534 621 q 304 468 392 468 l 283 468 q 169 517 215 468 q 123 631 123 566 m 896 894 l 907 894 q 930 882 930 894 q 914 845 930 870 q 290 105 833 718 q 184 24 218 24 l 173 24 q 149 36 149 24 q 165 73 149 49 q 795 820 259 213 q 896 894 861 894 m 546 174 l 546 201 q 617 371 546 295 q 783 447 688 447 l 789 447 q 906 404 856 447 q 956 284 956 360 l 956 257 q 885 87 956 163 q 726 11 814 11 l 706 11 q 590 62 633 11 q 546 174 546 113 z "},"&":{"ha":1021,"x_min":84,"x_max":998,"o":"m 447 703 q 479 613 447 661 q 496 596 490 596 l 499 597 l 503 597 q 597 662 547 597 q 648 767 648 728 l 650 775 l 650 792 l 650 796 q 629 860 650 836 q 578 884 608 884 l 557 884 q 483 844 518 884 q 447 761 447 804 l 445 741 l 445 722 q 447 703 447 710 m 395 75 l 412 75 q 524 103 464 75 q 585 159 585 132 l 585 163 q 563 200 585 172 l 516 266 q 509 277 515 268 q 499 292 503 288 l 458 354 l 456 359 q 385 446 400 446 l 381 446 q 287 363 344 446 q 248 247 248 307 l 248 224 q 289 120 248 165 q 395 75 330 75 m 877 70 q 892 61 877 70 q 906 49 906 53 q 899 43 906 45 q 752 15 825 15 q 683 33 726 15 q 622 51 640 51 q 531 24 604 51 q 392 -3 458 -3 l 347 -3 q 103 116 159 -3 q 84 201 84 157 q 123 345 84 285 q 220 450 161 404 q 317 548 317 524 q 309 608 317 572 q 300 700 300 644 q 374 878 300 804 q 466 939 415 918 q 559 959 517 959 l 583 959 q 701 916 656 959 q 746 805 746 873 q 676 654 746 737 q 606 516 606 571 q 642 398 606 461 q 710 335 677 335 q 750 374 717 335 q 783 453 783 412 q 781 477 783 465 l 777 491 q 772 516 772 511 q 795 547 772 539 q 969 562 835 562 q 998 542 998 562 q 974 493 998 522 q 936 439 949 464 q 897 383 922 414 q 869 346 872 351 q 811 191 811 224 q 836 103 811 136 q 877 70 848 87 z "},"'":{"ha":309,"x_min":153,"x_max":311,"o":"m 311 951 l 311 939 l 311 935 q 252 718 311 857 q 186 631 216 631 l 169 631 q 153 646 153 631 l 153 654 q 153 654 153 654 q 153 656 153 655 q 167 725 153 665 q 182 865 182 787 q 189 951 182 943 q 260 978 209 978 q 311 951 311 978 z "},"(":{"ha":471,"x_min":102,"x_max":521,"o":"m 521 994 q 477 932 521 977 q 298 643 361 812 q 219 220 219 433 q 241 19 219 104 q 281 -104 263 -66 q 320 -180 298 -142 q 341 -230 341 -218 q 312 -260 341 -260 q 258 -225 287 -260 q 159 -62 199 -156 q 102 226 102 74 l 102 270 q 208 697 102 479 q 351 908 256 795 q 491 1021 447 1021 q 521 994 521 1021 z "},")":{"ha":471,"x_min":-22,"x_max":399,"o":"m 9 -262 q -22 -235 -22 -262 q 34 -160 -22 -226 q 131 -28 90 -94 q 211 143 172 38 q 281 543 281 330 q 186 930 281 757 q 159 988 159 979 q 186 1020 159 1020 l 199 1020 q 232 997 210 1020 q 347 808 296 929 q 399 536 399 686 l 399 492 q 369 274 399 389 q 162 -130 308 42 q 9 -262 50 -262 z "},"*":{"ha":610,"x_min":151,"x_max":589,"o":"m 174 619 q 201 667 174 640 q 212 685 203 670 q 220 706 220 700 q 203 723 220 712 q 169 756 187 734 q 151 804 151 779 q 192 840 151 840 q 259 813 218 840 q 315 786 300 786 q 323 851 323 786 q 333 939 323 917 q 368 961 344 961 l 382 961 q 425 913 425 961 q 411 841 425 910 q 400 775 400 788 q 401 771 400 771 q 464 808 406 771 q 545 845 523 845 q 589 803 589 845 q 494 716 589 754 q 456 696 456 701 q 491 661 456 691 q 525 593 525 631 q 496 555 525 555 q 423 574 477 555 l 403 583 q 372 548 391 583 q 316 513 353 513 l 307 513 q 285 538 292 513 q 262 586 272 586 l 193 576 q 174 619 174 576 z "},"+":{"ha":735,"x_min":85,"x_max":684,"o":"m 435 454 q 546 435 435 435 q 662 434 658 435 q 684 408 684 431 q 659 353 684 361 q 542 349 650 349 q 429 345 433 349 q 414 227 424 340 q 404 113 404 113 q 365 86 397 86 l 353 86 q 319 138 319 86 l 334 326 q 210 348 334 348 q 85 374 85 348 q 109 429 85 418 q 228 434 119 434 q 340 438 336 434 q 354 551 345 441 l 364 669 q 406 694 371 694 l 418 694 q 450 642 450 694 l 435 454 z "},",":{"ha":349,"x_min":14,"x_max":246,"o":"m 163 163 l 179 163 q 246 84 246 163 l 245 79 q 170 -108 245 -7 q 42 -209 94 -209 l 33 -209 q 14 -185 14 -209 q 36 -152 14 -173 q 86 -95 58 -132 q 113 -30 113 -58 q 93 28 113 -1 q 72 84 72 56 q 98 138 72 112 q 163 163 123 163 z "},"-":{"ha":528,"x_min":89,"x_max":465,"o":"m 444 404 q 465 382 465 404 l 465 378 l 464 373 q 436 311 464 319 q 264 304 408 304 l 240 304 l 217 302 l 199 302 l 185 302 l 140 302 l 126 301 l 109 301 q 89 319 89 301 l 89 332 q 115 394 89 387 q 294 401 142 401 l 404 404 l 444 404 z "},".":{"ha":334,"x_min":57,"x_max":234,"o":"m 234 95 l 234 78 q 208 18 234 49 q 145 -14 182 -14 l 128 -14 q 119 -12 121 -12 q 80 9 102 -12 q 58 52 58 31 l 57 58 l 57 77 q 59 96 59 85 q 85 136 59 106 q 146 166 111 166 l 163 166 q 172 165 170 165 q 212 143 190 165 q 234 95 234 121 z "},"/":{"ha":560,"x_min":-17,"x_max":623,"o":"m 575 1001 l 588 1001 q 623 983 623 1001 q 600 927 623 977 q 104 -40 444 586 q 22 -122 60 -122 q -17 -106 -16 -122 q 505 925 -17 -60 q 575 1001 545 1001 z "},":":{"ha":371,"x_min":75,"x_max":335,"o":"m 333 513 q 306 466 333 492 q 256 439 279 439 l 239 437 l 234 437 q 181 459 203 437 q 159 509 159 481 l 159 526 q 185 584 159 554 q 240 614 211 614 l 245 616 l 262 616 q 311 593 289 616 q 334 552 334 571 l 335 547 l 335 527 q 333 513 333 519 m 250 69 q 222 18 250 46 q 165 -10 194 -10 l 148 -10 q 127 -8 140 -8 q 94 16 114 -8 q 75 64 75 39 l 75 76 q 101 138 75 106 q 168 170 127 170 l 176 170 q 227 149 201 170 q 252 94 252 127 l 252 83 q 250 69 250 73 z "},";":{"ha":377,"x_min":26,"x_max":337,"o":"m 337 533 l 337 525 q 311 460 337 492 q 250 429 285 429 l 230 429 q 187 451 208 429 q 165 498 165 472 l 165 511 q 192 574 165 543 q 256 605 219 605 l 269 605 q 314 585 290 605 q 337 533 337 566 m 189 168 q 258 98 258 168 l 258 88 q 256 62 256 72 q 181 -99 256 0 q 59 -199 106 -199 l 45 -199 q 26 -175 26 -199 q 53 -138 27 -167 q 123 -15 123 -62 q 105 32 123 0 q 87 94 87 64 q 118 145 87 123 q 184 168 148 168 l 189 168 z "},"<":{"ha":747,"x_min":95,"x_max":703,"o":"m 597 60 q 130 339 555 60 q 95 389 95 361 q 140 442 95 417 q 686 721 638 721 q 703 690 703 721 q 641 618 703 660 q 412 494 578 577 q 245 388 245 410 q 395 289 245 382 l 427 269 q 471 242 449 256 l 514 216 q 627 106 627 146 q 597 60 627 60 z "},"=":{"ha":773,"x_min":99,"x_max":728,"o":"m 691 559 q 728 539 728 559 q 688 474 728 480 q 410 472 675 472 l 255 472 l 235 471 l 167 471 q 123 492 123 471 l 123 498 q 138 550 123 541 q 243 559 154 559 l 419 559 l 426 559 l 650 559 l 691 559 m 669 325 q 704 304 704 325 l 704 298 q 687 246 704 256 q 604 237 670 237 l 128 237 q 99 258 99 237 l 99 264 q 115 316 99 307 q 240 325 132 325 l 403 325 l 410 324 l 634 325 l 669 325 z "},">":{"ha":747,"x_min":73,"x_max":681,"o":"m 681 399 q 639 339 681 364 q 154 87 534 277 q 90 60 100 60 q 73 94 73 60 q 119 158 73 127 q 349 283 166 189 q 532 396 532 378 q 381 499 532 405 q 209 609 231 593 q 156 684 156 647 q 179 722 156 722 q 552 503 202 722 q 681 399 681 422 z "},"?":{"ha":614,"x_min":168,"x_max":633,"o":"m 633 760 q 477 515 633 636 q 370 419 397 454 q 345 349 345 385 l 346 298 q 297 257 346 257 q 273 271 283 257 q 248 357 248 308 q 284 459 248 406 q 365 549 300 481 q 458 665 431 617 q 486 760 486 713 q 463 828 486 806 q 400 850 439 850 q 299 803 361 850 q 218 755 237 755 q 184 793 184 755 l 184 804 q 247 909 184 864 q 411 954 311 954 q 572 900 511 954 q 633 772 633 846 l 633 760 m 267 164 q 287 162 275 162 q 322 140 300 162 q 345 85 345 117 l 345 83 q 318 17 345 49 q 254 -14 292 -14 l 243 -14 q 191 9 214 -14 q 168 58 168 32 l 168 75 q 196 134 168 106 q 247 162 224 162 l 264 164 l 267 164 z "},"@":{"ha":1201,"x_min":76,"x_max":1143,"o":"m 746 530 q 688 572 746 572 l 665 572 q 521 481 592 572 q 470 385 494 447 q 447 275 447 322 l 447 246 q 465 180 447 207 q 513 153 484 153 l 524 153 q 589 178 547 153 q 722 385 677 231 q 745 498 745 464 l 746 508 l 746 530 m 356 136 q 343 154 356 136 q 330 238 330 173 q 355 374 330 302 q 441 510 381 446 q 688 627 551 627 l 724 624 l 758 622 l 789 621 l 819 622 q 872 575 872 622 q 845 414 872 528 q 819 247 819 300 q 838 179 819 194 l 865 170 q 957 214 910 170 q 1005 278 983 238 q 1051 464 1051 361 q 944 735 1051 641 q 675 829 836 829 q 508 794 596 829 q 345 684 419 760 q 187 303 187 524 q 298 8 187 120 q 593 -104 408 -104 q 716 -89 651 -104 l 830 -58 l 862 -52 q 891 -70 891 -52 q 782 -141 891 -102 q 573 -180 672 -180 q 218 -60 351 -180 q 85 189 112 37 q 76 272 76 237 q 159 594 76 452 q 434 844 254 760 q 679 904 562 904 l 722 904 q 882 871 798 904 q 1114 646 1053 805 q 1143 494 1143 571 q 939 121 1142 245 q 814 80 873 80 q 713 111 755 80 l 691 132 q 660 159 668 159 l 635 148 l 568 106 q 456 77 513 77 l 419 85 q 356 136 382 99 z "},"A":{"ha":964,"x_min":-33,"x_max":887,"o":"m 448 402 l 502 402 l 507 403 l 602 406 q 612 407 608 407 q 627 423 627 407 l 627 428 q 626 443 626 439 q 581 745 626 563 q 574 762 576 762 l 572 762 q 538 714 562 762 q 502 645 515 666 l 473 596 l 469 591 l 461 576 l 458 572 l 441 543 q 392 459 416 498 q 368 414 368 419 l 368 410 q 448 402 368 402 m 207 96 q 219 64 207 85 q 231 28 231 44 q 87 -2 231 -2 l 45 -3 q -33 17 -33 -3 l -33 30 q 18 72 -33 50 q 92 128 68 94 q 187 280 139 199 q 256 397 235 361 l 290 450 q 330 516 311 486 q 419 670 349 547 q 539 864 489 793 q 635 936 589 936 q 728 717 707 936 q 733 662 732 680 q 767 394 734 643 q 806 119 800 144 q 850 71 812 94 q 887 30 887 48 q 844 -1 887 4 q 709 -1 837 -1 q 581 24 581 -1 q 605 57 581 34 q 637 102 628 79 q 646 210 646 125 q 628 313 646 296 q 474 330 609 330 q 310 308 340 330 q 244 210 281 287 q 207 96 207 133 z "},"B":{"ha":852,"x_min":18,"x_max":827,"o":"m 399 521 l 422 521 l 428 522 l 475 523 q 488 524 481 524 q 625 579 564 524 q 686 714 686 635 l 686 732 q 642 832 686 795 q 525 869 597 869 l 488 869 q 416 844 428 869 q 382 692 405 820 l 381 686 l 379 674 l 378 669 l 375 652 l 373 640 l 372 634 l 370 629 l 366 606 l 356 550 l 356 535 q 399 521 356 521 m 385 452 q 333 428 342 452 q 321 373 332 425 q 307 301 310 321 q 287 203 304 281 q 271 98 271 125 q 328 67 271 67 l 334 66 l 341 66 l 368 65 l 402 65 q 567 115 504 65 q 648 276 648 180 l 648 296 q 594 411 648 368 q 444 454 539 454 l 404 454 q 385 452 390 452 m 207 502 q 232 641 207 502 q 256 817 256 781 q 231 868 256 852 q 186 905 186 897 q 227 933 186 928 q 422 939 268 939 l 547 939 q 811 817 756 939 q 827 723 827 781 q 791 614 827 664 q 711 535 755 565 l 646 492 q 667 477 646 490 q 764 394 734 441 q 793 283 793 347 q 675 65 793 148 q 561 15 631 34 q 410 -5 492 -5 l 304 -5 l 286 -4 l 216 -4 q 18 18 18 -4 q 81 67 18 33 q 133 139 117 87 q 207 502 157 222 z "},"C":{"ha":886,"x_min":84,"x_max":911,"o":"m 616 947 q 755 928 637 947 q 880 906 873 909 q 911 817 911 888 q 886 710 911 746 q 863 699 878 699 q 813 759 857 699 q 723 844 769 819 q 604 868 677 868 q 344 716 461 868 q 265 559 294 652 q 235 378 235 466 q 294 168 235 249 q 489 75 361 75 q 717 170 604 75 q 783 209 763 209 l 784 209 q 804 185 804 209 q 777 110 804 161 q 723 42 750 60 q 605 5 695 24 q 446 -14 515 -14 q 309 13 376 -14 q 112 210 167 70 q 84 364 84 281 l 84 387 q 129 600 84 494 q 422 905 221 815 q 616 947 515 947 z "},"D":{"ha":985,"x_min":26,"x_max":968,"o":"m 541 870 l 517 870 q 414 825 432 870 q 370 624 401 795 l 318 341 l 313 319 l 309 297 q 275 111 275 116 l 275 100 q 372 68 275 68 l 394 68 q 690 201 574 68 q 785 364 751 270 q 818 542 818 458 l 818 565 l 817 576 q 736 798 817 716 q 653 849 705 828 q 541 870 600 870 m 26 20 q 88 74 26 33 q 144 161 125 98 q 207 467 163 224 q 250 808 250 710 q 229 857 250 843 q 185 896 185 884 q 508 941 185 941 l 544 941 q 549 941 546 941 q 723 914 641 941 q 968 541 968 836 q 924 336 968 439 q 806 157 881 232 q 385 -3 646 -3 l 262 -3 l 244 -2 l 175 -2 l 75 0 q 26 20 26 0 z "},"E":{"ha":846,"x_min":30,"x_max":851,"o":"m 382 600 q 408 549 382 567 q 475 531 433 531 q 565 557 517 531 q 635 583 612 583 q 669 521 669 583 q 648 415 669 459 q 604 371 628 371 q 548 406 586 371 q 463 441 509 441 q 382 425 416 441 q 338 390 349 409 q 301 176 301 319 q 323 95 301 112 q 429 79 345 79 q 577 100 513 79 q 696 155 641 121 q 753 189 752 189 q 768 165 768 189 q 709 30 768 89 q 588 -1 678 -1 l 530 -1 l 500 0 l 320 0 q 30 21 30 0 q 91 75 30 41 q 143 150 128 95 q 212 490 157 205 q 266 812 266 775 q 238 869 266 848 q 195 907 195 900 q 241 937 195 932 q 531 938 254 938 l 769 940 q 851 859 851 940 q 824 764 851 764 q 779 793 815 764 q 709 832 743 821 q 548 859 625 859 q 435 796 471 859 q 382 600 382 705 z "},"F":{"ha":796,"x_min":37,"x_max":851,"o":"m 262 823 q 241 868 262 852 q 195 913 195 905 q 279 937 195 937 l 303 938 q 351 939 327 939 l 743 941 l 791 941 q 839 922 827 941 q 851 869 851 904 q 814 753 851 753 q 783 784 808 753 q 556 863 720 863 q 493 853 515 863 q 425 789 450 833 q 394 700 414 770 q 374 599 374 629 q 391 551 374 568 q 469 519 423 519 q 547 537 514 519 q 634 579 627 579 q 665 530 665 579 q 647 412 665 457 q 599 367 629 367 q 547 397 577 367 q 477 428 516 428 q 344 387 380 428 q 318 303 330 371 q 305 159 305 235 q 338 45 305 83 q 353 21 353 28 q 275 0 353 0 l 133 0 q 37 28 37 0 q 92 75 37 41 q 142 140 127 96 q 177 310 149 161 q 233 602 205 459 q 262 823 262 745 z "},"G":{"ha":949,"x_min":77,"x_max":921,"o":"m 610 946 l 637 946 q 884 913 799 946 q 921 819 921 899 q 899 742 921 771 q 859 713 878 713 q 806 762 841 713 q 608 864 731 864 q 340 724 450 864 q 262 574 292 662 q 232 401 232 486 q 392 90 232 160 q 494 71 437 71 q 628 115 584 71 q 684 288 684 172 q 659 358 684 320 q 633 408 633 397 q 733 431 633 431 q 871 425 833 431 q 909 395 909 419 q 889 370 909 388 q 860 333 869 352 q 824 197 850 314 q 776 61 798 79 q 694 28 755 42 q 439 -13 506 -13 q 298 17 373 -13 q 104 216 159 72 q 77 388 77 288 q 120 598 77 489 q 243 787 163 707 q 419 906 323 867 q 610 946 516 946 z "},"H":{"ha":1056,"x_min":23,"x_max":1112,"o":"m 847 825 q 831 870 847 847 l 815 888 q 797 913 797 907 q 884 939 797 939 l 916 938 l 1048 939 q 1112 913 1112 939 q 1046 866 1112 900 q 996 801 1008 847 l 988 768 q 962 638 977 718 q 908 358 947 558 q 869 122 869 159 q 884 73 869 85 l 909 60 q 953 33 953 40 q 890 0 953 0 l 823 1 l 759 1 q 643 7 658 1 q 628 32 628 12 q 666 70 628 40 q 717 130 704 100 q 751 264 730 159 q 772 382 772 368 q 744 442 772 433 q 549 446 734 446 q 341 414 364 446 q 310 303 331 401 q 290 148 290 205 q 314 61 290 90 q 339 22 339 33 q 115 -1 339 -1 l 49 -1 q 23 28 23 -1 q 72 63 23 43 q 133 113 120 83 q 207 473 145 142 q 268 826 268 804 q 246 865 268 848 l 222 878 q 184 910 184 898 q 219 939 184 939 l 252 939 l 319 937 l 385 937 q 509 917 509 937 q 470 870 509 897 q 417 808 431 843 q 368 585 368 685 q 395 524 368 534 q 591 520 406 520 q 798 549 776 520 q 827 652 808 562 q 847 825 847 742 z "},"I":{"ha":500,"x_min":29,"x_max":548,"o":"m 277 818 q 236 875 277 852 q 195 913 195 898 q 376 937 195 937 l 495 939 q 548 921 548 939 q 484 871 548 903 q 431 804 447 853 q 362 484 423 784 q 301 109 301 183 q 340 60 301 83 q 380 24 380 38 q 188 -1 380 -1 l 66 -3 q 29 17 29 -3 q 69 54 29 36 q 122 85 110 73 q 145 130 134 98 q 216 458 156 164 q 277 818 277 753 z "},"J":{"ha":563,"x_min":-21,"x_max":558,"o":"m 465 937 q 558 895 558 937 q 539 856 558 881 q 521 800 521 831 q 483 625 521 769 q 445 421 445 481 l 446 391 q 429 308 446 350 q 394 200 411 267 q 308 -19 357 54 q 193 -135 258 -91 q 62 -178 127 -178 l 47 -178 q -2 -165 16 -178 q -21 -136 -21 -152 q 50 -81 -21 -119 l 98 -59 q 137 -35 124 -47 q 204 67 172 -1 q 244 214 237 134 q 291 369 246 238 q 336 587 336 500 q 275 854 336 834 q 224 882 224 870 q 244 903 224 895 q 410 937 319 937 l 465 937 z "},"K":{"ha":957,"x_min":37,"x_max":979,"o":"m 741 910 q 822 934 741 934 q 979 903 979 934 q 907 849 979 892 q 795 770 836 806 q 595 586 675 665 q 547 497 547 539 q 749 157 547 439 q 838 80 783 111 q 892 37 892 50 q 855 2 892 16 q 749 -11 818 -11 q 656 18 680 -11 q 631 68 644 31 q 481 340 602 150 q 393 423 429 423 q 328 336 357 423 q 300 190 300 249 q 309 98 300 132 l 315 76 l 328 45 q 290 10 328 18 q 180 1 252 1 l 94 -1 q 37 25 37 -1 q 92 63 37 40 q 138 119 125 77 q 204 452 142 130 q 267 812 267 774 q 231 874 267 849 q 196 911 196 900 q 317 937 196 937 l 411 937 q 497 908 497 937 q 460 864 497 907 q 406 768 424 821 q 368 561 368 650 q 392 531 368 531 q 667 755 427 531 q 751 874 751 835 l 747 888 q 741 910 741 904 z "},"L":{"ha":813,"x_min":30,"x_max":779,"o":"m 349 465 q 318 315 349 465 q 288 129 288 165 q 320 83 288 93 q 448 73 352 73 q 607 106 545 73 q 694 179 641 123 q 760 235 747 235 q 779 216 779 235 q 756 122 779 197 q 720 28 734 46 q 624 -1 696 -1 l 503 -1 l 482 -1 l 420 -1 l 378 0 l 336 0 q 30 22 30 0 q 86 68 30 35 q 139 143 123 90 q 185 353 155 196 q 242 644 214 509 q 269 823 269 778 q 229 876 269 850 q 189 921 189 902 q 229 939 189 939 l 269 939 l 290 939 l 450 939 l 470 939 q 536 918 536 939 q 478 871 536 901 q 417 789 435 849 q 349 465 410 766 z "},"M":{"ha":1248,"x_min":37,"x_max":1275,"o":"m 1075 125 q 1107 71 1075 99 q 1139 35 1139 42 q 990 0 1139 0 l 949 0 q 860 30 860 0 l 865 45 l 879 64 l 895 90 q 943 224 921 137 q 995 492 964 312 q 1026 703 1026 673 l 1023 715 q 843 453 1006 715 l 755 311 q 712 241 724 260 l 646 136 q 565 58 591 58 q 522 96 538 58 l 501 172 l 492 211 q 472 292 481 256 q 444 411 463 328 q 355 703 373 703 q 339 674 347 703 q 262 302 332 646 q 243 160 243 207 l 254 47 q 231 8 254 16 q 166 0 209 0 q 45 24 70 0 l 37 40 q 80 90 37 56 q 136 160 123 123 q 205 454 149 197 q 260 802 260 711 q 243 867 260 833 q 226 901 226 901 q 304 937 226 937 q 416 916 382 937 q 471 850 451 895 q 556 544 491 804 q 637 283 621 283 q 810 545 648 283 q 1016 858 972 807 q 1095 922 1059 909 q 1202 935 1130 935 q 1275 908 1275 935 l 1259 890 l 1232 871 q 1182 787 1196 840 q 1121 452 1167 734 q 1075 125 1075 171 z "},"N":{"ha":1054,"x_min":31,"x_max":1116,"o":"m 194 913 q 282 937 194 937 q 373 916 323 937 q 456 848 422 895 q 636 527 490 802 q 799 252 781 252 q 818 277 810 252 q 861 490 825 302 q 897 788 897 678 q 880 851 897 814 q 862 906 862 888 q 953 937 862 937 l 983 937 l 1015 937 q 1116 923 1116 937 q 1077 876 1116 899 q 1002 797 1017 839 q 916 377 997 785 l 840 -2 q 708 104 774 -2 q 528 436 681 147 q 357 724 375 724 q 332 667 347 724 q 283 412 317 610 q 250 153 250 214 q 271 83 250 125 l 282 64 q 300 32 300 36 q 166 -1 300 -1 q 31 30 31 -1 q 82 73 31 44 q 150 166 132 102 q 213 470 159 199 q 267 781 267 740 q 248 846 267 823 l 230 863 l 211 878 q 194 913 194 896 z "},"O":{"ha":996,"x_min":81,"x_max":987,"o":"m 451 59 l 486 59 q 622 106 555 59 q 738 225 688 153 q 812 390 787 298 q 838 563 838 481 l 838 574 q 819 701 838 643 q 606 876 763 876 l 593 876 q 452 833 517 876 q 260 565 318 743 q 229 372 229 468 l 230 361 q 291 147 230 234 q 365 81 321 104 q 451 59 408 59 m 610 950 l 625 950 q 889 839 785 950 q 960 720 932 792 q 987 568 987 648 l 987 553 q 947 349 987 456 q 833 158 908 241 q 659 29 758 75 q 458 -17 559 -17 l 443 -17 q 300 12 365 -17 q 111 205 162 71 q 81 366 81 285 l 81 381 q 119 583 81 479 q 232 772 157 687 q 407 903 306 857 q 610 950 508 950 z "},"P":{"ha":848,"x_min":33,"x_max":865,"o":"m 541 874 l 500 874 q 425 840 440 874 q 399 734 410 806 q 371 578 388 663 q 354 484 354 494 l 354 479 q 404 463 354 463 l 445 463 q 637 519 567 463 q 726 701 726 589 l 726 708 q 677 829 726 784 q 541 874 628 874 m 33 19 q 104 85 33 21 q 159 198 137 116 q 218 505 182 279 q 254 830 254 731 q 220 861 254 846 q 186 897 186 877 q 229 930 186 923 q 498 948 335 948 l 534 948 q 844 807 777 948 q 865 696 865 763 q 830 566 865 629 q 583 400 758 433 q 416 391 536 391 q 333 359 353 391 q 294 139 294 296 q 334 70 294 103 q 374 21 374 37 q 293 -8 374 -8 l 256 -8 l 106 -3 q 33 19 33 -3 z "},"Q":{"ha":1004,"x_min":84,"x_max":991,"o":"m 852 528 l 852 550 q 767 789 852 692 q 597 864 700 864 l 585 864 q 347 737 454 864 q 260 578 293 673 q 228 408 228 484 l 228 374 q 298 152 228 244 q 482 59 369 59 l 494 59 q 496 59 495 59 q 629 98 564 59 q 820 348 760 174 q 852 528 852 441 m 950 -100 q 965 -122 965 -106 q 930 -157 965 -138 q 792 -200 853 -200 q 667 -170 730 -200 q 211 71 273 19 q 117 203 150 122 q 84 373 84 284 l 84 393 q 126 599 84 493 q 243 783 168 704 q 618 946 397 945 q 880 842 773 946 q 961 714 931 792 q 991 565 991 635 l 991 526 q 972 391 991 469 q 790 103 927 216 q 676 9 676 10 q 783 -66 676 -16 q 865 -93 833 -90 l 880 -94 q 915 -96 882 -94 q 950 -100 947 -98 z "},"R":{"ha":895,"x_min":16,"x_max":848,"o":"m 460 870 q 404 829 417 870 q 344 515 344 636 l 344 510 q 389 492 344 492 l 420 492 q 662 614 597 492 q 685 705 685 657 l 685 730 q 635 833 685 795 q 503 872 585 872 l 490 872 q 460 870 472 870 m 848 35 q 723 -5 848 -5 l 702 -5 q 590 68 635 -5 q 531 219 564 111 q 475 363 497 328 q 372 412 445 412 q 315 347 333 412 q 285 141 285 235 q 307 76 285 113 q 330 31 330 39 q 117 -1 330 -1 q 25 4 35 -1 q 16 28 16 9 q 57 60 16 41 q 109 93 98 79 q 126 131 119 106 q 149 237 133 156 l 170 353 q 179 398 174 375 l 214 581 q 248 820 248 755 q 217 872 248 852 q 186 914 186 893 q 408 940 186 940 l 477 941 l 524 941 q 798 823 735 941 q 822 709 822 779 q 781 577 822 639 q 673 471 740 516 q 607 408 607 427 q 656 271 607 387 q 728 124 706 156 q 783 78 751 92 q 848 35 848 50 z "},"S":{"ha":730,"x_min":49,"x_max":727,"o":"m 471 950 q 572 938 518 950 q 666 926 625 926 q 716 911 706 926 q 727 873 727 897 l 727 853 q 703 728 727 778 q 679 708 692 708 q 629 763 659 708 q 562 845 600 817 q 457 872 524 872 q 346 829 391 872 q 300 727 300 787 q 354 618 300 668 q 487 531 385 589 q 631 416 589 473 q 673 268 673 359 q 673 265 673 267 q 647 159 673 211 q 574 69 620 106 q 340 -11 474 -11 l 316 -11 q 83 31 198 -11 q 49 90 49 43 l 49 112 q 63 212 49 169 q 102 254 77 254 q 148 195 117 254 q 212 109 178 135 q 346 66 266 66 q 481 112 427 66 q 536 225 536 157 q 484 345 536 294 q 363 427 458 370 q 219 540 269 484 q 170 667 170 596 q 260 876 170 801 q 471 950 351 950 z "},"T":{"ha":872,"x_min":117,"x_max":948,"o":"m 132 715 q 117 736 117 715 l 117 756 q 135 846 117 784 q 165 924 152 908 q 237 940 179 940 l 397 940 l 420 939 l 809 938 q 855 939 832 938 l 899 940 l 918 940 q 948 915 948 940 l 948 898 q 922 743 948 784 q 899 726 911 726 q 867 767 886 726 q 825 825 848 808 q 692 858 780 858 q 634 845 654 858 q 598 767 614 831 q 534 437 581 703 q 488 134 488 172 q 517 75 488 96 q 571 24 571 37 q 513 -1 571 -1 l 490 -1 l 467 0 l 286 -1 l 264 -1 q 211 23 211 -1 q 279 73 211 33 q 331 145 315 95 q 404 489 347 195 q 461 816 461 783 q 401 861 461 861 q 264 837 307 861 q 191 765 222 814 q 132 715 161 715 z "},"U":{"ha":1000,"x_min":162,"x_max":1067,"o":"m 164 897 q 205 930 164 924 q 408 936 245 936 q 481 919 481 936 q 444 873 481 903 q 395 799 406 844 q 298 271 298 411 q 350 129 298 181 q 486 76 403 76 q 732 218 656 76 q 812 501 769 286 q 856 769 856 716 q 825 860 856 821 q 793 908 793 898 q 850 937 793 937 l 929 937 q 1032 933 1006 937 q 1067 902 1067 928 q 1023 859 1067 883 q 964 793 979 835 q 902 510 962 787 q 795 155 842 233 q 661 35 747 76 q 474 -6 574 -6 l 446 -6 q 441 -6 444 -6 q 321 16 375 -6 q 162 265 163 81 q 184 463 162 317 q 216 660 206 608 l 238 765 l 241 789 q 224 845 241 829 l 208 857 l 189 867 q 164 897 164 884 z "},"V":{"ha":965,"x_min":146,"x_max":1069,"o":"m 798 896 q 834 930 798 922 q 970 938 871 938 q 1069 907 1069 938 q 1019 863 1069 890 q 951 812 970 837 q 740 472 932 787 q 508 100 547 157 q 397 1 439 1 q 320 124 342 1 q 312 186 318 135 q 300 285 306 238 l 291 356 q 285 404 288 385 l 279 450 q 229 806 237 778 q 184 865 222 834 q 146 909 146 895 q 303 936 146 936 q 411 933 393 936 q 450 903 450 928 q 425 865 450 901 q 399 776 399 829 q 428 453 399 678 q 461 215 457 227 q 476 203 466 203 q 757 660 502 203 q 827 834 827 785 q 812 869 827 848 q 798 896 798 890 z "},"W":{"ha":1350,"x_min":189,"x_max":1396,"o":"m 280 930 q 418 838 418 930 q 406 769 418 833 q 394 562 394 705 q 404 361 394 418 q 448 304 414 304 q 509 353 476 304 q 629 564 579 455 q 678 759 678 673 l 676 788 l 671 815 q 711 891 671 861 q 799 921 751 921 q 873 904 847 921 q 899 831 899 888 l 892 803 l 883 774 q 876 699 876 745 q 891 489 876 652 q 912 313 907 325 q 929 301 917 301 q 985 346 958 301 q 1108 576 1055 460 q 1175 748 1162 693 l 1180 777 l 1181 801 q 1269 909 1192 876 q 1350 924 1303 924 q 1396 890 1396 924 l 1396 874 q 1373 824 1396 863 q 1320 748 1350 785 q 1261 657 1291 711 l 1168 482 q 978 137 1010 186 q 909 67 945 87 q 857 47 873 47 q 785 132 810 47 q 752 389 768 195 q 722 583 737 583 l 707 561 q 565 316 680 518 q 413 66 450 114 q 337 19 376 19 q 283 70 297 19 q 260 366 277 92 q 238 685 243 640 q 211 793 233 730 q 189 867 189 857 q 280 930 189 930 z "},"X":{"ha":951,"x_min":10,"x_max":1011,"o":"m 419 931 q 477 907 477 931 q 460 882 477 902 q 443 846 443 861 q 523 636 443 784 q 551 597 544 597 q 670 703 586 597 q 754 850 754 809 l 747 865 q 734 895 734 888 q 762 930 734 922 q 842 938 790 938 q 1011 914 1011 938 q 954 867 1011 890 q 849 795 896 844 q 631 545 731 672 q 605 474 605 511 q 673 310 605 463 q 764 124 741 158 q 831 67 787 90 q 876 37 876 45 q 667 0 876 0 l 639 0 q 560 22 560 0 q 577 60 560 37 q 593 102 593 83 q 507 339 593 183 q 478 372 488 372 l 461 361 q 293 160 380 292 q 262 75 262 113 l 270 61 q 280 29 280 41 q 267 9 280 16 q 132 1 253 1 q 10 24 10 1 q 70 75 10 47 q 193 174 129 103 q 428 494 428 431 q 400 573 428 515 q 286 799 311 762 q 220 856 260 837 q 180 897 180 876 l 189 907 q 419 931 235 931 z "},"Y":{"ha":896,"x_min":148,"x_max":962,"o":"m 193 851 q 171 863 193 851 q 148 890 148 875 q 250 906 148 906 q 321 910 288 906 q 366 914 355 914 q 404 890 404 914 q 395 865 404 882 q 386 839 386 847 q 495 575 386 802 q 522 536 513 536 q 614 635 540 536 q 760 861 760 829 q 756 880 760 867 l 751 893 q 784 915 751 915 l 800 915 l 832 913 l 867 914 q 962 893 962 914 q 911 855 962 878 q 834 804 861 833 q 569 429 689 642 q 527 305 547 391 q 507 156 507 219 q 532 70 507 93 q 578 20 578 27 q 516 -1 578 -1 l 492 -1 l 334 -1 l 311 -1 l 289 -1 q 231 17 231 -1 q 280 66 231 36 q 345 136 330 97 q 387 395 387 246 q 347 556 387 429 q 262 779 307 684 q 193 851 239 827 z "},"Z":{"ha":853,"x_min":39,"x_max":874,"o":"m 874 905 q 559 493 874 893 q 244 90 244 92 q 415 75 244 75 q 639 100 586 75 q 719 165 692 125 q 783 233 766 233 q 800 210 800 233 q 779 96 800 157 q 743 18 759 35 q 652 -11 717 -11 l 597 -11 q 543 -9 580 -11 l 514 -8 q 319 -4 427 -4 l 236 -4 l 181 -5 q 58 4 77 -5 q 39 37 39 14 q 65 99 39 60 q 332 434 174 261 q 663 831 663 795 q 573 854 663 854 q 338 823 399 854 q 264 760 302 805 q 211 715 227 715 q 183 762 183 715 q 202 859 183 809 q 240 921 221 908 q 416 934 260 934 l 611 931 q 694 932 638 931 l 806 936 q 874 905 874 936 z "},"[":{"ha":479,"x_min":71,"x_max":522,"o":"m 468 1025 q 522 1010 522 1025 l 522 997 q 433 952 522 959 q 330 904 345 945 q 259 423 322 881 q 197 -88 197 -35 q 210 -153 197 -140 q 286 -179 222 -166 q 350 -221 350 -193 q 295 -249 350 -249 l 242 -249 l 225 -248 l 208 -248 q 92 -241 113 -248 q 71 -200 71 -233 q 144 382 71 -168 q 220 939 218 932 q 263 1015 237 1005 q 398 1025 288 1025 l 450 1025 l 468 1025 z "},"\\":{"ha":560,"x_min":82,"x_max":494,"o":"m 463 -144 l 451 -144 q 391 -66 415 -144 q 82 985 82 945 q 113 1007 82 1007 l 125 1007 q 178 955 161 1007 q 469 -25 340 452 q 494 -122 494 -118 q 463 -144 494 -144 z "},"]":{"ha":477,"x_min":-18,"x_max":432,"o":"m 78 -249 l 26 -249 q -18 -227 -18 -249 q 16 -187 -18 -201 q 83 -174 28 -182 q 152 -155 139 -166 q 175 -114 165 -144 q 246 376 184 -84 q 308 880 308 836 q 288 938 308 924 q 216 955 281 943 q 152 992 152 966 q 201 1025 152 1025 l 237 1025 l 254 1025 l 290 1025 q 407 1018 381 1025 q 432 980 432 1010 q 356 376 432 930 q 277 -189 280 -178 q 246 -238 266 -227 q 78 -249 227 -249 z "},"^":{"ha":671,"x_min":121,"x_max":622,"o":"m 419 916 l 427 916 q 474 858 448 916 q 622 522 622 522 l 622 515 q 589 496 622 496 q 533 530 555 496 q 454 684 502 576 q 395 791 407 791 q 302 664 391 791 q 206 528 214 537 q 151 498 181 498 q 121 512 121 498 q 363 882 121 549 q 419 916 388 916 z "},"_":{"ha":703,"x_min":-12,"x_max":616,"o":"m 142 -65 l 268 -65 l 275 -66 l 548 -65 q 616 -83 616 -65 l 616 -89 q 588 -146 616 -142 q 288 -149 572 -149 l 93 -149 l 73 -150 l 44 -150 q -12 -132 -12 -150 l -12 -125 q 3 -73 -12 -81 q 142 -65 18 -65 z "},"`":{"ha":454,"x_min":146,"x_max":368,"o":"m 146 940 l 146 949 q 208 978 146 978 l 219 978 q 230 977 227 977 q 282 940 258 977 q 329 847 307 903 q 360 774 352 790 q 368 751 368 758 l 368 748 q 345 730 368 730 l 332 730 q 227 834 307 730 q 146 940 146 937 z "},"a":{"ha":711,"x_min":43,"x_max":653,"o":"m 245 86 l 257 86 q 336 123 286 86 q 410 205 386 159 q 490 468 490 355 l 491 480 l 492 498 q 420 560 492 560 l 401 560 q 320 532 363 560 q 248 460 278 504 q 172 224 172 349 l 172 212 q 193 120 172 154 q 245 86 213 86 m 397 625 l 422 625 q 476 617 437 625 q 551 609 515 609 l 573 612 q 604 614 586 614 q 636 571 636 614 q 598 382 636 553 q 559 168 559 212 q 599 123 559 123 l 616 123 l 625 124 q 653 104 653 124 l 653 96 q 607 39 653 66 q 516 12 560 12 q 455 32 472 12 q 429 90 439 52 q 416 128 420 128 q 365 90 412 128 q 276 29 318 51 q 188 7 235 7 l 176 7 q 81 55 119 7 q 43 186 43 103 q 73 346 43 267 q 275 587 134 508 q 397 625 343 625 z "},"b":{"ha":706,"x_min":56,"x_max":673,"o":"m 212 147 q 302 62 212 62 l 314 62 q 391 87 349 62 q 518 263 477 139 q 540 366 540 328 l 541 378 l 541 405 q 517 502 541 466 q 456 538 492 538 l 444 538 q 366 506 414 538 q 290 426 318 474 q 213 178 213 296 l 212 165 l 212 147 m 56 105 q 78 190 56 116 q 156 539 100 264 q 212 850 212 814 q 192 902 212 885 q 148 951 148 939 q 170 975 148 963 q 275 1004 220 1004 q 343 989 330 1004 q 357 946 357 975 q 323 747 357 916 q 289 550 289 577 q 300 523 289 523 q 338 543 306 523 q 385 572 370 563 q 523 610 453 610 q 633 556 593 610 q 673 431 673 503 l 673 414 q 638 256 673 334 q 436 37 569 100 q 298 3 366 3 l 283 3 l 268 4 l 239 5 q 102 24 148 5 q 56 91 56 44 l 56 105 z "},"c":{"ha":591,"x_min":56,"x_max":587,"o":"m 280 -12 l 252 -12 q 113 51 170 -12 q 56 207 56 115 l 56 236 q 84 377 56 305 q 266 590 141 521 q 410 630 340 630 l 423 630 q 541 605 494 630 q 587 532 587 581 q 569 484 587 505 q 532 463 551 463 q 476 508 513 463 q 393 553 440 553 q 328 533 367 553 q 256 465 290 513 q 189 240 189 369 q 233 115 189 161 q 336 83 264 83 q 420 109 364 83 q 491 136 476 136 q 511 117 511 136 q 430 36 511 85 q 280 -12 349 -12 z "},"d":{"ha":739,"x_min":47,"x_max":726,"o":"m 262 82 l 274 82 q 360 121 311 82 q 436 211 409 160 q 505 479 505 342 l 506 492 q 483 540 506 522 q 427 558 460 558 l 407 558 q 334 534 376 558 q 256 463 292 511 q 200 352 221 414 q 179 242 179 289 l 179 210 q 180 189 180 196 q 205 114 180 146 q 262 82 231 82 m 726 938 q 657 562 726 892 q 589 185 589 232 q 599 127 589 138 q 640 105 610 115 q 671 87 671 96 q 626 34 671 59 q 534 8 582 8 l 519 8 q 455 58 481 8 q 416 107 429 107 q 372 81 408 107 q 198 10 272 10 q 197 10 197 10 q 91 60 134 10 q 47 194 47 110 q 83 362 47 279 q 444 611 190 611 l 445 611 q 549 657 527 611 q 582 849 582 727 q 558 908 582 890 q 517 946 517 939 q 541 972 517 960 q 646 1004 598 1004 q 726 953 726 1004 l 726 938 z "},"e":{"ha":612,"x_min":54,"x_max":593,"o":"m 207 372 l 207 359 q 220 342 207 342 l 228 342 q 397 397 278 342 q 473 487 473 431 l 473 490 l 472 494 q 454 549 472 526 q 403 571 437 571 l 391 571 q 282 515 332 571 q 207 372 207 430 m 283 -9 l 257 -9 q 170 11 212 -9 q 103 63 128 31 q 54 218 54 126 l 54 231 q 165 515 54 391 q 281 605 215 572 q 412 638 348 638 l 425 638 q 550 595 507 638 q 593 487 593 553 q 543 384 593 422 q 305 298 477 334 q 223 275 238 284 q 192 204 192 258 q 231 117 192 150 q 317 84 270 84 q 424 112 363 84 q 501 139 485 139 q 517 125 517 139 q 434 39 517 87 q 283 -9 351 -9 z "},"f":{"ha":471,"x_min":-58,"x_max":658,"o":"m 533 1008 l 553 1008 q 629 993 601 1008 q 658 954 658 977 l 658 937 q 638 893 658 911 q 597 876 618 876 q 547 897 576 876 q 494 918 517 918 q 400 850 438 918 q 353 681 353 767 q 368 639 353 654 q 429 617 382 625 q 475 583 475 610 q 428 555 475 572 q 354 519 380 537 q 315 463 328 502 q 252 164 300 422 q 178 -137 203 -95 q 23 -230 123 -230 q 22 -230 22 -230 q -58 -176 -58 -230 q -22 -142 -58 -157 q 37 -104 14 -127 q 80 -26 60 -81 q 134 213 100 29 q 167 473 167 397 q 149 532 167 496 q 131 588 131 568 q 174 642 131 608 q 242 761 200 663 q 324 905 283 859 q 423 980 366 951 q 533 1008 481 1008 z "},"g":{"ha":630,"x_min":-52,"x_max":639,"o":"m 202 334 q 220 281 202 304 q 258 258 239 258 l 271 258 q 372 328 321 258 q 422 468 422 397 q 423 482 423 477 l 425 506 l 425 515 q 404 584 425 559 q 355 608 384 608 l 346 608 q 251 543 298 608 q 203 410 203 477 l 202 400 q 202 391 202 395 l 201 367 l 201 348 q 202 334 202 338 m 223 8 l 198 8 q 105 -32 149 8 q 60 -113 60 -73 l 60 -134 q 111 -210 60 -179 q 212 -241 161 -241 l 222 -242 l 239 -243 l 260 -243 q 380 -211 321 -243 q 438 -127 438 -180 l 438 -113 q 369 -29 438 -66 q 223 8 300 8 m 244 199 q 218 154 218 183 q 336 79 218 124 q 489 7 455 33 q 545 -105 545 -37 q 523 -176 545 -136 q 454 -247 501 -216 q 243 -299 373 -299 l 206 -299 q 18 -253 89 -299 q -52 -146 -52 -208 l -52 -130 q 24 -20 -52 -74 q 72 16 69 13 q 95 85 75 20 q 132 174 114 151 q 150 216 150 197 l 130 250 q 107 303 125 258 q 89 395 89 348 q 116 494 89 441 q 192 587 143 547 q 401 658 280 658 l 418 658 l 496 652 q 531 654 510 652 l 565 658 l 581 658 q 639 621 639 658 q 604 580 639 580 l 583 583 q 545 561 553 583 q 538 496 540 548 q 475 319 534 386 q 401 256 436 274 q 310 222 366 238 q 244 199 254 205 z "},"h":{"ha":748,"x_min":58,"x_max":659,"o":"m 520 391 q 444 522 520 522 q 443 522 444 522 q 330 445 382 522 q 232 153 258 340 q 208 58 223 92 q 115 -1 182 -1 q 72 18 86 -1 q 58 50 58 37 q 95 205 58 63 q 174 570 131 348 q 217 830 217 793 q 196 896 217 867 q 175 938 175 924 q 192 966 175 952 q 278 996 229 996 q 351 968 327 996 q 363 923 363 954 q 328 715 363 891 q 292 521 292 538 q 310 503 292 503 q 366 539 319 503 q 451 593 412 574 q 545 611 490 611 q 629 569 599 611 q 659 477 659 528 q 635 295 659 427 q 610 143 610 163 q 639 63 610 92 q 515 33 526 33 l 514 33 q 475 79 475 33 q 497 242 475 111 q 520 391 520 372 z "},"i":{"ha":419,"x_min":79,"x_max":397,"o":"m 332 939 q 377 920 357 939 q 397 876 397 900 l 397 858 q 395 839 395 850 q 373 803 395 829 q 331 777 352 777 q 323 776 327 776 l 313 774 l 305 774 l 302 775 l 297 775 q 282 777 290 777 q 255 796 274 777 q 237 841 237 814 l 237 857 q 239 875 239 865 q 260 911 239 885 q 302 937 282 937 l 321 939 l 332 939 m 188 473 q 156 517 188 509 q 100 545 100 532 q 166 602 100 574 q 285 630 232 630 l 294 630 q 337 577 337 630 q 296 366 337 548 q 255 154 255 184 q 268 112 255 123 q 316 101 281 101 q 351 89 351 101 q 297 39 351 64 q 140 -5 200 -5 q 79 37 79 -5 l 79 46 q 105 132 79 65 q 143 243 130 198 q 188 473 188 406 z "},"j":{"ha":396,"x_min":-135,"x_max":397,"o":"m 239 847 l 239 863 q 262 918 239 890 q 319 945 286 945 l 328 945 q 379 925 362 945 q 395 892 395 905 l 397 880 l 397 864 q 395 851 395 856 q 372 807 395 830 q 332 784 349 784 q 324 783 328 783 l 311 781 l 309 781 l 288 784 q 257 802 275 784 q 239 847 239 820 m 282 630 q 330 560 330 630 l 330 548 l 330 536 q 277 223 330 488 q 186 -119 224 -41 q 79 -246 149 -197 q -63 -295 9 -295 q -135 -253 -135 -295 q -47 -195 -135 -195 q 84 -68 40 -195 q 143 191 100 -24 q 186 448 186 406 q 173 507 186 490 q 125 527 159 523 q 92 547 92 531 q 124 579 92 562 q 271 630 223 630 l 282 630 z "},"k":{"ha":722,"x_min":68,"x_max":673,"o":"m 160 962 q 207 1000 160 987 q 313 1014 254 1014 q 371 977 371 1014 q 329 701 371 937 q 287 398 287 465 q 298 379 287 379 q 433 492 310 379 q 559 605 556 605 q 668 583 642 605 q 673 568 673 578 q 605 506 673 551 q 490 414 536 460 q 444 338 444 368 q 561 130 444 288 q 642 71 595 84 q 653 65 653 67 q 633 50 653 58 q 504 24 576 24 q 412 152 470 24 q 317 280 353 280 q 260 174 289 280 q 225 59 231 68 q 116 14 193 14 q 68 55 68 14 q 81 106 68 74 q 109 189 95 139 q 174 516 123 238 q 224 844 224 794 q 218 904 224 893 q 186 936 212 916 q 160 962 160 957 z "},"l":{"ha":401,"x_min":69,"x_max":385,"o":"m 287 98 q 319 101 307 101 q 330 92 330 101 q 251 32 330 70 q 120 -5 171 -5 q 69 42 69 -5 l 69 52 q 100 180 69 61 q 183 568 130 299 q 235 872 235 838 q 209 918 235 906 q 162 957 162 939 q 184 975 162 966 q 342 1003 245 1003 l 354 1003 q 385 956 385 1003 q 362 822 385 924 q 289 461 339 720 q 238 164 238 201 q 287 98 238 98 z "},"m":{"ha":1115,"x_min":110,"x_max":1018,"o":"m 532 447 q 532 449 532 448 q 481 514 532 514 q 414 488 454 514 q 264 248 317 427 q 244 172 260 236 q 222 94 229 107 q 174 41 198 41 q 130 89 151 41 q 110 187 110 137 q 117 263 110 237 q 141 350 141 347 l 132 431 q 150 536 132 495 q 193 576 168 576 q 255 555 231 576 l 267 543 l 277 530 l 285 517 q 307 503 295 503 q 350 530 319 503 q 534 627 463 627 l 535 627 q 613 608 588 627 q 652 538 637 589 q 673 488 667 488 q 733 526 686 488 q 820 584 779 565 q 912 604 861 604 q 991 563 964 604 q 1018 470 1018 523 q 996 312 1018 418 q 975 174 975 205 q 995 106 975 142 q 1015 71 1015 71 l 974 58 q 901 37 929 37 q 857 66 873 37 q 841 130 841 94 q 854 254 841 165 q 867 394 867 344 q 853 477 867 445 q 811 509 838 509 q 751 477 784 509 q 677 359 718 446 q 627 161 637 273 q 614 85 622 111 l 604 61 q 498 -2 572 -2 q 442 25 442 -2 q 465 128 442 53 q 532 445 532 350 l 532 447 z "},"n":{"ha":773,"x_min":98,"x_max":703,"o":"m 547 445 q 486 536 547 536 q 409 499 453 536 q 332 407 366 463 q 268 233 298 351 q 249 145 266 224 q 228 56 232 66 q 170 8 209 8 q 115 39 132 8 q 98 113 98 69 l 98 130 q 129 250 98 175 q 159 369 159 325 q 139 452 159 413 q 119 522 119 491 q 149 582 119 552 q 217 612 178 612 q 279 585 255 612 q 303 513 303 559 q 305 467 303 467 q 358 517 307 467 q 570 626 470 625 q 688 491 688 626 q 657 315 688 450 q 626 153 626 181 q 677 86 626 86 q 703 84 703 86 q 682 65 703 77 q 533 11 586 11 q 481 85 481 11 q 514 250 481 96 q 547 445 547 404 z "},"o":{"ha":671,"x_min":56,"x_max":642,"o":"m 412 570 l 392 570 q 327 549 363 570 q 256 477 290 527 q 186 253 186 376 l 186 219 q 219 104 186 149 q 293 60 252 60 l 307 60 q 446 162 380 60 q 512 379 512 263 l 512 406 q 484 520 512 470 q 412 570 456 570 m 56 231 l 56 250 l 56 260 q 87 401 56 326 q 171 530 118 477 q 408 640 281 640 l 418 641 q 579 575 517 641 q 642 400 642 509 l 642 380 q 531 104 642 227 q 421 23 487 56 q 290 -10 355 -10 l 280 -10 l 270 -9 q 115 60 175 -9 q 56 231 56 130 z "},"p":{"ha":737,"x_min":-12,"x_max":696,"o":"m 247 173 l 247 149 q 269 94 247 114 q 331 74 290 74 l 351 74 q 421 96 378 74 q 497 168 463 119 q 570 391 570 275 l 570 404 q 543 514 570 473 q 475 555 515 555 l 458 555 q 386 524 425 555 q 320 444 346 493 q 247 173 247 306 m 231 -267 q 96 -319 231 -319 q 6 -306 24 -319 q -12 -281 -12 -292 q 15 -215 -12 -270 q 71 -45 42 -161 q 156 438 156 297 q 133 509 156 484 q 109 553 109 534 q 152 596 109 572 q 234 620 195 620 q 284 607 274 620 q 300 582 295 595 q 313 568 306 568 q 347 582 319 568 q 507 624 431 624 l 523 624 q 648 568 600 624 q 696 425 696 512 l 696 407 q 659 247 696 332 q 565 110 622 163 q 451 37 507 57 q 298 17 394 17 q 208 -29 234 17 q 182 -162 182 -75 q 207 -224 182 -189 q 231 -267 231 -260 z "},"q":{"ha":711,"x_min":57,"x_max":689,"o":"m 519 490 l 519 502 q 433 570 519 570 l 427 570 q 265 475 341 570 q 205 359 227 427 q 184 254 184 291 l 184 215 q 208 127 184 163 q 267 91 232 91 l 279 91 q 366 129 319 91 q 498 355 458 203 q 519 490 519 433 m 689 583 q 667 498 689 555 q 641 422 646 441 q 581 125 635 402 q 527 -182 527 -153 q 547 -241 527 -212 q 566 -283 566 -271 q 544 -308 566 -296 q 459 -320 522 -320 l 443 -319 l 427 -319 q 328 -267 328 -319 q 356 -206 328 -258 q 398 -115 384 -155 q 443 77 443 12 q 436 90 443 90 q 410 80 429 90 q 336 46 391 71 q 215 21 281 21 q 103 73 149 21 q 57 210 57 125 l 57 227 q 88 373 57 298 q 288 595 151 524 q 413 630 355 630 l 445 630 q 498 620 464 630 q 571 610 533 610 l 638 623 q 689 583 689 623 z "},"r":{"ha":572,"x_min":93,"x_max":578,"o":"m 318 358 q 299 313 318 358 q 279 165 279 269 q 256 29 279 61 q 176 -3 232 -3 l 163 -3 q 107 19 122 -3 q 93 87 93 42 q 133 224 93 94 q 173 414 173 355 q 149 486 173 472 q 109 536 109 509 q 149 592 109 564 q 227 621 189 621 l 237 621 q 309 547 309 621 l 307 521 q 306 489 306 504 q 314 475 306 475 q 361 517 323 475 q 519 613 447 613 q 563 596 547 613 q 578 555 578 580 q 554 510 578 530 q 494 490 530 490 l 430 499 q 385 473 413 499 q 318 358 356 446 z "},"s":{"ha":542,"x_min":30,"x_max":524,"o":"m 73 18 q 30 79 30 39 q 43 144 30 118 q 77 170 56 170 q 124 134 98 170 q 177 78 150 98 q 251 58 205 58 q 324 85 298 58 q 351 147 351 111 q 325 209 351 182 q 240 274 298 235 q 150 352 181 313 q 119 459 119 391 q 188 581 119 528 q 342 633 256 633 l 357 633 q 479 610 434 633 q 524 547 524 588 q 506 489 524 507 q 469 472 488 472 q 406 529 460 472 q 329 562 374 562 q 261 538 283 562 q 238 483 238 513 q 259 430 238 452 q 346 363 281 407 q 442 282 410 320 q 473 182 473 243 q 401 43 473 98 q 231 -12 328 -12 l 215 -12 q 73 18 131 -12 z "},"t":{"ha":476,"x_min":109,"x_max":461,"o":"m 395 637 q 461 591 461 615 q 403 556 461 567 q 317 489 345 546 q 266 327 290 431 q 243 176 243 222 q 290 109 243 109 q 334 117 308 109 q 379 125 360 125 q 404 101 404 125 q 332 33 404 71 q 211 -6 260 -6 l 199 -6 q 133 29 157 -6 q 109 118 109 64 q 135 303 109 173 q 161 517 161 434 q 137 554 161 537 q 113 582 113 572 q 182 638 113 591 q 244 744 200 650 q 319 810 275 810 q 357 766 357 810 l 352 692 q 395 637 352 652 z "},"u":{"ha":770,"x_min":90,"x_max":680,"o":"m 248 611 q 303 528 303 611 q 276 352 303 481 q 250 176 250 223 q 309 90 250 90 q 359 111 328 90 q 540 490 501 201 q 556 568 548 549 q 612 604 571 604 q 654 572 637 604 q 671 508 671 541 q 653 378 671 475 q 635 252 635 282 q 657 169 635 221 q 680 105 680 117 q 656 37 680 68 q 583 5 631 5 q 511 44 535 5 q 494 157 494 70 q 488 170 494 170 q 463 146 483 170 q 222 0 336 0 q 108 133 108 0 q 139 310 108 170 q 170 489 170 450 q 127 533 170 528 q 90 545 90 538 q 116 564 90 551 q 248 611 210 611 z "},"v":{"ha":704,"x_min":64,"x_max":704,"o":"m 631 629 q 704 562 704 629 q 671 465 704 523 q 508 184 524 205 q 390 56 447 102 q 296 9 334 9 l 283 9 q 233 68 247 9 q 217 275 229 88 q 173 457 211 367 q 127 507 154 501 q 64 537 64 522 q 133 593 64 562 q 247 625 201 625 q 308 579 292 625 q 323 429 323 533 l 326 351 q 358 149 326 149 q 393 177 363 149 q 551 503 551 325 l 538 574 q 566 609 538 589 q 631 629 594 629 z "},"w":{"ha":1033,"x_min":92,"x_max":1010,"o":"m 1010 551 l 1010 534 q 974 428 1010 509 q 802 106 884 231 q 735 37 774 64 q 668 9 697 9 q 617 50 640 9 q 566 198 595 90 q 532 307 536 307 q 485 239 529 307 q 408 133 440 170 q 288 37 323 37 q 220 104 242 37 q 203 223 218 112 q 176 377 188 334 q 128 463 164 420 q 92 540 92 505 q 138 605 92 575 q 210 620 161 620 q 282 588 258 620 q 307 432 307 556 q 318 240 307 307 q 357 172 328 172 q 380 189 366 172 q 491 456 463 279 q 514 557 505 543 q 610 608 547 608 q 656 578 639 608 q 673 490 673 548 l 671 468 q 669 422 669 441 q 701 199 669 258 q 717 182 710 182 q 829 321 760 182 q 872 475 872 408 q 902 575 872 543 q 971 608 932 608 q 1010 551 1010 608 z "},"x":{"ha":703,"x_min":25,"x_max":688,"o":"m 522 437 q 441 297 441 349 q 507 142 441 245 q 567 96 537 96 l 582 96 q 615 97 596 97 q 633 85 633 97 q 600 50 633 68 q 473 2 511 2 q 415 33 435 2 q 372 129 408 43 q 326 215 336 215 q 243 126 311 215 q 202 67 225 103 q 164 16 179 32 q 115 1 149 1 q 53 16 81 1 q 25 60 25 31 q 77 102 25 90 q 166 150 130 115 q 288 330 288 266 q 262 405 288 342 q 222 488 237 469 q 152 524 195 524 q 109 539 109 524 q 142 573 109 555 q 266 619 227 619 q 323 587 304 619 q 360 496 332 572 q 401 421 388 421 q 484 504 422 421 q 519 562 497 522 q 545 606 541 602 q 601 625 562 625 q 664 603 640 625 q 688 562 688 582 q 616 515 688 546 q 522 437 575 497 z "},"y":{"ha":687,"x_min":3,"x_max":689,"o":"m 556 604 q 567 612 556 604 q 618 621 578 621 q 673 605 657 621 q 689 564 689 588 q 637 436 689 539 q 373 -53 450 61 q 184 -271 295 -167 q 86 -315 138 -315 l 68 -315 q 23 -301 43 -315 q 3 -265 3 -288 q 20 -230 3 -242 q 82 -209 36 -218 q 153 -185 129 -199 q 216 -128 178 -172 q 277 31 277 -59 l 245 163 q 216 309 237 200 q 181 461 195 418 q 114 525 166 505 q 87 541 87 536 q 110 557 87 547 q 233 601 197 601 q 304 507 269 601 q 348 319 319 464 q 387 175 376 175 q 482 290 424 175 q 541 476 541 404 l 533 565 q 556 604 533 586 z "},"z":{"ha":643,"x_min":40,"x_max":623,"o":"m 134 453 q 112 478 112 453 q 153 602 112 558 q 245 629 178 629 l 263 629 q 378 617 304 629 q 477 606 451 606 q 541 614 503 606 q 588 623 578 623 q 623 592 623 623 q 426 360 623 562 q 229 115 229 158 q 414 97 229 97 q 490 110 465 97 q 533 137 515 122 q 559 152 551 152 q 579 120 579 152 q 543 9 579 50 q 449 -21 516 -21 l 432 -21 q 297 -2 395 -21 q 165 18 199 18 q 103 12 132 18 q 60 5 75 5 q 40 24 40 5 q 89 121 40 62 q 288 333 138 180 q 437 501 437 486 q 340 516 437 516 l 268 518 q 195 496 224 518 q 134 453 141 453 z "},"{":{"ha":487,"x_min":85,"x_max":534,"o":"m 319 -241 q 144 -75 144 -241 q 169 75 144 -24 q 195 231 195 175 q 176 312 195 288 q 121 353 157 337 q 85 389 85 369 q 153 440 85 406 q 224 517 203 465 q 254 720 245 569 q 295 923 262 870 q 372 1000 328 976 q 496 1024 416 1024 l 513 1024 q 534 1011 534 1024 l 534 1000 q 479 957 534 977 q 404 906 424 937 q 372 722 372 858 q 292 448 372 526 q 252 417 277 434 q 227 394 227 400 q 253 369 227 388 q 295 318 279 349 q 311 234 311 288 q 287 77 311 180 q 262 -72 262 -26 q 275 -137 262 -119 q 327 -176 289 -156 q 366 -222 366 -197 q 336 -241 366 -241 l 319 -241 z "},"|":{"ha":374,"x_min":123,"x_max":304,"o":"m 256 1021 l 269 1021 q 304 985 304 1021 q 300 927 304 966 q 292 836 296 889 l 288 782 l 288 768 l 286 755 l 282 701 q 248 248 280 683 q 211 -223 216 -187 q 170 -259 205 -259 l 157 -259 q 123 -224 123 -259 q 134 -72 123 -220 l 136 -45 l 138 -31 l 146 79 l 147 92 l 148 106 l 150 134 q 154 181 152 157 q 160 257 156 204 l 168 368 l 170 381 l 170 395 l 172 422 q 215 989 213 975 q 256 1021 220 1021 z "},"}":{"ha":494,"x_min":1,"x_max":450,"o":"m 392 862 q 367 706 392 814 q 341 546 341 598 q 358 470 341 494 q 413 431 375 445 q 450 399 450 416 q 393 347 450 375 q 313 266 336 319 q 281 60 290 214 q 229 -158 272 -93 q 41 -241 176 -241 l 25 -241 q 1 -219 1 -241 q 56 -175 1 -197 q 128 -126 111 -153 q 163 62 163 -73 q 193 260 163 197 q 275 363 222 324 q 307 390 307 385 q 279 419 307 394 q 238 475 251 444 q 224 559 224 507 q 250 710 224 612 q 275 854 275 808 q 260 922 275 901 q 207 959 245 943 q 169 1000 169 975 q 212 1025 169 1025 q 350 981 307 1025 q 392 862 392 937 z "},"~":{"ha":733,"x_min":99,"x_max":700,"o":"m 275 557 l 297 557 q 422 512 338 557 q 551 468 507 468 q 628 507 595 468 q 675 545 661 545 q 700 522 700 545 q 641 425 700 473 q 523 376 581 376 l 502 376 q 380 420 461 376 q 257 464 300 464 q 170 425 215 464 q 118 385 125 385 q 99 408 99 385 q 160 507 99 456 q 275 557 220 557 z "},"":{"ha":352,"x_min":0,"x_max":0,"o":""},"":{"ha":374,"x_min":36,"x_max":353,"o":"m 184 630 l 184 646 q 210 704 184 674 q 272 734 235 734 l 280 734 q 331 712 309 734 q 353 663 353 690 l 353 649 q 351 635 351 641 q 326 589 351 614 q 279 564 300 564 l 271 562 l 249 562 q 208 582 232 562 q 184 630 184 602 m 36 -208 l 36 -193 q 50 -122 36 -175 l 92 43 q 138 227 100 74 q 189 414 176 380 q 237 459 203 459 l 244 459 q 263 437 263 459 l 263 422 q 256 366 263 407 q 248 301 250 326 l 236 210 l 235 201 l 234 193 q 186 -147 198 -96 q 152 -221 174 -199 q 94 -243 130 -243 l 78 -243 q 36 -208 36 -243 z "},"":{"ha":602,"x_min":82,"x_max":587,"o":"m 264 125 q 285 178 278 125 l 304 278 l 305 283 l 309 304 l 316 336 l 320 353 q 330 401 321 358 q 347 465 339 444 q 358 500 355 486 l 372 551 l 376 566 l 380 581 l 380 585 q 378 589 380 589 l 374 589 q 326 561 366 589 q 255 486 286 534 q 199 290 199 399 l 199 284 q 238 147 199 199 q 260 125 255 125 l 264 125 m 587 571 l 587 558 q 572 517 587 536 q 541 498 557 498 q 495 527 524 498 q 455 555 467 555 q 426 523 437 555 q 377 324 415 491 q 339 146 339 157 q 378 117 339 117 q 428 135 385 117 q 486 152 470 152 q 503 141 503 152 q 419 64 503 111 q 322 1 335 18 q 248 -95 252 -95 q 232 -60 232 -95 l 233 -47 l 235 -22 q 187 44 235 12 q 111 126 140 77 q 82 234 82 176 l 82 265 q 251 588 82 453 q 320 632 273 606 q 372 664 367 659 q 403 723 380 673 q 445 773 426 773 q 473 722 473 773 q 530 647 473 697 q 587 571 587 596 z "},"":{"ha":771,"x_min":28,"x_max":752,"o":"m 613 935 q 752 831 752 935 q 734 777 752 798 q 697 756 717 756 q 660 769 677 756 l 646 782 q 620 808 624 804 q 540 830 589 830 q 422 758 473 830 q 379 670 397 724 q 360 556 360 616 q 386 472 360 496 q 449 453 389 469 q 509 418 509 437 q 443 378 509 399 q 350 330 376 357 q 302 220 336 315 q 269 114 269 125 q 307 69 269 79 q 418 63 332 63 q 542 83 504 63 q 603 134 579 102 q 643 166 627 166 q 673 118 673 166 q 632 -4 673 45 q 506 -53 591 -53 l 459 -53 q 337 -37 436 -53 q 209 -20 238 -20 q 133 -34 179 -20 q 68 -47 87 -47 q 28 -7 28 -47 q 91 65 28 16 q 166 136 154 114 q 204 299 204 208 q 169 358 204 343 q 108 402 108 385 q 147 441 108 420 q 196 477 186 462 q 220 568 206 492 q 332 825 252 740 q 451 906 380 876 q 589 935 521 935 l 613 935 z "},"":{"ha":723,"x_min":69,"x_max":690,"o":"m 535 462 q 497 557 535 516 q 418 599 460 599 l 408 600 l 393 600 q 276 543 328 600 q 224 420 224 486 l 224 399 q 262 308 224 350 q 351 267 300 267 l 371 267 q 482 323 430 267 q 534 441 534 380 l 535 452 l 535 462 m 690 663 q 650 619 690 653 q 610 569 610 585 q 617 518 610 552 q 623 449 623 484 q 612 387 623 414 q 588 329 602 359 q 574 284 574 298 q 599 241 574 270 q 625 196 625 213 q 607 165 625 179 q 576 152 589 152 l 566 152 q 528 185 558 152 q 476 218 497 218 q 432 204 470 218 q 354 190 394 190 q 267 204 313 190 q 211 218 220 218 q 165 185 201 218 q 117 152 129 152 q 69 193 69 152 q 110 245 69 206 q 150 313 150 284 q 143 345 150 315 q 136 416 136 375 q 159 509 136 457 q 182 578 182 562 q 157 625 182 595 q 132 669 132 656 q 148 698 132 683 q 182 713 163 713 q 231 680 201 713 q 270 647 261 647 q 327 662 278 647 q 413 677 376 677 q 490 662 450 677 q 545 647 530 647 q 596 680 560 647 q 643 713 632 713 q 690 673 690 713 l 690 663 z "},"":{"ha":871,"x_min":151,"x_max":918,"o":"m 630 419 q 581 364 581 380 q 611 326 581 349 q 642 288 642 302 q 593 248 642 269 q 491 106 491 204 q 518 61 491 92 q 546 28 546 29 q 513 1 546 7 q 397 -1 505 -1 l 311 -1 l 281 -2 q 223 18 223 -2 q 242 48 223 32 l 262 62 q 302 92 294 83 q 326 172 326 121 q 256 250 326 207 q 229 273 229 266 q 275 320 229 288 q 321 376 321 353 q 294 414 321 398 q 268 449 268 429 q 292 499 268 469 q 317 550 317 529 q 250 779 317 645 q 192 846 233 813 q 151 882 151 879 q 267 907 151 907 q 384 882 384 907 q 375 861 384 879 q 367 833 367 844 q 473 590 367 823 q 512 547 493 547 q 599 644 523 547 q 746 865 746 833 l 736 893 q 805 910 736 910 q 848 911 827 910 l 892 912 q 918 898 918 912 l 918 888 q 862 840 918 880 q 762 743 806 801 q 652 534 652 601 l 660 474 q 630 419 660 443 z "},"":{"ha":360,"x_min":97,"x_max":286,"o":"m 193 952 q 241 1003 193 1003 l 265 1003 q 286 979 286 1003 l 286 968 l 286 962 l 284 939 l 282 921 q 277 868 277 878 l 275 844 q 273 809 273 820 l 271 785 q 266 732 266 745 l 264 709 q 262 691 262 696 l 260 667 q 256 614 256 631 l 251 555 q 240 503 251 513 q 202 493 229 493 l 184 493 q 158 522 158 493 l 158 527 l 159 533 l 160 556 q 162 585 162 574 l 164 603 q 166 626 166 621 l 168 644 l 170 679 q 173 714 173 703 l 176 744 q 178 768 178 762 l 180 791 l 182 821 q 189 894 186 865 q 192 935 191 922 q 193 952 193 947 m 127 118 q 131 183 131 155 q 142 224 131 212 q 186 237 153 237 l 192 237 q 224 213 224 237 l 224 196 l 222 160 q 216 105 217 121 q 213 69 215 89 q 211 37 212 50 q 209 12 210 24 q 208 -5 208 0 l 204 -41 q 200 -88 200 -75 l 198 -112 l 197 -124 l 195 -161 q 191 -223 191 -193 q 180 -264 191 -252 q 137 -276 169 -276 l 125 -276 q 97 -254 97 -276 l 97 -237 l 98 -231 l 100 -184 l 102 -167 q 104 -144 104 -149 l 107 -114 l 109 -91 q 110 -73 110 -79 l 112 -56 q 116 -7 116 -21 l 118 16 l 119 40 l 125 100 l 127 118 z "},"":{"ha":694,"x_min":103,"x_max":626,"o":"m 509 376 q 448 512 509 436 q 338 587 386 587 l 330 587 q 273 548 300 587 q 245 477 245 509 l 244 468 l 244 454 q 285 365 244 406 q 387 284 326 324 q 451 243 448 243 l 458 243 q 491 268 471 243 q 511 347 511 293 l 511 361 q 509 376 509 371 m 477 949 q 614 873 614 949 q 594 808 614 831 q 572 799 586 799 q 516 845 559 799 q 444 873 490 873 q 375 843 398 873 q 352 770 352 812 q 381 694 352 728 q 483 608 410 661 q 591 508 556 555 q 626 389 626 460 q 576 252 626 317 q 526 132 526 186 q 510 4 526 52 q 368 -144 475 -100 q 251 -165 315 -165 q 103 -68 103 -165 q 125 -4 103 -27 q 149 4 132 4 q 203 -38 165 4 q 290 -80 241 -80 q 367 -53 338 -80 q 396 24 396 -26 q 351 121 396 73 q 274 182 345 127 q 174 283 203 238 q 144 395 144 328 q 197 536 144 461 q 249 621 249 610 l 239 669 q 235 727 235 693 q 303 883 235 817 q 477 949 371 949 z "},"":{"ha":583,"x_min":156,"x_max":557,"o":"m 156 834 l 156 850 q 180 903 156 880 q 227 927 203 927 l 245 927 q 259 926 251 926 q 285 907 267 926 q 303 865 303 889 l 303 850 q 281 800 303 827 q 230 774 259 774 l 216 774 l 201 777 q 174 794 192 777 q 156 834 156 812 m 557 853 l 555 836 q 533 798 555 820 q 494 776 511 776 l 479 774 l 472 774 q 430 792 448 774 q 412 825 412 810 l 410 834 l 410 846 q 433 904 410 881 q 482 928 456 928 l 497 928 q 514 926 503 926 q 540 906 524 926 q 555 875 555 887 l 557 861 l 557 853 z "},"":{"ha":1072,"x_min":107,"x_max":1034,"o":"m 175 442 l 175 416 q 280 155 175 264 q 399 76 330 104 q 542 47 469 47 l 555 47 q 709 80 635 47 q 930 303 861 147 q 966 462 966 385 l 966 500 q 937 629 966 560 q 759 822 883 761 q 612 857 686 857 l 574 857 q 428 823 505 857 q 295 728 352 789 q 206 588 237 666 q 175 442 175 510 m 308 406 l 308 446 q 333 558 308 500 q 399 656 358 616 q 600 736 482 736 l 614 736 q 744 718 709 736 q 779 633 779 700 q 745 589 779 589 q 695 633 741 589 q 583 676 650 676 q 466 608 515 676 q 418 444 418 540 q 460 294 418 349 q 580 239 503 239 q 676 273 628 239 q 739 307 724 307 q 753 286 753 307 q 704 204 753 238 q 561 170 654 170 l 547 170 q 382 233 449 170 q 327 316 345 269 q 308 406 308 363 m 1034 495 l 1034 480 q 995 288 1034 382 q 886 125 956 193 q 729 21 817 58 q 553 -16 642 -16 l 523 -16 q 358 20 437 -16 q 132 264 188 100 q 107 409 107 336 l 107 424 q 146 615 107 524 q 404 881 224 798 q 588 922 492 922 l 603 922 q 908 798 782 922 q 998 662 962 746 q 1034 495 1034 578 z "},"":{"ha":584,"x_min":113,"x_max":536,"o":"m 412 813 l 412 828 q 372 869 412 869 l 355 869 q 344 867 349 867 q 250 803 295 867 q 204 684 204 738 l 203 677 l 203 649 q 217 598 203 614 q 246 581 232 581 l 257 581 q 360 656 308 581 q 412 813 412 730 m 349 926 l 372 926 q 389 923 376 926 l 404 920 q 432 918 414 918 q 465 920 450 918 l 486 922 q 511 873 511 922 q 490 749 511 851 q 470 636 470 648 q 490 607 470 607 l 500 608 l 512 608 q 536 591 536 608 l 536 585 q 507 544 536 567 q 439 520 477 520 l 432 520 q 380 554 399 520 q 359 589 362 589 q 301 556 351 589 q 193 524 252 524 q 136 551 159 524 q 113 617 113 579 l 113 635 q 138 734 113 675 q 210 847 163 793 q 349 926 277 926 z "},"":{"ha":652,"x_min":68,"x_max":612,"o":"m 361 588 q 384 570 384 588 q 291 446 384 553 q 197 333 197 339 q 248 224 197 326 q 299 109 299 123 q 270 79 299 79 q 162 201 255 79 q 68 326 68 323 l 68 332 q 192 451 68 351 l 361 588 m 513 522 q 544 551 513 522 q 593 579 574 579 q 612 561 612 579 l 612 556 q 525 441 612 547 q 439 330 439 334 q 484 230 439 325 q 528 117 528 136 q 500 90 528 90 q 424 173 483 90 q 360 255 408 196 q 313 326 313 315 l 313 332 q 430 448 313 352 q 513 522 451 465 z "},"":{"ha":777,"x_min":90,"x_max":708,"o":"m 655 182 l 647 182 q 606 224 606 182 l 608 250 l 610 268 q 612 310 612 294 q 574 382 612 368 q 325 387 561 387 q 90 410 90 387 q 117 464 90 459 q 404 467 137 467 l 656 468 l 665 468 q 708 406 708 468 l 708 398 q 683 204 708 309 q 655 182 677 182 z "},"":{"ha":496,"x_min":77,"x_max":439,"o":"m 420 396 q 439 373 439 396 l 439 369 l 439 365 q 398 304 439 304 l 381 302 l 372 302 l 359 301 l 351 301 l 342 300 l 319 300 l 311 300 l 302 300 l 279 298 l 271 298 l 262 298 l 253 298 l 239 297 l 226 297 l 221 296 l 212 296 l 199 296 l 190 296 l 181 295 l 168 295 l 155 294 l 133 294 l 119 294 l 94 294 q 77 313 77 294 l 77 321 q 78 334 78 330 q 112 387 78 387 l 117 387 l 121 388 l 374 396 l 420 396 z "},"":{"ha":944,"x_min":117,"x_max":913,"o":"m 454 620 q 475 609 454 609 l 499 609 l 502 610 l 517 610 l 534 613 q 578 636 555 613 q 602 686 602 660 q 603 701 603 692 l 603 715 q 602 724 602 721 q 579 763 602 745 q 538 782 557 782 l 536 783 l 532 783 l 506 785 l 500 785 q 465 768 465 785 q 463 760 463 762 l 460 734 q 460 728 460 731 l 460 726 q 460 720 460 723 l 459 714 q 459 709 459 711 l 458 706 q 458 701 458 703 l 458 694 q 458 689 458 692 l 457 684 q 457 675 457 680 l 456 661 l 456 655 l 455 652 q 455 647 455 650 l 454 630 l 454 620 m 482 245 l 515 245 q 517 245 516 245 q 637 274 575 245 q 821 463 769 335 q 852 599 852 537 l 852 621 q 826 741 852 678 q 755 846 800 803 q 536 933 665 933 l 526 933 q 395 905 458 933 q 286 828 332 876 q 209 714 239 780 q 178 578 178 648 l 178 545 q 206 426 179 483 q 367 269 260 315 q 482 245 424 245 m 429 363 l 407 363 l 395 364 l 374 364 l 351 363 l 340 363 q 315 382 315 363 q 337 402 315 389 q 364 443 359 416 q 382 734 382 538 q 370 778 382 767 q 345 808 345 801 q 456 827 345 827 l 490 827 l 536 827 q 641 796 600 827 q 682 717 682 765 q 625 602 682 648 q 597 570 597 578 q 631 492 597 551 q 683 420 666 433 q 719 386 719 392 q 665 363 719 363 l 653 363 q 606 382 621 363 q 558 467 590 400 q 519 544 527 534 q 477 566 503 566 q 446 472 446 566 q 451 428 446 437 q 468 404 456 419 q 479 384 479 389 q 429 363 479 363 m 886 757 q 913 610 913 685 q 882 454 913 534 q 792 314 851 373 q 656 221 733 255 q 498 187 580 187 l 486 187 q 226 291 335 187 q 117 553 117 395 l 117 566 l 117 579 q 155 739 117 655 q 254 878 193 822 q 544 990 376 990 q 692 960 624 990 q 886 757 830 901 z "},"":{"ha":566,"x_min":151,"x_max":559,"o":"m 197 874 l 347 874 l 352 873 l 366 873 q 559 857 559 873 l 559 853 q 522 798 559 798 l 175 798 q 151 813 151 798 l 151 818 q 197 874 151 874 z "},"":{"ha":469,"x_min":136,"x_max":484,"o":"m 328 898 l 307 898 q 241 864 275 898 q 208 785 208 831 l 208 774 q 233 708 208 738 q 293 678 259 678 l 310 678 q 376 708 341 678 q 410 774 410 737 l 412 785 l 412 806 q 411 816 411 812 q 383 873 411 848 q 328 898 355 898 m 321 963 l 332 963 q 440 916 397 963 q 484 799 484 869 q 430 671 484 729 q 299 613 377 613 l 294 613 l 288 614 q 181 658 225 614 q 136 768 136 703 l 136 774 l 137 779 q 190 905 137 848 q 321 963 243 963 z "},"":{"ha":741,"x_min":68,"x_max":691,"o":"m 631 154 q 661 135 661 154 l 661 128 q 622 70 661 76 q 344 68 614 68 l 231 68 l 204 68 l 105 68 q 68 88 68 68 l 68 94 q 80 142 68 131 q 166 154 92 154 l 359 154 l 366 153 l 471 154 l 631 154 m 464 532 q 579 531 467 531 q 691 508 691 531 q 663 449 691 460 q 553 446 653 446 q 446 439 454 446 q 422 305 422 419 q 414 232 422 252 q 368 212 405 212 l 357 212 q 333 269 333 212 l 344 412 q 335 440 344 435 q 228 444 326 444 q 121 447 130 444 q 101 473 101 453 q 126 525 101 513 q 241 530 138 530 q 353 542 344 530 q 367 644 361 554 q 376 747 372 734 q 416 770 382 770 l 427 770 q 460 733 460 770 l 446 566 q 464 532 446 535 z "},"":{"ha":496,"x_min":106,"x_max":479,"o":"m 323 962 l 349 962 q 441 930 404 962 q 479 847 479 898 l 479 835 q 429 723 479 785 q 322 622 408 696 q 235 543 235 548 q 278 532 235 532 l 302 533 q 348 534 315 534 q 412 550 381 534 q 446 567 444 567 q 459 535 459 567 q 429 470 459 503 q 388 454 414 454 l 338 454 q 262 457 286 457 l 198 457 q 161 456 174 456 l 137 454 q 106 475 106 454 q 201 588 106 509 q 337 721 296 667 q 378 826 378 775 q 360 876 378 854 q 305 897 342 897 q 234 852 269 897 q 184 808 199 808 q 169 831 169 808 q 201 912 169 882 q 323 962 255 962 z "},"":{"ha":486,"x_min":101,"x_max":457,"o":"m 457 880 q 380 757 457 818 q 353 731 353 735 q 377 713 351 727 q 443 600 442 674 q 377 475 443 526 q 224 422 311 423 l 212 422 q 133 443 164 422 q 101 490 101 464 q 138 519 101 519 q 174 501 146 519 q 241 482 203 482 q 313 515 280 482 q 347 603 347 549 q 264 685 347 663 q 230 709 230 694 q 271 745 230 723 q 355 843 355 788 q 303 898 355 898 q 238 873 275 898 q 189 848 201 848 q 171 881 171 848 q 211 939 171 913 q 319 965 251 965 l 332 965 q 421 944 385 965 q 457 891 457 922 l 457 880 z "},"":{"ha":463,"x_min":191,"x_max":454,"o":"m 228 728 l 218 728 q 191 746 191 728 q 318 932 191 787 q 387 974 354 974 l 398 974 q 454 947 454 974 l 454 937 q 347 823 454 918 q 228 728 241 728 z "},"":{"ha":782,"x_min":35,"x_max":701,"o":"m 35 -202 q 96 137 35 -178 q 157 462 157 451 q 150 502 157 473 q 142 556 142 532 q 170 599 142 580 q 232 618 197 618 q 284 606 267 618 q 301 559 301 594 q 270 389 301 524 q 239 205 239 255 q 260 127 239 155 q 318 99 281 99 q 399 130 355 99 q 473 210 443 161 q 535 390 503 258 q 570 532 566 522 q 626 582 593 582 q 649 557 634 582 q 663 498 663 532 q 650 399 663 464 q 637 272 637 334 q 663 183 637 210 q 701 102 701 142 q 673 32 701 62 q 605 3 645 3 q 544 19 564 3 q 508 71 523 35 q 475 108 492 108 q 422 74 463 108 q 353 30 382 41 q 259 18 324 18 q 173 -15 193 18 q 144 -127 159 -38 q 129 -219 130 -216 q 60 -281 102 -281 q 35 -202 35 -281 z "},"":{"ha":774,"x_min":182,"x_max":783,"o":"m 540 694 q 490 577 490 694 q 408 98 490 390 q 371 11 389 32 q 325 -11 353 -11 q 290 26 297 -11 q 282 172 282 64 l 282 332 q 279 536 282 531 l 264 551 q 182 746 182 628 l 182 769 q 215 870 182 820 q 511 1013 310 1013 l 593 1013 q 783 979 783 1013 q 765 954 783 975 q 742 926 747 934 q 704 833 715 891 q 664 546 692 774 q 613 163 635 318 q 591 6 591 8 l 593 -14 q 597 -52 597 -47 q 559 -103 597 -103 q 515 -86 530 -103 q 500 -53 500 -68 q 512 35 500 -37 q 524 275 524 106 q 527 496 524 444 q 546 607 530 548 q 562 667 562 665 q 540 694 562 694 z "},"":{"ha":313,"x_min":92,"x_max":264,"o":"m 264 423 q 262 410 264 423 q 236 362 262 389 q 179 336 209 336 l 163 336 q 116 358 138 336 q 94 399 94 380 l 92 416 l 92 418 l 92 421 q 118 482 92 452 q 177 512 143 512 l 191 512 q 244 487 223 512 q 264 437 264 463 l 264 426 l 264 423 z "},"":{"ha":1492,"x_min":87,"x_max":326,"o":"m 254 -19 q 250 -53 250 -45 q 288 -89 250 -60 q 326 -152 326 -117 l 326 -173 q 274 -263 326 -223 q 165 -302 222 -302 l 138 -302 q 87 -279 87 -302 l 87 -274 q 138 -242 87 -242 q 192 -226 172 -242 q 212 -192 212 -210 q 190 -149 212 -174 q 168 -96 168 -124 q 197 -24 168 -67 q 238 -3 211 -3 l 246 -3 q 254 -19 254 -3 z "},"":{"ha":425,"x_min":125,"x_max":375,"o":"m 303 458 l 178 458 q 125 475 125 458 l 125 481 q 174 517 125 488 q 210 569 198 532 q 249 833 249 692 q 218 872 249 867 q 176 895 176 879 q 197 914 176 904 q 348 964 296 964 l 361 964 q 375 947 375 964 l 375 939 q 361 886 375 930 q 326 714 347 842 q 306 562 306 587 q 332 515 306 538 q 359 481 359 492 q 303 458 359 458 z "},"":{"ha":536,"x_min":110,"x_max":526,"o":"m 427 770 q 404 850 427 817 q 350 884 380 884 l 337 884 q 250 827 292 884 q 209 708 209 770 l 208 699 l 208 672 q 209 659 209 663 q 232 591 209 624 q 290 557 256 557 l 298 557 q 384 613 344 557 q 425 720 425 669 q 426 734 426 730 l 427 752 l 427 770 m 342 935 l 363 935 q 480 886 435 935 q 526 770 526 837 l 526 755 l 526 749 q 455 580 526 656 q 379 526 424 546 q 288 506 334 506 l 274 506 q 155 557 199 506 q 110 672 110 609 l 110 692 q 130 782 110 734 q 187 867 150 829 q 342 935 256 935 z "},"":{"ha":656,"x_min":54,"x_max":597,"o":"m 54 112 q 140 229 54 130 q 227 340 227 328 q 181 441 227 351 q 136 550 136 532 q 164 579 136 579 q 266 463 179 579 q 353 335 353 347 q 217 206 353 323 q 77 89 81 89 q 54 107 54 89 l 54 112 m 467 341 q 417 446 467 351 q 367 565 367 541 q 394 588 367 588 q 504 466 410 588 q 597 337 597 344 q 455 202 597 325 q 304 79 314 79 q 281 98 281 79 l 281 103 q 374 224 281 125 q 467 341 467 323 z "},"":{"ha":1075,"x_min":144,"x_max":996,"o":"m 843 252 q 863 379 863 354 l 867 399 q 869 411 869 408 l 871 423 q 869 426 871 426 q 833 392 863 426 q 783 336 804 357 q 678 219 678 232 q 749 216 678 216 l 823 216 q 843 252 843 216 m 273 800 q 243 836 273 829 q 197 855 197 846 q 219 878 197 868 q 371 926 319 926 q 391 899 391 926 q 386 866 391 888 q 376 828 380 844 l 371 812 q 346 657 365 782 q 326 507 326 532 q 343 463 326 481 q 364 448 347 458 q 382 427 382 438 q 243 401 382 401 l 227 401 l 200 401 q 144 416 144 401 l 144 422 q 181 450 144 430 q 228 503 217 470 q 273 800 273 637 m 861 904 q 925 950 895 950 q 954 932 954 950 q 309 47 954 898 q 244 1 273 1 q 214 18 214 1 q 861 904 214 42 m 817 0 l 808 0 q 778 28 778 0 q 794 71 778 47 q 811 105 811 96 q 788 147 811 136 q 714 151 779 151 q 600 187 600 151 q 762 377 600 208 q 947 547 924 547 l 954 547 q 970 511 970 547 q 956 413 970 496 q 942 287 942 330 q 962 232 942 243 q 996 195 996 214 l 996 191 q 977 171 996 185 q 955 152 959 157 q 924 100 924 106 l 930 68 q 817 0 930 0 z "},"":{"ha":1139,"x_min":152,"x_max":1063,"o":"m 331 394 l 203 394 q 152 413 152 394 q 200 451 152 420 q 239 502 228 469 q 280 780 280 632 q 250 822 280 815 q 208 847 208 832 q 235 870 208 858 q 382 916 338 916 q 404 892 404 916 q 391 833 404 888 q 357 649 377 779 q 337 496 337 520 q 348 461 337 473 q 377 440 359 450 q 394 420 394 430 q 331 394 394 394 m 934 940 l 945 940 q 970 926 970 940 q 340 62 970 893 q 255 -15 282 -15 l 243 -15 q 218 -1 218 -15 l 218 7 q 242 47 218 14 q 871 892 657 619 q 934 940 909 940 m 964 385 q 884 467 964 467 q 810 420 846 467 q 763 373 774 373 q 748 396 748 373 q 796 492 748 451 q 917 532 844 532 l 930 532 q 1024 499 985 532 q 1063 413 1063 466 l 1063 401 q 1004 275 1063 345 q 899 181 987 257 q 811 95 811 104 q 884 89 811 89 q 1001 111 958 89 l 1017 120 q 1031 127 1029 127 q 1046 111 1046 127 q 1013 27 1046 62 q 959 12 999 12 l 907 12 l 880 13 l 854 14 l 801 14 l 736 12 l 723 12 q 684 35 684 12 q 785 151 684 64 q 925 290 886 239 q 964 384 964 341 l 964 385 z "},"":{"ha":1155,"x_min":120,"x_max":1045,"o":"m 728 220 l 728 218 q 743 216 728 216 l 876 216 q 892 249 892 216 q 902 313 902 300 l 905 330 q 912 368 909 349 q 916 395 915 387 q 918 408 918 404 l 920 417 l 920 425 l 919 426 q 860 369 910 426 q 807 308 810 311 l 749 245 q 728 220 728 223 m 190 836 q 345 929 190 929 q 452 905 408 929 q 483 852 483 888 q 412 732 483 790 q 370 692 370 697 q 402 669 370 690 q 451 622 434 648 q 469 547 469 595 q 401 423 469 477 q 246 370 333 370 l 233 370 q 156 387 191 370 q 120 430 120 404 q 159 460 120 460 q 203 445 174 460 q 252 429 233 429 q 339 465 307 429 q 372 547 372 501 q 347 614 372 592 q 287 646 322 636 q 251 670 251 655 q 290 701 251 677 q 377 820 377 753 q 330 864 377 864 q 261 838 298 864 q 204 812 225 812 q 190 836 190 812 m 968 949 q 1004 934 1004 949 q 571 336 1004 886 q 300 1 309 1 l 288 1 q 264 16 264 1 q 706 629 264 46 q 968 949 949 949 m 974 96 q 979 56 979 80 q 950 17 979 33 q 866 1 920 1 l 858 1 q 829 35 829 1 q 844 72 829 50 q 860 106 860 93 q 836 146 860 136 q 764 151 825 151 q 650 181 650 151 l 650 187 q 807 374 650 199 q 996 548 965 548 q 1020 512 1020 548 q 1015 469 1020 508 l 1006 417 l 1003 397 q 991 275 991 309 q 1011 233 991 241 q 1045 195 1045 218 q 1028 173 1045 187 q 992 134 1010 159 q 974 96 974 109 z "},"":{"ha":581,"x_min":20,"x_max":477,"o":"m 408 735 q 455 714 433 735 q 476 673 476 692 l 477 668 l 477 649 q 454 595 477 627 q 393 563 431 563 l 377 563 q 329 585 351 563 q 307 638 307 608 l 307 641 q 332 704 307 675 q 383 734 357 734 l 389 735 l 408 735 m 340 460 q 370 444 356 460 q 397 361 397 409 q 369 273 397 313 q 283 169 341 232 q 198 60 224 106 q 172 -34 172 14 q 196 -107 172 -83 q 256 -131 220 -131 q 342 -92 292 -131 q 412 -54 393 -54 q 442 -100 442 -54 q 387 -190 442 -147 q 235 -232 331 -232 q 80 -179 140 -232 q 20 -62 20 -127 l 20 -50 q 56 58 20 5 q 172 180 92 111 q 278 281 252 250 q 305 361 305 313 l 298 422 q 340 460 298 460 z "},"":{"ha":965,"x_min":-38,"x_max":878,"o":"m 432 416 l 513 416 l 519 417 l 593 420 q 603 420 598 420 q 624 437 624 420 l 624 452 l 621 477 l 618 502 q 615 528 615 522 l 606 597 q 604 608 604 606 l 593 691 q 572 779 593 779 q 538 726 568 779 q 498 658 508 673 q 481 628 489 644 q 464 599 473 613 q 410 506 455 585 q 365 427 365 427 l 365 423 q 432 416 365 416 m 454 1200 l 454 1210 q 517 1247 454 1247 l 531 1247 q 631 1162 557 1247 q 705 1055 705 1077 l 705 1048 q 686 1029 705 1029 l 683 1029 q 526 1124 649 1029 q 454 1200 454 1181 m 232 214 q 212 174 232 214 q 191 117 191 135 q 208 74 191 98 q 224 40 224 49 q 194 11 224 17 q 87 5 165 5 l 45 5 q -38 34 -38 5 q 11 79 -38 58 q 85 136 59 100 q 184 293 111 171 q 319 511 258 416 q 433 698 379 606 q 532 856 487 791 q 641 954 600 954 q 708 848 686 954 q 754 482 715 812 q 799 127 793 152 q 841 78 804 102 q 878 39 878 55 q 836 7 878 13 q 703 7 831 7 q 574 31 574 7 q 600 65 574 42 q 633 109 625 89 q 641 216 641 128 q 621 329 641 304 q 468 345 608 345 q 294 313 327 345 q 232 214 273 292 z "},"":{"ha":966,"x_min":66,"x_max":915,"o":"m 425 416 l 501 416 l 507 417 l 587 420 q 597 420 592 420 q 617 437 617 420 l 617 452 l 615 472 l 612 492 q 610 517 610 512 q 573 765 610 665 q 565 779 568 779 q 490 653 562 779 l 472 624 q 453 591 463 607 q 400 502 443 576 q 358 427 358 427 q 425 416 358 416 m 509 963 l 509 981 q 694 1168 509 998 q 785 1217 748 1217 l 790 1217 q 814 1194 796 1217 q 831 1154 831 1171 l 831 1144 q 783 1042 831 1097 q 728 1018 779 1037 q 671 999 677 999 q 670 999 671 999 q 583 968 635 999 q 526 938 530 938 l 521 939 q 509 963 509 939 m 305 299 q 284 262 305 299 q 264 207 264 224 q 278 167 264 190 q 292 140 292 144 q 228 109 292 109 l 194 109 l 176 109 l 158 109 q 66 134 66 109 q 110 178 66 156 q 168 220 154 201 q 370 563 182 239 q 566 897 558 886 q 662 989 625 989 q 720 881 692 989 q 766 654 728 849 q 822 349 804 460 q 847 219 840 238 q 885 182 854 201 q 915 151 915 164 q 878 118 915 125 q 785 116 867 116 l 731 116 q 699 117 714 117 q 643 133 643 117 q 666 176 643 149 q 689 246 689 203 q 659 396 689 363 q 515 410 646 410 q 361 388 384 410 q 305 299 347 374 z "},"":{"ha":965,"x_min":-39,"x_max":877,"o":"m 608 418 q 623 439 623 418 l 623 444 l 618 488 l 615 514 q 612 546 612 534 q 601 620 612 557 q 590 709 590 684 q 571 775 590 775 q 518 689 567 775 q 416 518 469 603 q 364 423 364 433 l 364 420 q 452 413 364 413 l 502 413 l 507 414 l 582 416 q 608 418 598 418 m 685 1251 l 690 1251 q 753 1196 718 1251 q 840 1054 840 1061 q 816 1031 840 1031 q 732 1086 792 1031 q 663 1141 673 1141 q 579 1087 663 1141 q 475 1033 495 1033 q 454 1045 454 1033 l 454 1050 q 559 1155 454 1059 q 685 1251 664 1251 m 191 105 q 207 71 191 96 q 222 37 222 47 q 195 9 222 15 q 65 3 168 3 l 44 2 q -39 31 -39 2 q 10 76 -39 55 q 82 129 58 98 q 180 285 105 160 q 304 486 256 410 q 427 686 353 562 q 550 880 502 809 q 640 951 599 951 q 679 926 661 951 q 712 824 696 901 q 752 486 713 817 q 797 126 791 154 q 840 74 804 98 q 877 37 877 50 q 836 4 877 9 l 732 4 q 574 28 574 4 q 598 62 574 39 q 631 106 623 85 q 640 214 640 126 q 621 326 640 302 q 467 342 607 342 q 294 310 326 342 q 233 213 275 292 q 191 105 191 135 z "},"":{"ha":965,"x_min":-38,"x_max":888,"o":"m 432 414 l 508 414 l 513 414 l 593 417 q 603 418 598 418 q 624 435 624 418 l 624 449 q 621 479 621 476 l 618 499 q 615 525 615 519 l 606 594 l 604 606 l 602 623 q 595 665 597 652 q 593 688 593 677 q 572 776 593 776 q 535 718 568 776 q 495 651 502 661 q 481 626 489 641 q 464 596 473 610 q 410 504 455 583 q 365 424 365 425 l 365 420 q 432 414 365 414 m 574 1204 l 595 1204 q 678 1173 627 1204 q 760 1141 728 1141 q 828 1170 791 1141 q 873 1198 865 1198 q 888 1181 888 1198 q 836 1095 888 1139 q 743 1050 784 1050 l 727 1050 q 639 1082 690 1050 q 557 1114 588 1114 q 508 1102 526 1114 q 474 1074 490 1089 q 448 1058 458 1058 q 428 1075 428 1058 l 428 1080 q 478 1158 428 1112 q 574 1204 529 1204 m 232 211 q 212 172 232 211 q 191 114 191 132 q 207 71 191 96 q 223 37 223 46 q 196 9 223 15 q 87 3 168 3 l 45 3 q -38 31 -38 3 q 11 77 -38 56 q 81 128 60 98 q 187 295 115 176 q 314 501 258 413 q 400 640 370 589 q 521 836 430 691 q 641 951 593 951 q 642 951 641 951 q 708 846 686 951 q 754 480 715 811 q 799 124 793 149 q 841 75 804 100 q 878 37 878 51 q 836 5 878 10 q 703 4 831 4 q 574 28 574 4 q 600 63 574 39 q 633 106 625 86 q 641 214 641 125 q 621 326 641 302 q 468 342 608 342 q 294 311 327 342 q 232 211 273 290 z "},"":{"ha":965,"x_min":-16,"x_max":877,"o":"m 614 435 l 614 449 q 612 469 612 463 l 607 514 q 570 762 607 662 q 562 776 566 776 q 533 730 559 776 q 431 562 507 685 q 355 424 355 438 q 412 414 355 414 l 509 414 l 515 414 l 573 416 l 594 418 q 614 435 614 418 m 524 1206 l 538 1206 q 578 1189 561 1206 q 596 1159 596 1171 l 600 1137 l 600 1135 l 596 1114 q 574 1077 596 1099 q 528 1055 551 1055 l 511 1055 q 469 1074 488 1055 q 450 1118 450 1093 l 450 1126 l 454 1147 q 476 1184 454 1162 q 524 1206 498 1206 m 787 1036 l 779 1036 l 777 1037 l 772 1037 l 770 1038 l 764 1038 q 674 1101 674 1038 l 674 1106 q 715 1168 674 1139 q 789 1197 755 1197 l 803 1197 q 842 1148 842 1197 q 845 1134 845 1137 l 845 1117 l 842 1099 l 843 1092 q 819 1056 843 1076 q 787 1036 795 1036 m 235 65 q 210 37 235 43 q 83 31 186 31 l 64 31 q -16 59 -16 31 q 32 104 -16 81 q 100 155 79 126 q 312 503 102 159 l 532 865 q 637 960 595 960 q 672 936 656 960 q 705 832 688 913 q 750 503 705 831 q 801 149 795 174 q 833 107 808 124 q 877 65 877 78 q 838 33 877 38 q 708 32 832 32 q 583 54 583 32 q 621 103 583 60 q 645 179 645 130 q 622 344 645 317 q 477 359 608 359 q 320 343 346 359 q 249 244 295 327 q 203 140 203 161 q 219 96 203 119 q 235 65 235 73 z "},"":{"ha":970,"x_min":-26,"x_max":883,"o":"m 669 1210 q 652 1208 663 1208 q 622 1183 642 1208 q 602 1137 602 1159 l 602 1121 l 603 1118 l 603 1114 q 604 1100 604 1109 q 622 1075 604 1090 q 650 1061 640 1061 l 663 1059 l 668 1059 q 684 1061 674 1061 q 715 1082 694 1061 q 737 1137 737 1104 l 737 1150 q 735 1167 735 1158 q 718 1193 735 1175 q 682 1210 701 1210 l 669 1210 m 423 416 l 543 416 l 548 416 l 595 418 q 606 419 601 419 q 638 441 638 419 l 638 450 l 635 475 l 633 495 q 631 515 631 511 q 593 760 631 658 q 584 777 587 777 l 582 777 q 557 737 579 777 q 455 568 534 698 q 375 425 375 439 q 423 416 375 416 m 541 1144 q 583 1221 541 1180 q 674 1263 624 1263 l 691 1263 q 765 1232 730 1263 q 800 1154 800 1200 l 800 1145 q 758 1049 800 1091 q 665 1006 715 1006 l 644 1006 q 570 1040 600 1006 q 540 1111 540 1074 l 540 1132 q 541 1144 541 1140 m 199 109 q 215 76 199 102 q 231 38 231 50 q 198 9 231 15 q 56 3 165 3 l 15 3 q -26 31 -26 3 q 20 73 -26 55 q 94 128 66 91 q 260 393 96 132 q 465 721 425 654 q 546 849 505 787 q 654 947 612 947 q 723 819 696 947 q 764 473 726 803 q 805 131 802 143 q 848 75 814 97 q 883 34 883 53 q 736 5 883 5 q 589 33 589 5 q 623 70 589 46 q 656 145 656 94 q 631 335 656 311 q 480 349 617 349 q 306 313 343 349 q 239 214 280 289 q 199 109 199 140 z "},"":{"ha":1275,"x_min":-15,"x_max":1265,"o":"m 488 441 l 602 441 q 657 467 647 441 q 690 635 674 511 l 713 763 q 720 804 720 799 l 720 809 q 718 814 720 814 q 610 683 701 814 q 512 551 584 644 q 440 450 440 458 l 440 446 q 488 441 440 441 m 833 637 q 860 567 833 596 q 918 538 888 538 q 971 547 948 538 l 995 558 q 1044 579 1038 579 q 1084 561 1070 579 q 1097 513 1097 543 q 1066 392 1097 425 l 1044 380 q 990 410 1037 380 q 898 441 944 441 q 790 397 821 441 q 761 307 779 380 q 744 169 744 234 q 774 87 744 103 q 871 75 795 75 q 1015 96 947 75 q 1105 149 1042 104 q 1181 193 1169 193 q 1192 176 1192 193 q 1157 63 1192 132 q 1112 16 1140 30 q 947 1 1083 1 l 834 1 l 796 2 q 563 11 606 2 q 521 53 521 20 q 547 94 521 56 q 594 188 573 132 q 616 304 616 245 q 570 358 616 345 q 472 366 545 366 q 356 325 398 366 q 262 203 314 285 q 210 100 210 121 q 223 58 210 79 q 235 23 235 37 q 110 2 235 2 q -15 27 -15 2 q 44 93 -15 57 q 142 176 104 129 q 567 738 355 439 q 616 845 594 776 q 644 920 638 913 q 793 949 677 949 l 828 949 l 863 949 l 1088 949 q 1219 935 1190 949 q 1265 852 1265 911 q 1238 793 1265 793 q 1215 807 1236 793 q 1112 844 1194 821 q 993 867 1030 867 q 893 815 933 867 q 833 637 833 736 z "},"":{"ha":922,"x_min":49,"x_max":939,"o":"m 49 351 l 49 399 q 95 605 49 495 q 414 916 190 830 q 617 952 511 952 q 879 901 777 952 q 920 854 901 890 q 939 783 939 818 q 904 712 939 712 q 849 762 895 712 q 762 829 803 811 q 601 861 692 861 q 439 823 511 861 q 233 556 292 743 q 208 392 208 472 q 283 151 208 238 q 479 64 358 64 q 658 99 569 64 q 750 163 696 115 q 818 211 804 211 q 831 193 831 211 q 799 112 831 174 q 750 36 767 49 q 651 -2 734 22 q 479 -26 568 -26 l 456 -26 q 179 68 289 -26 q 83 199 117 122 q 49 351 49 276 m 498 -139 l 498 -153 q 452 -240 498 -198 q 341 -282 405 -282 l 319 -282 q 283 -260 283 -282 q 323 -225 283 -225 q 371 -205 349 -225 q 394 -163 394 -185 q 374 -124 394 -142 q 354 -94 354 -107 q 380 -44 354 -81 q 410 -27 393 -27 l 414 -27 l 418 -28 q 437 -47 437 -28 q 468 -82 437 -55 q 498 -139 498 -110 z "},"":{"ha":839,"x_min":20,"x_max":842,"o":"m 459 1246 q 559 1161 485 1246 q 633 1057 633 1076 l 633 1044 q 614 1027 633 1027 l 611 1027 q 473 1107 564 1027 q 382 1199 382 1187 l 382 1208 q 435 1244 382 1244 l 441 1246 l 459 1246 m 372 625 q 463 538 372 538 q 517 545 498 538 q 568 571 535 552 q 612 589 600 589 q 659 527 659 589 q 639 421 659 464 q 593 378 619 378 q 542 414 580 378 q 453 450 505 450 q 371 433 401 450 q 328 394 340 416 q 286 178 286 316 q 308 98 286 116 q 414 80 330 80 q 661 146 556 80 q 739 193 736 193 q 753 168 753 193 q 696 33 753 85 q 603 3 663 3 l 487 3 l 457 3 l 397 3 l 367 3 l 336 3 q 20 26 20 3 q 67 71 20 52 q 130 139 113 90 q 199 476 134 151 q 265 831 265 802 q 237 880 265 861 q 189 920 189 911 q 235 949 189 944 q 408 950 248 950 l 553 951 l 584 952 l 732 953 l 762 954 q 826 932 810 954 q 842 858 842 911 q 821 781 842 804 l 812 775 q 774 802 800 775 q 535 875 705 875 q 432 825 469 875 q 394 726 417 806 q 372 625 372 646 z "},"":{"ha":839,"x_min":20,"x_max":842,"o":"m 526 1027 l 516 1027 q 499 1044 499 1027 l 499 1048 q 640 1206 499 1083 q 712 1245 684 1245 l 723 1245 q 781 1213 781 1245 l 781 1206 q 709 1133 781 1183 q 526 1027 557 1027 m 372 625 q 463 538 372 538 q 517 545 499 538 q 568 571 535 553 q 611 589 601 589 q 659 526 659 589 q 639 420 659 463 q 592 378 618 378 q 542 414 581 378 q 452 450 503 450 q 370 433 401 450 q 328 394 339 416 q 286 178 286 317 q 307 98 286 115 q 412 80 328 80 q 661 146 553 80 q 739 192 735 192 q 753 168 753 192 q 695 33 753 85 q 574 2 661 2 l 545 3 l 307 3 q 20 25 20 3 q 66 71 20 52 q 129 139 113 90 q 199 474 132 150 q 265 829 265 798 q 237 880 265 861 q 189 920 189 911 q 234 949 189 943 q 408 950 245 950 l 703 952 l 762 953 q 827 931 811 953 q 842 857 842 910 q 821 781 842 804 l 811 775 q 774 802 800 775 q 534 875 705 875 q 431 825 469 875 q 394 726 417 806 q 372 625 372 646 z "},"":{"ha":839,"x_min":20,"x_max":842,"o":"m 605 1250 l 610 1250 q 675 1191 635 1250 q 760 1050 760 1069 q 736 1031 760 1031 l 731 1031 q 653 1086 712 1031 q 585 1140 593 1140 q 538 1113 578 1140 q 398 1032 422 1032 q 374 1049 374 1032 q 479 1154 374 1057 q 605 1250 584 1250 m 372 623 q 463 536 372 536 q 517 543 498 536 q 568 569 535 550 q 612 587 600 587 q 659 525 659 587 q 639 419 659 462 q 593 376 619 376 q 542 412 580 376 q 453 448 505 448 q 371 431 401 448 q 328 392 340 414 q 286 176 286 314 q 308 96 286 114 q 414 78 330 78 q 661 144 556 78 q 739 191 736 191 q 753 165 753 191 q 696 31 753 83 q 603 1 663 1 l 487 1 l 457 1 l 397 1 l 367 1 l 336 1 q 20 24 20 1 q 67 69 20 50 q 130 137 113 88 q 199 474 134 149 q 265 829 265 800 q 237 878 265 859 q 189 918 189 909 q 235 947 189 942 q 408 948 248 948 l 703 951 l 762 951 q 826 930 810 951 q 842 856 842 909 q 821 779 842 802 l 812 773 q 774 800 802 773 q 535 873 704 872 q 432 823 469 873 q 394 724 417 804 q 372 623 372 644 z "},"":{"ha":839,"x_min":20,"x_max":842,"o":"m 376 1131 q 400 1182 376 1158 q 449 1206 424 1206 l 464 1206 q 505 1187 486 1206 q 524 1145 524 1168 l 524 1131 q 522 1112 522 1122 q 499 1078 522 1101 q 450 1055 476 1055 l 436 1055 q 396 1073 414 1055 q 378 1104 378 1090 l 376 1116 l 376 1131 m 779 1131 q 755 1079 779 1103 q 705 1055 731 1055 l 691 1055 q 676 1057 685 1057 q 648 1075 667 1057 q 630 1116 630 1093 l 630 1131 q 632 1150 632 1139 q 654 1183 632 1161 q 694 1205 676 1205 l 709 1207 l 718 1207 q 734 1205 726 1205 q 760 1187 743 1205 q 778 1153 778 1170 l 779 1148 l 779 1131 m 372 625 q 463 536 372 536 q 518 544 500 536 q 569 570 536 551 q 612 589 602 589 q 659 526 659 589 q 639 419 659 463 q 593 376 619 376 q 542 413 580 376 q 457 449 505 449 q 340 412 376 449 q 304 320 323 394 q 286 180 286 245 q 307 97 286 115 q 416 79 328 79 q 682 157 562 79 q 739 191 733 191 q 753 166 753 191 q 696 31 753 83 q 603 1 663 1 l 487 1 l 457 2 l 397 1 l 367 1 l 336 2 q 20 24 20 2 q 67 70 20 50 q 130 138 113 89 q 200 477 134 150 q 266 831 266 804 q 237 878 266 859 q 189 919 189 910 q 235 948 189 943 q 408 949 246 949 l 703 951 l 762 952 q 826 931 810 952 q 842 856 842 910 q 821 780 842 802 l 812 774 q 775 801 802 774 q 535 874 702 874 q 432 824 471 874 q 394 725 417 804 q 372 625 372 645 z "},"":{"ha":481,"x_min":13,"x_max":533,"o":"m 187 1202 l 187 1208 q 248 1246 187 1246 l 264 1246 q 325 1210 294 1246 q 439 1050 439 1079 l 439 1047 q 420 1027 439 1027 l 416 1027 q 260 1123 382 1027 q 187 1202 187 1179 m 49 1 q 13 20 13 1 q 64 61 13 40 q 128 114 115 81 q 203 466 135 131 q 272 834 272 802 q 240 884 272 867 q 188 925 188 911 q 380 949 188 949 l 484 951 q 533 932 533 951 q 481 891 533 912 q 416 829 430 870 q 344 483 412 817 q 276 117 276 149 q 305 68 276 84 q 357 29 357 41 q 212 3 357 3 l 155 3 l 79 1 l 49 1 z "},"":{"ha":482,"x_min":12,"x_max":591,"o":"m 309 1041 l 309 1050 q 329 1080 309 1057 q 461 1217 426 1190 q 524 1245 497 1245 l 532 1245 q 591 1213 591 1245 l 591 1209 q 515 1131 591 1181 q 335 1027 359 1027 l 325 1027 q 309 1041 309 1027 m 215 518 q 243 672 215 518 q 272 846 272 827 q 239 884 272 866 q 187 925 187 911 q 379 949 187 949 l 484 951 q 532 933 532 951 q 481 890 532 911 q 416 829 429 870 q 333 434 390 749 q 275 115 275 119 q 304 68 275 84 q 357 29 357 41 q 330 4 357 8 q 168 3 321 3 l 63 1 l 48 1 q 12 21 12 1 q 65 62 12 41 q 132 127 119 82 q 215 518 157 210 z "},"":{"ha":482,"x_min":15,"x_max":575,"o":"m 552 1032 l 543 1032 q 468 1086 527 1032 q 401 1141 408 1141 q 353 1112 393 1141 q 208 1033 238 1033 l 207 1033 q 191 1046 191 1033 l 191 1050 l 292 1152 q 421 1251 391 1251 l 426 1251 q 486 1200 457 1251 q 514 1153 505 1166 q 528 1131 524 1140 q 554 1093 533 1122 q 575 1054 575 1063 q 552 1032 575 1032 m 247 667 q 261 732 247 667 q 275 832 275 798 q 242 882 275 865 q 190 923 190 908 q 367 948 190 948 l 486 950 q 535 930 535 950 q 484 889 535 909 q 418 827 432 869 q 346 482 414 815 q 278 116 278 149 q 307 67 278 83 q 359 28 359 39 q 333 3 359 7 q 171 1 324 1 l 157 1 l 127 1 l 66 -1 l 51 -1 q 15 19 15 -1 q 68 60 15 39 q 135 125 121 82 q 182 345 141 144 l 203 450 l 206 465 q 216 515 212 495 q 247 667 220 535 z "},"":{"ha":480,"x_min":12,"x_max":592,"o":"m 277 1206 q 321 1186 302 1206 q 340 1141 340 1167 l 340 1132 q 318 1081 340 1103 q 278 1058 295 1058 l 267 1056 l 253 1056 l 239 1059 q 212 1075 229 1059 q 195 1110 195 1092 l 194 1120 l 194 1129 q 215 1178 194 1153 q 258 1204 237 1204 q 265 1205 263 1205 l 274 1206 l 277 1206 m 592 1135 q 568 1080 592 1104 q 519 1056 544 1056 l 507 1056 q 464 1075 484 1056 q 445 1120 445 1095 l 445 1129 q 468 1181 445 1158 q 507 1204 490 1204 l 518 1206 l 532 1206 q 572 1188 554 1206 q 590 1154 590 1170 l 592 1140 l 592 1135 m 204 470 q 239 641 204 470 q 274 839 274 812 q 241 882 274 865 q 187 923 187 907 q 378 947 187 947 l 483 949 l 498 949 q 530 929 530 949 q 480 890 530 908 q 416 840 430 872 q 341 483 411 827 q 271 110 271 140 q 300 66 271 81 q 354 27 354 41 q 328 2 354 6 q 166 1 319 1 l 61 -1 l 46 -1 q 12 19 12 -1 q 63 58 12 39 q 128 112 115 77 q 204 470 134 127 z "},"":{"ha":985,"x_min":33,"x_max":971,"o":"m 303 274 q 290 207 303 274 q 277 110 277 140 q 297 74 277 79 q 394 68 317 68 q 550 102 471 68 q 693 205 630 135 q 789 369 755 275 q 822 550 822 464 l 822 578 q 746 798 822 712 q 657 859 712 836 q 542 882 603 882 l 528 882 q 427 855 443 882 q 387 707 412 828 q 362 547 362 585 q 462 520 362 520 q 562 488 562 520 q 542 451 562 460 q 436 442 522 442 q 336 417 349 442 q 303 274 330 407 m 91 2 q 33 24 33 2 q 78 70 33 45 q 138 134 123 95 q 161 257 153 173 q 177 380 169 342 q 186 420 186 418 q 145 447 186 443 q 104 480 104 452 q 156 527 104 516 q 221 565 207 538 q 255 816 255 629 q 230 865 255 850 q 187 909 187 890 q 486 952 187 952 l 543 952 q 711 928 629 952 q 937 738 878 879 q 971 576 971 657 l 971 557 q 921 326 971 435 q 581 28 817 101 q 341 -1 484 -1 l 322 -1 l 304 -1 l 265 -1 l 91 2 z "},"":{"ha":1054,"x_min":20,"x_max":1114,"o":"m 590 1204 l 612 1204 q 694 1172 644 1204 q 777 1141 745 1141 q 833 1160 810 1141 q 884 1198 878 1198 q 903 1181 903 1198 l 903 1175 q 852 1094 903 1137 q 760 1050 800 1050 l 744 1050 q 656 1082 713 1050 q 569 1114 600 1114 q 503 1085 539 1114 q 464 1057 466 1057 q 444 1074 444 1057 l 444 1080 q 496 1159 444 1115 q 590 1204 549 1204 m 188 926 q 281 947 188 947 q 372 923 324 947 q 454 849 419 899 q 633 524 488 800 q 795 248 778 248 l 806 258 q 855 501 814 276 q 897 769 897 726 q 878 851 897 813 q 859 903 859 889 q 926 947 859 947 l 955 947 l 985 947 q 1114 930 1114 947 q 1063 882 1114 907 q 997 809 1012 858 q 906 379 981 760 q 827 -2 831 -2 q 684 132 768 -2 q 513 450 662 167 q 346 734 365 734 q 328 696 338 734 q 274 430 317 659 q 231 162 231 201 q 259 80 231 123 q 288 31 288 37 q 177 -1 288 -1 q 43 7 66 -1 q 20 36 20 15 q 79 79 20 44 q 131 150 113 98 q 205 484 150 201 q 260 801 260 766 q 240 859 260 836 q 188 926 188 917 z "},"":{"ha":997,"x_min":86,"x_max":993,"o":"m 848 565 l 848 600 q 783 811 848 730 q 612 893 718 893 l 600 893 q 465 854 532 893 q 343 740 398 814 q 259 571 288 666 q 230 382 230 475 l 231 371 q 292 154 231 241 q 367 88 323 111 q 455 65 411 65 l 479 65 q 734 218 621 65 q 815 378 783 283 q 848 565 848 473 m 454 1200 l 454 1211 q 521 1248 454 1248 l 528 1248 q 667 1118 580 1248 q 705 1055 705 1059 l 705 1048 q 689 1029 705 1029 l 680 1029 q 526 1125 669 1029 q 454 1200 454 1173 m 615 966 l 646 966 q 648 966 647 966 q 776 939 711 966 q 968 730 913 880 q 993 582 993 663 l 993 552 q 947 342 993 453 q 666 38 859 131 q 465 -9 568 -9 l 449 -9 q 313 15 381 -9 q 121 201 182 63 q 86 360 86 277 l 86 406 q 132 615 86 506 q 255 805 177 725 q 428 926 333 886 q 615 966 522 966 z "},"":{"ha":997,"x_min":82,"x_max":989,"o":"m 620 893 l 596 893 q 594 893 596 893 q 467 857 532 893 q 258 578 327 780 q 227 395 227 487 l 227 383 l 227 371 q 227 366 227 368 q 247 239 227 295 q 464 65 307 65 l 475 65 q 727 213 616 65 q 811 378 779 282 q 844 566 844 473 l 844 600 q 783 806 844 719 q 713 869 756 844 q 620 893 671 893 m 572 1042 l 572 1053 q 658 1151 572 1055 q 785 1246 743 1246 l 800 1246 q 854 1214 854 1246 l 854 1211 l 854 1207 q 779 1132 854 1190 q 599 1028 645 1028 l 592 1028 q 572 1042 572 1028 m 611 966 l 642 966 q 773 939 705 966 q 965 730 909 883 q 989 583 989 663 l 989 568 q 947 354 989 461 q 830 163 905 246 q 656 35 755 79 q 460 -9 557 -9 l 446 -9 q 180 103 285 -9 q 109 224 135 151 q 82 376 82 296 l 83 391 l 83 406 q 129 618 83 509 q 249 803 176 727 q 417 923 323 880 q 611 966 511 966 z "},"":{"ha":997,"x_min":86,"x_max":993,"o":"m 848 562 l 848 597 q 783 809 848 727 q 612 890 718 890 q 345 739 456 890 q 259 568 289 663 q 230 380 230 472 l 231 368 q 297 144 231 227 q 467 62 364 62 l 479 62 q 610 99 545 62 q 730 210 675 136 q 816 378 785 283 q 848 562 848 473 m 679 1251 q 726 1227 709 1251 q 833 1055 833 1084 l 833 1050 q 810 1032 833 1032 l 806 1032 q 727 1086 781 1032 q 657 1141 673 1141 q 572 1087 656 1141 q 468 1033 488 1033 q 448 1046 448 1033 l 448 1050 q 554 1155 448 1058 q 679 1251 659 1251 m 615 964 l 630 964 q 886 862 784 964 q 965 736 937 811 q 993 579 993 661 l 993 549 q 948 342 993 450 q 679 41 864 138 q 479 -12 577 -12 l 433 -12 q 296 19 363 -12 q 115 212 164 80 q 86 357 86 290 l 86 403 q 133 615 86 503 q 255 803 179 727 q 615 964 416 964 z "},"":{"ha":997,"x_min":85,"x_max":993,"o":"m 623 890 l 600 890 q 465 851 532 890 q 261 575 329 771 q 230 392 230 484 l 230 368 q 294 150 230 237 q 455 62 357 62 l 479 62 q 611 100 547 62 q 729 209 676 138 q 815 375 782 279 q 848 563 848 471 l 848 597 q 787 803 848 720 q 712 868 755 846 q 623 890 669 890 m 730 1055 l 720 1055 q 632 1087 683 1055 q 548 1119 581 1119 q 479 1091 516 1119 q 440 1063 443 1063 q 420 1080 420 1063 l 420 1085 q 488 1178 420 1124 q 576 1210 529 1210 l 582 1209 q 671 1178 615 1209 q 757 1146 727 1146 q 819 1175 787 1146 q 860 1204 850 1204 q 880 1186 880 1204 l 880 1181 q 828 1099 880 1143 q 730 1055 777 1055 m 614 964 l 646 964 l 648 964 q 783 933 718 964 q 968 727 919 870 q 993 580 993 656 l 993 564 q 952 354 993 466 q 836 161 911 242 q 664 34 760 81 q 464 -12 568 -12 l 449 -12 q 311 13 379 -12 q 193 91 243 39 q 85 373 85 201 l 85 388 q 125 596 85 488 q 237 785 165 705 q 406 914 310 865 q 614 964 503 964 z "},"":{"ha":997,"x_min":85,"x_max":992,"o":"m 477 64 q 733 216 621 64 q 814 377 781 281 q 847 575 847 473 l 847 587 q 847 592 847 589 q 829 715 847 657 q 610 892 773 892 l 599 892 q 457 848 526 892 q 260 576 325 766 q 229 393 229 486 l 229 370 q 293 150 229 237 q 454 64 357 64 l 477 64 m 520 1206 l 535 1206 q 577 1187 557 1206 q 596 1138 596 1168 l 595 1135 l 595 1131 l 593 1116 q 571 1077 593 1100 q 522 1055 548 1055 l 508 1055 q 467 1072 485 1055 q 450 1104 450 1090 q 448 1111 448 1108 l 447 1123 l 448 1125 l 448 1130 l 450 1147 q 473 1184 450 1162 q 520 1206 495 1206 m 851 1144 l 851 1132 q 827 1079 851 1103 q 779 1055 803 1055 l 764 1055 q 722 1074 741 1055 q 703 1111 703 1093 l 702 1120 l 702 1130 q 726 1183 702 1159 q 777 1207 750 1207 l 789 1207 q 832 1188 812 1207 q 851 1144 851 1168 m 614 965 l 644 965 q 647 965 646 965 q 777 936 709 965 q 962 742 912 878 q 992 581 992 663 l 992 566 q 953 360 992 467 q 840 169 913 252 q 666 37 767 85 q 463 -11 565 -11 l 448 -11 q 310 15 378 -11 q 109 227 168 68 q 85 374 85 293 l 85 389 q 125 602 85 497 q 399 912 208 814 q 614 965 502 965 z "},"":{"ha":720,"x_min":111,"x_max":640,"o":"m 488 532 q 595 621 585 621 q 623 604 606 621 q 640 571 640 586 q 543 470 640 556 q 446 368 446 383 q 526 267 446 353 q 606 168 606 181 q 588 138 606 154 q 559 121 570 121 q 459 211 539 121 q 366 300 378 300 q 266 210 363 300 q 156 119 168 119 q 128 135 145 119 q 111 166 111 152 q 207 268 111 181 q 304 369 304 354 q 225 470 304 383 q 147 571 147 557 q 164 600 147 584 q 197 616 181 616 q 293 527 213 616 q 387 437 373 437 l 488 532 z "},"":{"ha":999,"x_min":94,"x_max":984,"o":"m 230 395 l 230 366 q 263 211 230 267 q 283 194 273 194 q 490 431 315 194 q 743 799 743 773 l 743 806 q 707 862 743 837 q 625 887 671 887 l 597 887 q 468 852 534 887 q 260 574 328 776 q 230 395 230 482 m 840 603 l 840 640 q 826 729 840 704 q 802 755 812 755 q 669 583 796 755 q 439 278 543 411 q 336 134 336 144 q 360 86 336 107 q 422 65 385 65 l 448 65 q 714 230 592 65 q 804 410 768 303 q 840 603 840 517 m 943 918 q 935 846 935 868 q 959 732 935 824 q 984 587 984 641 l 984 551 q 935 334 984 451 q 798 133 886 217 q 618 19 709 50 q 413 -12 527 -12 q 351 -5 383 -12 q 278 1 319 1 q 213 -11 237 1 q 173 -22 188 -22 q 135 16 135 -22 q 144 61 135 32 q 153 110 153 90 q 142 161 153 130 l 130 191 q 94 361 94 279 l 94 396 q 141 613 94 503 q 267 804 188 723 q 644 963 422 963 q 743 954 683 963 q 823 945 804 945 q 865 955 842 945 q 897 965 888 965 l 906 965 q 943 918 943 965 z "},"":{"ha":1004,"x_min":157,"x_max":1069,"o":"m 696 1053 l 696 1047 q 676 1027 696 1027 l 673 1027 q 507 1130 625 1027 q 444 1205 444 1185 q 507 1246 444 1246 l 522 1246 q 608 1175 553 1246 q 696 1053 696 1063 m 157 264 q 181 475 157 319 q 221 713 205 631 q 238 822 238 795 q 201 874 238 849 q 164 923 164 899 q 429 948 164 948 q 480 933 480 948 q 440 886 480 918 q 387 809 399 854 q 333 544 374 764 q 291 272 291 324 q 345 130 291 181 q 488 78 398 78 q 742 247 663 78 q 812 514 766 298 q 859 806 859 729 q 827 875 859 835 q 795 921 795 916 q 877 951 795 951 q 1031 944 993 951 q 1069 913 1069 938 q 1025 873 1069 895 q 972 832 981 852 q 902 527 963 812 q 797 170 840 241 q 656 39 743 79 q 470 -2 569 -2 l 441 -2 q 310 24 373 -2 q 157 264 157 86 z "},"":{"ha":1004,"x_min":157,"x_max":1069,"o":"m 615 1026 l 608 1026 q 588 1044 588 1026 l 588 1047 q 598 1069 588 1059 q 614 1086 609 1080 q 622 1094 620 1092 l 654 1127 q 663 1136 660 1133 q 676 1150 665 1139 q 705 1182 687 1161 q 734 1211 723 1202 q 808 1245 779 1245 q 870 1215 870 1245 l 870 1205 q 791 1128 870 1189 q 615 1026 661 1026 m 157 266 q 181 478 157 321 q 222 715 205 635 q 238 822 238 795 q 201 874 238 849 q 164 923 164 899 q 429 948 164 948 q 480 932 480 948 q 440 886 480 917 q 388 813 399 855 q 334 548 376 771 q 291 272 291 325 q 344 130 291 182 q 488 78 397 78 q 730 222 652 78 q 813 520 768 294 q 859 806 859 745 q 827 875 859 836 q 795 921 795 915 q 877 950 795 950 l 903 950 q 1033 944 997 950 q 1069 913 1069 938 q 1025 873 1069 895 q 972 831 981 852 q 915 590 963 811 q 854 317 867 368 q 778 141 825 207 q 650 36 732 75 q 470 -2 569 -2 l 441 -2 q 310 24 373 -2 q 157 266 157 86 z "},"":{"ha":1004,"x_min":157,"x_max":1069,"o":"m 694 1251 l 699 1251 q 759 1200 726 1251 q 848 1054 848 1061 l 848 1050 q 825 1031 848 1031 l 821 1031 q 741 1086 801 1031 q 672 1141 682 1141 q 588 1087 671 1141 q 484 1033 504 1033 q 463 1045 463 1033 l 463 1050 l 565 1152 q 694 1251 664 1251 m 157 263 q 181 473 157 317 q 221 712 205 629 q 238 821 238 794 q 201 872 238 848 q 164 922 164 897 q 405 947 164 947 q 480 931 480 947 q 440 885 480 916 q 388 812 399 854 q 334 547 376 770 q 291 271 291 323 q 344 128 291 180 q 488 76 397 76 q 742 245 665 76 q 812 513 766 298 q 859 805 859 728 q 827 874 859 834 q 795 920 795 913 q 877 949 795 949 l 903 949 q 1031 943 994 949 q 1069 912 1069 937 q 1025 871 1069 892 q 971 830 980 850 q 902 526 963 811 q 792 160 840 241 q 656 38 744 79 q 470 -3 569 -3 l 441 -3 q 224 79 304 -3 q 157 263 157 147 z "},"":{"ha":1004,"x_min":156,"x_max":1068,"o":"m 549 1207 q 591 1189 573 1207 q 610 1154 610 1171 l 612 1141 l 612 1133 l 611 1131 l 611 1126 q 610 1119 610 1122 q 588 1079 610 1101 q 547 1057 566 1057 l 533 1055 l 528 1055 q 482 1074 501 1055 q 463 1121 463 1093 l 463 1123 q 486 1181 463 1158 q 525 1204 509 1204 q 532 1206 529 1206 l 541 1207 l 549 1207 m 785 1055 q 739 1074 758 1055 q 719 1117 719 1094 l 719 1131 q 743 1183 719 1160 q 790 1207 766 1207 l 810 1207 q 849 1188 830 1207 q 868 1148 868 1169 l 868 1129 q 845 1080 868 1103 q 806 1057 822 1057 q 799 1056 802 1056 l 787 1055 l 785 1055 m 211 667 q 237 821 237 794 q 200 872 237 847 q 163 921 163 897 q 324 945 163 945 l 351 946 q 424 947 368 947 q 479 930 479 947 q 438 884 479 917 q 385 806 397 852 q 331 542 373 761 q 289 271 289 323 q 342 129 289 182 q 479 76 395 76 q 728 221 650 76 q 812 516 766 292 q 857 805 857 741 q 826 873 857 832 q 794 920 794 914 q 875 949 794 949 l 901 949 q 1030 943 991 949 q 1068 911 1068 937 q 1024 872 1068 893 q 970 830 979 850 q 900 524 961 810 q 791 159 838 239 q 656 38 743 80 q 468 -3 569 -3 l 439 -3 q 238 64 320 -3 q 156 243 156 132 l 156 271 q 189 532 156 334 l 211 667 z "},"":{"ha":893,"x_min":147,"x_max":954,"o":"m 555 1025 l 548 1025 q 528 1043 528 1025 l 528 1046 q 543 1073 528 1058 q 562 1093 557 1088 q 574 1105 567 1099 l 594 1126 q 602 1135 597 1129 q 620 1154 608 1141 q 648 1184 632 1166 q 673 1210 665 1203 q 748 1244 718 1244 q 810 1211 810 1244 l 810 1208 q 734 1129 810 1189 q 555 1025 600 1025 m 797 928 q 954 902 954 928 q 902 868 954 890 q 813 800 850 846 q 562 441 665 620 q 515 297 538 397 q 492 120 492 196 q 532 67 492 92 q 571 22 571 43 q 511 2 571 2 l 488 2 l 464 3 l 283 2 q 227 24 227 2 q 275 68 227 41 q 339 140 322 96 q 382 403 382 254 q 343 570 382 438 q 262 787 304 701 q 193 862 238 837 q 147 901 147 886 q 220 916 147 916 q 322 920 292 916 q 358 923 352 923 q 393 899 393 923 q 385 881 393 895 q 377 846 377 866 q 480 608 377 825 q 516 551 507 551 q 621 663 537 551 q 758 872 758 845 l 748 907 q 797 928 748 928 z "},"":{"ha":795,"x_min":22,"x_max":800,"o":"m 311 311 l 311 299 q 368 276 311 276 l 386 276 q 574 351 499 276 q 627 431 605 382 q 649 538 649 481 l 649 559 q 604 663 649 618 q 494 708 559 708 l 475 708 q 382 668 399 708 q 346 499 381 667 q 311 311 311 331 m 56 5 q 22 22 22 5 q 74 67 22 46 q 142 129 127 89 q 225 498 158 168 q 292 842 292 828 q 250 891 292 874 q 208 935 208 907 q 359 955 208 955 l 429 956 l 446 957 q 519 930 519 957 q 477 885 519 916 q 435 817 435 854 q 460 783 435 794 q 569 765 469 780 q 713 717 669 749 q 800 536 800 652 q 680 299 800 393 q 402 218 578 218 l 385 219 q 341 220 366 220 q 304 205 316 220 q 275 112 275 169 q 314 72 275 90 q 353 35 353 53 q 268 5 353 5 l 233 7 l 197 7 l 90 5 l 56 5 z "},"":{"ha":779,"x_min":-78,"x_max":731,"o":"m 346 899 q 532 981 437 981 q 679 929 627 981 q 731 811 731 878 q 652 660 731 744 q 574 528 574 576 q 646 383 574 479 q 718 216 718 287 q 645 55 718 119 q 485 -9 573 -9 q 356 17 396 -9 q 316 79 316 42 q 371 129 316 129 q 414 104 375 129 q 490 79 452 79 q 559 111 528 79 q 591 204 591 144 q 523 355 591 265 q 454 508 454 445 q 525 658 454 570 q 595 809 595 745 q 570 857 595 836 q 504 879 545 879 q 421 831 464 879 q 347 700 378 783 q 262 327 315 616 q 165 -49 210 38 q 75 -169 121 -136 q -25 -201 28 -201 q -78 -154 -78 -201 q -34 -120 -78 -134 q 23 -93 9 -106 q 73 3 52 -63 q 143 389 121 159 q 211 707 164 619 q 346 899 284 844 z "},"":{"ha":710,"x_min":45,"x_max":656,"o":"m 248 93 l 260 93 q 337 129 288 93 q 411 209 386 164 q 464 338 436 254 q 492 475 492 422 l 494 487 l 494 505 q 422 567 494 567 l 404 567 q 323 539 366 567 q 251 467 281 511 q 175 231 175 356 l 175 218 q 195 127 175 161 q 248 93 216 93 m 477 733 l 471 733 q 364 835 444 733 q 285 946 285 937 l 286 949 q 345 985 286 985 l 355 985 q 412 950 393 985 q 502 755 502 789 l 501 753 l 501 749 q 477 733 501 733 m 400 631 l 425 631 q 478 624 439 631 q 554 616 517 616 l 576 619 q 606 621 589 621 q 639 578 639 621 q 601 392 639 557 q 562 177 563 227 q 602 129 562 129 q 628 131 626 131 q 656 111 656 131 l 656 103 q 609 46 656 73 q 519 18 563 18 q 458 39 475 18 q 432 97 441 59 q 419 135 422 135 q 368 96 415 135 q 279 36 321 58 q 191 14 237 14 l 178 14 q 80 65 115 14 q 45 193 45 117 q 74 350 45 269 q 278 593 130 510 q 400 631 346 631 z "},"":{"ha":710,"x_min":42,"x_max":656,"o":"m 490 502 l 490 513 q 468 555 490 541 q 412 570 446 570 l 406 570 l 400 569 q 319 541 361 569 q 247 469 277 513 q 171 227 171 358 l 171 220 q 192 128 171 161 q 249 95 214 95 q 333 131 284 95 q 468 363 425 199 q 490 502 490 448 m 656 948 l 656 941 q 550 827 656 922 q 425 733 444 733 l 421 734 l 418 734 q 394 750 394 734 q 518 933 394 791 q 585 978 557 978 l 600 978 q 656 948 656 978 m 397 633 l 421 633 q 471 626 427 633 q 550 618 515 618 l 572 621 q 602 624 593 624 q 635 570 635 624 q 596 391 635 557 q 558 178 558 225 q 590 131 558 131 q 624 134 620 134 q 652 113 652 134 l 652 106 q 603 47 652 73 q 513 20 555 20 q 455 40 472 20 q 429 98 439 59 q 414 137 418 137 q 361 97 410 137 q 271 36 311 56 q 186 16 230 16 q 81 63 119 16 q 42 187 42 110 l 42 215 q 73 360 42 279 q 157 501 104 441 q 275 597 210 560 q 397 633 341 633 z "},"":{"ha":710,"x_min":47,"x_max":657,"o":"m 495 494 l 495 511 q 474 553 495 538 q 418 568 453 568 l 411 568 q 331 543 375 568 q 256 472 288 518 q 176 237 176 357 l 176 212 q 197 126 176 160 q 255 93 217 93 q 341 131 292 93 q 421 224 390 170 q 473 362 452 279 q 495 494 495 444 m 494 990 l 499 990 q 538 966 522 990 q 570 900 545 958 q 613 805 595 842 q 632 762 632 768 q 605 739 632 739 q 531 805 578 739 q 474 872 483 872 q 431 841 465 872 q 389 804 397 810 q 290 741 309 741 q 271 754 271 741 q 316 817 271 766 q 387 897 362 867 q 494 990 460 990 m 401 631 l 427 631 q 476 624 434 631 q 555 616 518 616 l 576 619 q 608 622 597 622 q 640 568 640 622 q 601 386 640 552 q 563 184 563 220 q 595 129 563 129 q 629 132 625 132 q 657 111 657 132 l 657 104 q 609 45 657 72 q 518 18 562 18 q 460 38 475 18 q 434 96 444 57 q 420 135 424 135 q 364 93 417 135 q 274 33 311 52 q 191 14 237 14 q 85 61 124 14 q 47 185 47 108 l 47 199 q 77 353 47 274 q 268 587 138 513 q 401 631 345 631 z "},"":{"ha":710,"x_min":47,"x_max":680,"o":"m 495 496 l 495 513 q 473 555 495 541 q 417 570 451 570 l 411 570 l 405 569 q 325 541 369 569 q 248 464 280 513 q 178 259 178 355 l 176 246 l 176 214 q 196 129 176 162 q 249 96 216 96 l 260 96 q 339 132 290 96 q 473 363 430 198 q 495 496 495 446 m 380 916 l 401 916 q 478 885 431 916 q 558 854 526 854 q 620 882 590 854 q 665 909 650 909 q 680 895 680 909 l 680 884 q 629 807 680 850 q 543 764 578 764 l 522 764 q 438 796 490 764 q 356 827 385 827 q 294 800 327 827 q 256 772 260 772 q 235 787 235 772 l 235 792 q 285 870 235 825 q 380 916 335 916 m 640 571 q 601 389 640 555 q 563 186 563 222 q 595 131 563 131 q 629 134 625 134 q 657 114 657 134 l 657 106 q 609 47 657 74 q 518 20 562 20 q 458 42 475 20 q 434 100 441 63 q 421 137 426 137 q 366 97 417 137 q 296 47 314 56 q 181 16 237 16 q 86 63 125 16 q 47 187 47 111 l 47 215 q 82 369 47 285 q 170 510 117 453 q 287 600 222 566 q 414 634 351 634 q 478 626 434 634 q 555 618 522 618 l 608 624 q 640 571 640 624 z "},"":{"ha":710,"x_min":45,"x_max":665,"o":"m 175 217 q 195 132 175 166 q 254 98 216 98 l 259 99 q 338 134 290 99 q 472 367 429 201 q 494 496 494 452 q 480 552 494 540 q 416 573 455 573 q 258 483 330 573 q 200 370 222 438 q 177 269 177 301 l 176 262 l 176 256 l 175 237 l 175 217 m 267 851 q 268 863 267 851 q 291 905 268 882 q 338 928 313 928 l 353 928 q 369 926 361 926 q 394 908 376 926 q 412 868 412 890 l 412 848 q 390 800 412 823 q 351 777 367 777 l 340 775 l 323 775 q 311 777 319 777 q 284 795 302 777 q 266 837 266 813 l 266 849 l 267 851 m 591 775 l 577 775 q 561 777 569 777 q 535 795 553 777 q 517 840 517 814 l 517 850 l 517 852 l 517 857 q 519 864 519 862 q 541 905 519 883 q 580 926 562 926 l 594 928 l 602 928 q 647 907 630 928 q 665 859 665 885 l 664 857 l 664 852 l 661 835 q 639 798 661 820 q 591 775 616 775 m 638 574 q 622 489 638 562 l 597 381 q 562 189 562 201 q 594 134 562 134 l 610 136 l 628 136 q 656 117 656 136 l 656 109 q 609 51 656 79 q 518 24 563 24 q 458 43 474 24 q 433 101 443 62 q 418 140 422 140 q 365 101 413 140 q 277 40 317 61 q 180 19 237 19 q 84 66 123 19 q 45 191 45 113 l 45 204 q 75 358 45 279 q 267 593 136 516 q 400 637 342 637 l 425 637 q 475 629 433 637 q 554 622 517 622 l 606 627 q 638 574 638 627 z "},"":{"ha":710,"x_min":45,"x_max":656,"o":"m 475 944 q 430 924 455 944 q 404 874 404 903 l 404 852 q 422 811 404 829 q 458 793 439 793 l 472 793 q 515 815 494 793 q 536 857 536 836 l 538 865 l 538 870 l 539 878 q 522 925 539 907 q 491 942 505 942 l 477 944 l 475 944 m 175 243 l 175 218 q 195 133 175 167 q 254 99 216 99 l 259 99 q 336 134 288 99 q 472 368 428 201 q 494 496 494 452 q 475 557 494 541 q 422 573 456 573 l 404 573 q 331 549 373 572 q 197 363 243 500 q 175 243 175 296 m 338 848 l 338 861 q 381 958 338 915 q 471 1000 424 1000 l 497 1000 q 573 964 541 1000 q 605 884 605 928 l 605 880 l 604 876 q 564 782 604 827 q 467 736 524 736 l 450 736 q 372 770 405 736 q 338 848 338 803 m 638 574 q 600 392 638 563 q 562 190 562 222 q 570 147 562 158 q 610 136 578 136 l 628 137 q 656 117 656 137 l 656 109 q 609 52 656 79 q 518 24 563 24 q 458 44 474 24 q 433 102 443 63 q 418 141 422 141 q 365 101 413 141 q 277 41 317 62 q 180 20 237 20 q 84 67 123 20 q 45 191 45 114 l 45 205 q 75 359 45 281 q 267 593 136 517 q 400 637 342 637 l 425 637 q 475 630 433 637 q 554 623 517 623 l 606 628 q 638 574 638 628 z "},"":{"ha":907,"x_min":43,"x_max":894,"o":"m 235 102 l 251 102 q 315 132 273 102 q 380 205 357 161 q 438 369 404 250 q 473 501 473 488 l 473 506 q 455 533 473 519 q 408 547 436 547 l 396 547 q 328 524 370 547 q 252 448 287 500 q 175 229 175 332 l 174 217 l 174 193 q 175 176 175 181 q 195 126 175 149 q 235 102 214 102 m 697 570 q 602 502 655 570 q 548 370 548 433 l 548 368 l 549 366 q 568 340 549 340 l 584 340 q 609 344 597 344 q 724 416 668 344 q 765 513 765 469 l 766 521 l 766 532 q 736 572 766 572 l 709 572 q 697 570 701 570 m 401 132 q 343 91 389 132 q 257 26 298 50 q 165 3 217 3 q 78 49 113 3 q 43 161 43 94 l 43 178 q 75 326 43 247 q 299 574 143 495 q 439 606 363 606 l 469 603 q 525 610 496 603 q 563 616 553 616 q 590 611 572 616 q 614 602 607 606 q 630 597 621 597 l 657 606 q 775 624 728 624 q 858 595 822 624 q 894 498 894 567 q 640 310 894 368 q 561 288 573 294 q 530 238 530 270 q 558 127 530 165 q 631 90 587 90 q 736 114 675 90 q 808 138 798 138 q 819 132 819 138 q 715 39 819 94 q 591 5 652 5 q 438 93 484 5 q 401 132 417 132 z "},"":{"ha":595,"x_min":31,"x_max":583,"o":"m 256 -20 q 92 41 153 -20 q 31 216 31 102 l 31 231 q 140 509 31 382 q 268 604 197 574 q 404 635 338 635 q 527 605 470 635 q 583 542 583 575 q 567 487 583 508 q 532 465 550 465 q 465 513 515 465 q 386 545 432 545 q 234 458 296 545 q 172 248 172 372 q 205 128 172 172 q 293 84 239 84 q 375 94 347 84 q 435 119 404 104 q 469 135 467 135 q 499 111 499 135 q 413 27 499 75 q 256 -20 328 -20 m 315 -137 l 315 -150 q 263 -242 315 -206 q 151 -279 211 -279 l 138 -279 q 102 -262 102 -279 l 102 -259 q 139 -221 102 -221 q 190 -201 168 -221 q 212 -161 212 -182 q 193 -123 212 -140 q 174 -94 174 -106 q 193 -54 174 -81 q 227 -27 212 -27 l 235 -27 l 239 -28 q 256 -52 256 -28 l 290 -87 q 315 -137 315 -111 z "},"":{"ha":588,"x_min":47,"x_max":569,"o":"m 196 374 l 196 360 q 209 347 196 347 l 212 347 l 216 348 q 374 403 296 348 q 452 492 452 458 l 452 511 q 451 522 451 519 q 433 562 451 544 q 391 580 415 580 l 376 580 q 265 516 315 580 q 196 374 196 427 m 239 942 l 239 949 q 299 984 239 984 l 310 984 q 362 956 344 984 q 398 886 381 928 q 435 807 414 844 q 456 758 456 770 l 456 752 q 429 732 456 732 l 425 732 q 323 827 408 732 q 239 942 239 922 m 393 646 l 418 646 q 527 607 486 646 q 569 515 569 568 l 569 503 q 516 396 569 437 q 404 338 463 356 q 290 307 346 319 q 222 288 234 294 q 181 210 181 268 q 229 114 181 151 q 298 93 256 93 q 404 120 339 93 q 470 148 469 148 q 492 132 492 148 q 409 49 492 98 q 262 0 327 0 l 237 0 q 99 64 151 0 q 47 216 47 127 q 148 509 47 380 q 265 608 197 571 q 393 646 333 646 z "},"":{"ha":588,"x_min":45,"x_max":622,"o":"m 385 582 l 378 582 q 257 510 319 582 q 194 372 194 438 l 193 365 q 203 349 193 349 l 214 349 q 389 416 289 349 q 450 494 450 457 l 450 513 q 432 562 450 541 q 385 582 414 582 m 622 949 l 622 942 q 516 828 622 922 q 390 734 410 734 l 387 734 q 359 751 359 734 l 359 754 q 496 948 359 773 q 554 979 519 979 l 566 979 q 622 949 622 979 m 567 517 l 567 505 q 507 392 567 440 q 302 311 446 344 q 220 290 229 295 q 179 214 179 269 q 215 127 179 159 q 297 94 250 94 q 400 122 343 94 q 473 149 457 149 q 490 134 490 149 q 391 41 490 94 q 238 1 317 1 q 102 61 159 1 q 45 218 45 120 l 45 231 q 77 393 45 312 q 281 620 141 552 q 407 648 339 648 q 521 612 475 648 q 567 517 567 576 z "},"":{"ha":588,"x_min":52,"x_max":589,"o":"m 396 579 l 381 579 q 270 515 319 579 q 201 370 201 427 l 200 363 q 214 347 200 347 l 217 347 q 378 402 300 347 q 457 492 457 457 l 457 510 q 438 561 457 542 q 396 579 420 579 m 228 760 q 325 876 228 761 q 451 991 422 991 q 495 967 479 991 q 520 914 500 960 q 544 861 540 868 q 569 809 548 853 q 589 763 589 765 q 564 739 589 739 l 559 739 q 488 806 539 739 q 431 873 436 873 q 349 807 427 873 q 250 742 272 742 q 228 755 228 742 l 228 760 m 574 515 l 574 502 q 520 396 574 436 q 409 337 467 355 q 294 306 351 319 q 227 288 238 294 q 186 212 186 267 q 221 125 186 157 q 301 92 257 92 q 408 120 345 92 q 475 147 471 147 q 496 133 496 147 q 469 89 496 119 q 380 29 441 59 q 254 -1 318 -1 l 241 -1 q 103 63 155 -1 q 52 216 52 127 l 52 229 q 87 400 52 319 q 300 623 159 564 q 423 646 356 646 q 532 607 490 646 q 574 515 574 568 z "},"":{"ha":588,"x_min":52,"x_max":617,"o":"m 200 375 l 200 365 q 213 352 200 352 l 217 352 q 378 407 299 352 q 457 501 457 463 l 457 512 q 439 564 457 544 q 396 585 422 585 l 377 585 q 267 518 319 585 q 200 375 200 432 m 290 928 l 307 928 q 322 926 315 926 q 348 908 330 926 q 366 865 366 890 l 366 851 q 363 832 363 843 q 341 799 363 821 q 294 776 318 776 l 277 776 q 263 778 271 778 q 237 795 254 778 q 219 836 219 813 l 219 853 q 240 901 219 876 q 278 926 260 926 q 290 928 288 928 m 617 867 l 617 852 q 595 802 617 829 q 545 776 573 776 l 530 776 q 489 795 509 776 q 470 838 470 814 l 470 852 q 494 905 470 882 q 543 929 517 929 l 557 929 q 572 927 564 927 q 599 909 581 927 q 617 867 617 891 m 52 221 l 52 247 q 81 389 52 311 q 163 526 110 468 q 410 651 274 651 q 527 615 481 651 q 573 520 573 579 l 573 507 q 526 406 572 448 q 309 315 462 349 q 226 293 237 298 q 185 217 185 272 q 221 130 185 163 q 300 98 256 98 q 407 125 345 98 q 474 153 470 153 q 496 137 496 153 q 397 44 496 98 q 245 5 326 5 q 108 63 164 5 q 52 221 52 122 z "},"":{"ha":395,"x_min":71,"x_max":330,"o":"m 165 979 l 176 979 q 233 945 214 979 q 323 750 323 783 l 322 747 l 322 745 q 295 728 322 728 l 292 728 q 190 823 275 728 q 106 941 106 918 l 106 944 q 165 979 106 979 m 330 102 l 330 96 q 256 35 330 72 q 126 -2 182 -2 q 71 47 71 -2 q 91 131 71 60 q 139 322 111 201 q 168 477 168 444 q 111 520 168 520 q 79 543 79 520 q 142 599 79 566 q 259 631 204 631 l 268 631 q 304 617 296 631 q 312 571 312 602 q 269 355 312 539 q 226 145 226 170 q 263 107 226 107 l 305 113 q 330 102 330 113 z "},"":{"ha":395,"x_min":73,"x_max":481,"o":"m 481 942 l 481 935 q 375 821 481 916 q 249 727 269 727 l 245 728 l 242 728 q 218 745 218 728 l 218 747 q 340 924 218 768 q 410 972 376 972 l 425 972 q 481 942 481 972 m 138 -1 l 119 -1 q 73 40 73 -1 l 73 49 q 85 108 73 76 q 98 146 96 140 l 102 165 l 111 194 q 170 477 170 433 q 113 521 170 521 q 82 543 82 521 q 147 601 82 570 q 262 632 212 632 l 279 632 q 315 572 315 632 q 272 355 315 546 q 229 146 229 165 q 260 107 229 107 l 307 113 q 332 98 332 113 q 257 35 332 71 q 138 -1 182 -1 z "},"":{"ha":395,"x_min":75,"x_max":450,"o":"m 201 888 q 309 985 278 985 q 356 962 340 985 q 378 916 356 962 l 394 880 l 397 874 l 399 869 l 416 833 l 418 827 l 420 823 q 450 758 450 764 q 423 734 450 734 q 349 801 397 734 q 292 867 301 867 q 210 802 288 867 q 111 736 133 736 q 90 750 90 736 l 90 754 q 119 792 90 758 q 154 833 149 827 q 172 852 160 840 l 201 888 m 334 97 q 261 36 334 74 q 132 -1 189 -1 q 75 40 75 -1 l 75 48 l 114 203 l 119 222 l 126 252 q 172 477 172 447 q 115 521 172 521 q 83 543 83 521 q 152 602 83 572 q 262 632 220 632 l 272 632 q 316 581 316 632 q 273 358 316 543 q 230 146 230 174 q 267 108 230 108 l 309 113 q 334 97 334 113 z "},"":{"ha":395,"x_min":72,"x_max":479,"o":"m 149 770 q 106 789 125 770 q 87 836 87 808 l 87 843 q 111 900 87 876 q 165 924 135 924 l 168 924 l 170 923 l 175 923 l 184 922 q 216 903 197 922 q 234 861 234 885 l 234 848 l 231 831 q 210 794 231 816 q 174 773 189 773 l 163 770 l 149 770 m 404 770 l 394 770 q 351 790 370 770 q 332 833 332 809 l 332 848 q 353 898 332 871 q 404 924 375 924 l 419 924 q 459 906 441 924 q 477 878 477 888 q 478 866 478 868 l 479 854 l 479 852 l 477 833 q 454 793 477 817 q 404 770 431 770 m 137 4 l 118 4 q 72 45 72 4 l 72 54 q 83 113 72 81 q 96 151 95 144 l 117 227 l 123 257 q 169 483 169 452 q 112 526 169 526 q 81 548 81 526 q 146 606 81 574 q 260 637 211 637 l 278 637 q 313 586 313 637 q 270 363 313 554 q 227 151 227 172 q 258 112 227 112 l 306 118 q 331 102 331 118 q 256 40 331 76 q 137 4 181 4 z "},"":{"ha":674,"x_min":47,"x_max":644,"o":"m 280 58 l 300 58 q 435 150 372 58 q 489 266 467 196 q 511 393 511 336 l 511 413 q 480 520 511 485 q 403 556 450 556 l 382 556 q 314 533 353 556 q 245 465 274 509 q 177 248 177 359 l 177 214 q 206 109 177 160 q 280 58 235 58 m 618 970 q 633 945 633 970 q 591 889 633 920 q 549 823 549 859 q 577 756 549 814 q 644 479 644 620 l 644 442 q 644 438 644 440 q 613 266 644 351 q 397 17 549 84 q 271 -10 336 -10 q 69 117 127 -10 q 47 225 47 164 l 47 244 q 83 395 47 323 q 281 589 155 538 q 394 609 331 609 q 471 616 458 609 q 484 663 484 623 q 461 733 484 703 q 401 763 439 763 q 351 752 387 763 q 298 741 315 741 q 264 766 264 741 q 306 812 264 783 q 348 869 348 841 q 311 917 348 880 q 274 966 274 954 q 314 996 274 996 q 409 964 353 996 q 482 932 464 932 q 546 951 500 932 q 618 970 591 970 z "},"":{"ha":758,"x_min":94,"x_max":696,"o":"m 553 755 l 537 755 q 455 787 507 755 q 372 819 402 819 q 309 791 342 819 q 267 764 276 764 q 250 783 250 764 q 315 874 250 825 q 406 908 359 908 l 411 907 q 493 876 446 907 q 573 845 541 845 q 635 873 605 845 q 681 901 665 901 q 696 881 696 901 q 647 801 696 846 q 553 755 597 755 m 670 513 q 638 325 670 463 q 606 159 606 186 q 644 99 606 99 l 674 102 q 684 99 684 102 q 653 68 684 87 q 512 16 568 16 q 483 37 498 16 q 468 90 468 58 q 499 270 468 121 q 531 463 531 418 q 514 526 531 509 q 477 543 496 543 q 428 526 457 543 q 235 143 291 443 q 215 56 220 68 q 165 14 197 14 q 114 34 134 14 q 94 85 94 53 l 94 117 q 125 255 94 179 q 156 383 156 331 q 132 467 156 435 q 109 528 109 499 q 140 588 109 556 q 212 621 172 621 q 294 515 294 621 l 293 497 l 292 480 q 296 463 292 463 q 320 487 298 463 q 560 631 450 631 q 670 513 670 631 z "},"":{"ha":648,"x_min":56,"x_max":623,"o":"m 498 400 l 498 414 q 475 524 498 483 q 395 578 444 578 l 389 578 q 319 554 357 578 q 254 488 282 531 q 182 246 182 378 l 182 226 q 184 205 184 212 q 220 101 184 150 q 283 67 244 67 q 425 159 366 67 q 498 400 498 271 m 260 943 l 260 949 l 261 952 q 320 985 261 985 l 330 985 q 378 965 363 985 q 411 903 393 945 q 453 814 430 861 q 477 759 477 767 l 477 753 q 449 733 477 733 l 446 733 q 344 829 428 733 q 260 943 260 924 m 394 646 l 424 646 q 567 577 511 646 q 623 410 623 508 l 623 391 q 593 241 623 316 q 414 35 534 97 q 286 -1 345 -1 l 266 -1 q 113 68 169 -1 q 56 234 56 138 l 56 264 q 87 403 57 332 q 266 610 149 548 q 394 646 336 646 z "},"":{"ha":648,"x_min":52,"x_max":629,"o":"m 397 580 l 378 580 q 314 557 354 580 q 243 479 275 534 q 178 255 178 369 l 178 222 q 209 112 178 154 q 280 70 240 70 l 293 70 q 425 167 358 70 q 472 272 451 205 q 493 389 493 338 l 493 422 q 492 444 492 436 q 462 539 492 499 q 397 580 433 580 m 401 734 l 394 734 q 367 751 367 734 l 367 753 q 496 939 367 774 q 558 978 526 978 l 576 978 q 629 948 629 978 l 629 941 q 523 827 629 920 q 401 734 416 734 m 420 648 q 498 629 458 648 q 562 581 538 610 q 619 403 619 509 l 618 393 q 587 241 618 315 q 401 33 526 95 q 272 1 337 1 l 262 1 q 176 19 217 1 q 110 68 136 37 q 52 246 52 140 l 52 256 q 82 405 52 332 q 159 531 113 477 q 272 617 205 585 q 399 649 338 649 l 410 648 l 420 648 z "},"":{"ha":648,"x_min":57,"x_max":624,"o":"m 498 400 l 498 414 q 475 524 498 483 q 396 578 445 578 l 390 578 q 320 554 357 578 q 254 488 283 531 q 183 246 183 378 l 183 226 q 184 205 184 214 q 218 103 184 140 q 286 67 252 67 q 426 159 366 67 q 498 400 498 271 m 353 892 q 461 990 429 990 q 511 962 492 990 l 546 884 q 563 848 561 852 l 572 827 l 575 822 l 577 817 q 602 762 602 772 q 576 739 602 739 l 572 739 q 500 805 552 739 q 443 872 449 872 q 413 851 437 872 q 377 819 388 830 q 319 775 366 808 q 257 741 273 741 q 241 755 241 741 l 241 759 q 285 815 241 767 q 353 892 329 863 m 395 646 l 425 646 q 568 577 512 646 q 624 410 624 508 l 624 391 q 595 245 624 320 q 518 117 566 171 q 407 31 469 63 q 287 -1 345 -1 l 267 -1 q 113 68 170 -1 q 57 234 57 138 l 57 264 q 87 403 57 332 q 267 610 149 548 q 395 646 337 646 z "},"":{"ha":648,"x_min":54,"x_max":650,"o":"m 496 416 q 473 526 496 485 q 393 580 442 580 l 387 580 q 312 553 351 580 q 241 473 273 526 q 180 248 180 369 l 180 235 q 210 114 180 158 q 283 69 239 69 l 289 69 q 423 161 360 69 q 473 270 452 203 q 494 382 494 336 l 496 395 l 496 416 m 350 916 l 366 916 q 448 884 392 916 q 532 853 503 853 q 590 881 560 853 q 635 909 621 909 q 650 893 650 909 l 650 888 q 598 806 650 850 q 507 763 547 763 l 496 763 l 491 764 q 408 795 455 764 q 330 826 361 826 q 263 799 299 826 q 221 771 227 771 q 205 786 205 771 l 205 791 q 257 872 205 828 q 350 916 309 916 m 54 236 l 54 265 q 85 407 54 332 q 273 616 146 550 q 402 648 335 648 l 412 648 q 565 579 509 648 q 621 412 621 510 l 621 393 q 592 246 621 318 q 412 37 533 100 q 284 1 342 1 l 254 1 q 179 19 220 1 q 106 75 138 37 q 54 236 54 140 z "},"":{"ha":648,"x_min":56,"x_max":629,"o":"m 402 583 l 382 583 q 319 560 357 583 q 250 488 282 536 q 184 278 184 386 l 184 271 l 183 265 l 182 245 l 182 239 l 183 232 q 212 119 183 164 q 279 73 240 73 l 298 73 q 361 96 326 73 q 425 164 395 118 q 496 385 496 274 l 498 399 l 498 419 q 471 536 498 488 q 402 583 444 583 m 319 928 q 333 926 325 926 q 359 907 341 926 q 378 865 378 889 l 378 850 q 376 839 376 842 q 354 799 376 821 q 316 777 332 777 l 304 775 l 290 775 l 276 778 q 249 795 266 778 q 231 836 231 812 l 231 852 q 254 903 231 881 q 292 926 276 926 l 304 928 l 319 928 m 629 866 l 629 852 q 607 802 629 828 q 557 775 585 775 l 542 775 q 502 794 521 775 q 482 838 482 814 l 482 852 q 506 905 482 881 q 555 928 530 928 l 569 928 q 585 926 577 926 q 611 908 593 926 q 629 866 629 890 m 394 652 l 424 652 q 567 583 511 652 q 623 416 623 513 l 623 396 q 593 247 623 319 q 414 40 532 104 q 286 4 347 4 l 266 4 q 113 74 169 4 q 56 239 56 143 l 56 269 q 87 408 56 336 q 267 615 149 553 q 394 652 337 652 z "},"":{"ha":713,"x_min":94,"x_max":681,"o":"m 406 541 l 394 541 q 351 559 370 541 q 332 588 332 578 q 331 601 331 599 l 330 610 l 331 613 l 331 618 l 332 628 q 353 668 332 642 q 406 693 374 693 l 418 693 q 461 674 442 693 q 479 640 479 656 l 481 625 l 481 621 l 479 601 q 456 563 479 586 q 406 541 433 541 m 631 442 q 681 417 681 442 q 665 367 681 378 q 597 356 650 356 l 571 356 l 564 357 l 513 357 l 500 357 l 366 357 l 353 357 l 313 357 l 288 356 l 165 356 q 94 376 94 356 l 94 388 q 105 430 94 418 q 150 442 116 442 l 368 442 l 374 441 l 414 442 l 631 442 m 294 183 l 296 204 q 318 236 296 213 q 373 258 341 258 l 376 258 l 378 258 l 383 258 l 393 256 q 425 239 407 256 q 442 205 442 221 l 444 190 l 444 185 q 423 132 444 157 q 371 106 401 106 l 354 106 q 313 125 332 106 q 294 161 294 144 l 293 166 l 293 181 l 294 183 z "},"":{"ha":648,"x_min":52,"x_max":626,"o":"m 181 263 l 181 226 q 195 173 181 173 q 327 334 203 173 q 451 520 451 495 l 451 525 q 435 559 451 543 q 399 574 420 574 l 384 574 q 323 555 359 574 q 252 484 287 536 q 181 263 181 382 m 497 437 q 495 461 495 452 q 490 471 495 471 q 468 444 485 471 q 400 342 452 416 q 290 197 349 269 q 231 113 231 126 l 231 109 q 268 67 231 67 l 286 67 q 344 91 308 67 q 418 175 380 115 q 476 307 456 234 q 495 403 495 380 l 496 412 l 497 433 l 497 437 m 600 674 q 626 646 626 674 q 610 604 626 635 q 595 557 595 572 q 606 490 595 541 q 616 381 616 439 q 587 248 616 324 q 388 26 525 91 q 251 -3 327 -3 l 178 4 q 124 -16 157 4 q 79 -36 90 -36 q 52 -1 52 -36 q 70 38 52 1 q 88 86 88 75 q 76 143 88 97 q 63 253 63 189 q 94 393 63 317 q 289 611 156 546 q 437 642 353 642 l 499 636 q 553 655 518 636 q 600 674 589 674 z "},"":{"ha":755,"x_min":84,"x_max":665,"o":"m 282 937 l 282 944 l 283 947 q 338 979 283 979 l 352 979 q 404 954 387 979 q 498 753 498 802 l 498 747 q 471 728 498 728 l 467 728 q 366 823 450 728 q 282 937 282 919 m 231 616 q 295 531 295 616 q 267 358 295 488 q 239 182 239 229 q 290 96 239 96 q 340 115 311 96 q 439 226 395 151 q 528 494 503 332 q 543 576 539 568 q 590 614 560 614 q 637 587 620 614 q 654 516 654 559 q 634 380 654 473 q 613 255 613 288 q 639 173 613 222 q 665 113 665 123 q 634 39 665 68 q 557 10 603 10 q 488 52 511 10 q 477 136 477 71 l 478 155 l 480 174 q 475 187 480 187 q 445 157 470 187 q 398 105 419 127 q 338 56 378 83 q 214 7 267 7 q 98 134 98 7 q 131 309 98 165 q 163 483 163 452 q 152 525 163 514 q 112 535 140 535 q 84 543 84 535 q 104 562 84 551 q 231 616 197 616 z "},"":{"ha":755,"x_min":83,"x_max":664,"o":"m 422 727 l 416 727 q 389 744 389 727 l 389 747 q 515 930 389 768 q 583 972 547 972 l 591 972 l 595 971 q 651 942 651 971 l 651 939 l 650 935 q 545 821 650 915 q 422 727 439 727 m 237 183 q 288 98 237 98 q 368 138 324 98 q 509 405 466 230 q 528 502 515 430 q 543 577 541 573 q 590 614 559 614 q 654 507 654 614 q 633 382 654 481 q 612 252 612 282 q 638 173 612 222 q 664 114 664 123 q 633 40 664 69 q 563 12 602 12 q 500 37 524 12 q 476 119 476 62 l 477 156 l 479 175 q 475 189 479 189 q 451 167 470 189 l 439 153 q 212 8 315 8 l 194 8 q 123 42 149 8 q 98 125 98 75 q 130 309 98 176 q 162 479 162 443 q 151 526 162 515 q 92 536 139 536 q 83 544 83 536 q 104 564 83 551 q 233 616 192 616 l 247 616 q 279 595 264 616 q 294 528 294 574 q 266 361 294 483 q 237 183 237 239 z "},"":{"ha":755,"x_min":84,"x_max":665,"o":"m 492 987 l 497 987 q 536 963 521 987 q 630 759 630 810 l 630 755 q 600 735 630 735 q 529 802 581 735 q 472 869 476 869 q 391 804 469 869 q 291 738 313 738 q 269 751 269 738 l 269 756 q 366 872 269 758 q 492 987 463 987 m 239 182 q 290 97 239 97 q 340 116 311 97 q 447 239 395 151 q 528 494 499 326 q 543 576 541 572 q 595 614 560 614 q 648 569 630 614 q 654 516 654 551 q 634 381 654 481 q 613 250 613 281 q 639 174 613 219 q 665 114 665 128 q 634 40 665 68 q 557 11 602 11 q 488 52 511 11 q 477 137 477 72 l 478 155 l 480 174 q 475 188 480 188 q 446 159 470 188 q 400 107 421 130 q 323 46 380 85 q 213 7 267 7 l 195 7 q 124 41 150 7 q 98 124 98 75 q 131 309 98 173 q 163 480 163 444 q 151 526 163 515 q 112 536 140 536 q 84 543 84 536 q 104 563 84 551 q 229 616 194 616 q 280 595 264 616 q 295 531 295 574 q 267 359 295 489 q 239 182 239 229 z "},"":{"ha":755,"x_min":84,"x_max":665,"o":"m 264 847 q 267 866 267 855 q 289 900 267 878 q 338 923 312 923 l 352 923 q 391 905 373 923 q 408 874 408 888 l 411 863 l 411 846 q 388 795 411 818 q 347 772 365 772 q 340 770 342 770 l 330 770 l 328 770 l 326 770 q 284 788 302 770 q 267 821 267 806 l 264 836 l 264 847 m 663 863 l 663 844 q 639 794 663 818 q 592 770 615 770 l 576 770 q 560 772 568 772 q 534 791 552 772 q 515 833 515 809 l 515 845 l 516 847 l 516 852 q 517 859 517 857 q 539 900 517 878 q 578 922 561 922 l 593 924 l 600 924 q 643 904 624 924 q 663 863 663 885 m 239 188 q 290 102 239 102 q 340 121 311 102 q 445 239 391 153 q 528 500 498 324 q 544 583 542 578 q 591 620 559 620 q 655 513 655 620 q 634 387 655 486 q 614 254 614 287 q 640 179 614 222 q 665 119 665 136 l 665 107 q 634 45 665 75 q 564 16 603 16 q 502 42 526 16 q 477 124 477 68 l 479 161 l 481 180 q 476 193 481 193 q 443 161 471 193 q 395 107 414 128 q 338 62 375 87 q 214 13 267 13 l 195 13 q 125 47 151 13 q 99 131 99 81 q 131 315 99 181 q 163 484 163 448 q 152 531 163 520 q 113 541 141 541 q 84 549 84 541 q 105 568 84 556 q 231 622 198 622 q 280 601 264 622 q 296 533 296 580 q 267 367 296 487 q 239 188 239 247 z "},"":{"ha":675,"x_min":-18,"x_max":664,"o":"m 409 730 l 402 730 q 376 747 376 730 l 376 749 q 507 938 376 770 q 567 974 534 974 l 585 974 q 637 947 637 974 l 637 934 q 532 823 637 917 q 409 730 427 730 m 97 534 q 87 537 97 534 q 77 544 77 540 q 131 578 77 548 q 214 608 185 608 q 256 590 243 608 q 294 506 270 572 q 343 312 318 441 q 373 184 368 184 q 465 302 408 184 q 522 497 522 420 l 521 513 l 519 545 q 518 578 518 564 q 539 611 518 593 q 593 629 561 629 q 645 615 625 629 q 664 577 664 602 q 568 342 664 537 q 156 -275 379 -45 q 73 -315 117 -315 l 55 -315 q -2 -299 14 -315 q -18 -262 -18 -282 q 52 -212 -18 -226 q 174 -144 121 -198 q 259 41 259 -54 q 223 249 259 66 q 173 468 187 431 q 129 522 159 505 q 97 534 117 528 z "},"":{"ha":695,"x_min":-53,"x_max":658,"o":"m 216 158 l 216 134 q 239 85 216 103 q 300 66 262 66 l 319 66 q 466 165 398 66 q 534 382 534 264 l 534 402 q 508 503 534 459 q 435 546 482 546 l 429 546 q 360 520 399 546 q 302 457 321 494 q 234 272 253 365 q 216 158 216 178 m 304 1005 q 340 988 327 1005 q 353 919 353 972 q 325 734 353 866 q 296 575 296 603 q 306 547 296 547 q 373 578 316 547 q 495 610 431 610 q 609 561 560 610 q 658 422 658 512 q 627 255 658 331 q 316 9 536 33 q 209 -16 228 -1 q 153 -156 153 -62 q 168 -208 153 -172 q 182 -263 182 -243 q 140 -318 182 -303 q 22 -328 112 -328 l 2 -328 q -53 -292 -53 -328 q -30 -249 -53 -277 q 3 -202 -6 -221 q 24 -134 12 -184 q 84 156 36 -84 q 138 443 132 396 q 178 642 143 490 q 212 836 212 794 q 200 894 212 878 q 175 944 175 926 q 201 977 175 961 q 290 1005 245 1005 l 304 1005 z "},"":{"ha":675,"x_min":-20,"x_max":662,"o":"m 306 926 l 323 926 q 339 924 329 924 q 365 904 349 924 q 382 861 382 883 l 382 854 q 359 799 382 821 q 319 776 336 776 l 308 774 l 294 774 q 277 776 288 776 q 251 796 267 776 q 235 841 235 817 l 235 846 q 257 901 235 879 q 294 924 279 924 q 306 926 302 926 m 559 927 l 573 927 q 589 925 581 925 q 614 908 597 925 q 631 874 631 890 l 633 860 l 633 852 q 609 798 633 822 q 563 774 585 774 l 546 774 q 507 792 525 774 q 488 825 488 810 l 486 834 l 486 850 l 490 869 q 512 905 490 883 q 559 927 534 927 m 96 539 q 85 542 96 539 q 75 550 75 545 q 129 584 75 554 q 212 614 183 614 q 255 595 241 614 q 292 511 269 576 q 341 318 316 446 q 371 190 366 190 q 463 308 406 190 q 519 503 519 425 q 518 536 519 505 l 517 551 q 516 585 516 570 q 538 617 516 600 q 592 635 560 635 q 643 622 623 635 q 662 583 662 608 q 556 327 662 531 q 366 -3 451 123 q 164 -258 280 -130 q 71 -309 118 -309 l 53 -309 q -3 -293 13 -309 q -20 -256 -20 -277 q 49 -206 -20 -218 q 172 -138 118 -194 q 257 47 257 -48 q 221 255 257 72 q 171 474 185 438 q 126 528 157 511 q 96 539 116 533 z "},"":{"ha":395,"x_min":77,"x_max":336,"o":"m 262 634 l 281 634 q 319 576 319 634 q 274 354 319 552 q 229 145 229 155 q 262 102 229 102 q 285 107 264 102 q 320 111 305 111 q 336 99 336 111 l 336 92 q 262 30 336 68 q 138 -9 189 -9 l 128 -9 q 77 38 77 -9 q 124 251 77 56 q 171 474 171 446 q 157 511 171 502 q 112 520 143 520 q 81 547 81 520 q 109 579 81 561 q 262 634 193 634 z "},"":{"ha":804,"x_min":28,"x_max":763,"o":"m 28 14 l 28 26 q 69 57 28 34 q 125 118 110 80 q 165 299 165 215 q 138 334 165 326 q 100 357 100 345 q 144 427 100 387 q 196 490 189 468 q 269 821 269 713 q 235 871 269 846 q 201 909 201 895 q 373 937 201 937 l 396 938 q 513 911 513 938 q 471 861 513 895 q 414 788 430 827 q 371 586 371 676 q 396 549 371 549 q 474 576 401 549 q 563 604 548 604 q 577 592 577 604 q 475 501 577 560 q 340 387 372 441 q 300 266 319 351 q 281 139 281 180 q 314 82 281 98 q 441 66 347 66 q 584 92 536 66 q 683 166 633 117 q 740 216 734 216 q 763 193 763 216 q 746 110 763 170 q 713 31 729 50 q 620 -3 686 -3 l 501 -3 l 452 -1 l 189 1 q 140 0 164 1 l 93 -1 q 28 14 28 -1 z "},"":{"ha":426,"x_min":72,"x_max":442,"o":"m 340 102 q 262 37 340 77 q 144 -3 185 -3 l 128 -3 q 75 58 75 -3 q 108 183 75 80 q 141 341 141 287 q 120 378 141 373 q 72 407 72 391 q 113 462 72 428 q 176 551 155 496 q 248 862 248 732 q 226 902 248 890 q 196 912 222 904 q 171 928 171 921 q 207 963 171 950 q 323 988 276 988 q 382 975 370 988 q 395 925 395 962 q 368 790 395 923 q 340 625 340 658 q 351 591 340 591 q 382 600 355 591 q 426 608 409 608 q 442 594 442 608 q 428 552 442 566 q 368 514 413 537 q 309 468 323 492 q 273 330 296 444 q 251 171 251 216 q 299 106 251 106 l 328 109 q 340 102 340 109 z "},"":{"ha":1040,"x_min":30,"x_max":1107,"o":"m 597 1031 l 597 1037 q 698 1142 597 1053 q 823 1232 798 1232 l 831 1232 q 873 1218 856 1232 q 891 1194 891 1204 l 891 1183 q 824 1120 891 1166 q 618 1010 668 1010 l 614 1010 q 597 1031 597 1010 m 220 1 q 35 22 55 1 l 30 36 q 74 82 30 43 q 135 174 117 120 q 234 587 142 197 q 269 801 269 738 q 235 874 269 838 q 201 913 201 910 q 284 938 201 938 q 370 920 317 938 q 445 879 423 902 q 617 551 467 855 q 787 248 768 248 l 798 262 l 854 515 q 903 774 903 736 q 881 852 903 811 q 859 904 859 892 q 928 939 859 939 q 1107 917 1107 939 q 1078 890 1107 905 l 1028 864 q 989 797 1004 844 q 937 583 974 750 q 870 282 901 415 q 839 59 839 149 q 820 7 839 7 q 661 155 762 7 q 507 452 649 172 q 354 732 366 732 q 335 704 343 732 q 274 423 327 675 q 221 143 221 171 q 228 100 221 115 q 266 64 235 85 q 296 35 296 43 q 220 1 296 1 z "},"":{"ha":753,"x_min":98,"x_max":688,"o":"m 617 965 l 625 965 q 688 933 688 965 l 688 926 q 569 810 688 905 q 439 715 450 715 l 435 715 l 432 715 q 409 734 409 715 l 409 737 q 540 917 409 749 q 617 965 577 965 m 533 456 q 477 541 533 541 q 412 510 453 541 q 266 240 319 439 q 256 201 260 221 q 237 122 252 182 q 222 60 222 63 q 153 11 201 11 q 113 38 129 11 q 98 121 98 66 q 129 260 98 176 q 161 388 161 344 q 133 457 161 431 q 106 512 106 483 q 144 577 106 542 q 221 612 183 612 q 298 491 298 612 q 303 472 298 472 q 363 520 312 472 q 568 626 477 626 q 677 513 677 626 q 644 326 677 474 q 611 141 611 178 q 659 92 611 92 q 686 94 686 97 q 654 71 686 92 q 526 19 575 19 q 481 39 498 19 q 464 81 464 60 q 498 255 464 102 q 533 456 533 408 z "},"":{"ha":1291,"x_min":83,"x_max":1284,"o":"m 224 387 l 224 341 q 289 140 224 222 q 452 58 353 58 l 473 58 q 554 76 519 58 q 601 127 590 94 q 668 456 612 161 q 723 785 723 751 l 723 795 q 701 841 723 828 q 606 865 661 865 l 595 865 l 584 865 q 334 732 432 865 q 252 562 280 659 q 224 387 224 465 m 83 354 l 83 385 q 124 585 83 478 q 238 769 165 691 q 404 890 310 848 q 600 933 498 933 q 733 924 639 933 q 838 914 827 914 q 907 918 848 914 q 1091 922 966 922 q 1242 908 1216 922 q 1284 814 1284 884 q 1253 763 1284 763 q 1165 804 1239 763 q 1008 846 1091 846 q 909 789 945 846 q 872 693 890 760 q 854 594 854 627 q 877 541 854 562 q 940 520 899 520 q 1004 532 980 520 l 1046 558 q 1089 578 1078 578 q 1123 539 1123 578 q 1101 415 1123 458 q 1065 371 1079 371 q 1013 402 1046 371 q 953 433 980 433 q 821 383 853 433 q 789 169 789 333 q 821 91 789 109 q 911 80 840 80 q 1138 150 1031 80 q 1185 178 1181 178 q 1202 161 1202 178 q 1176 76 1202 117 q 1117 18 1149 35 q 893 1 1084 1 q 800 2 829 1 l 747 6 q 689 9 712 9 q 575 -2 667 9 q 452 -12 484 -12 l 422 -12 q 181 86 279 -12 q 83 354 83 184 z "},"":{"ha":999,"x_min":46,"x_max":973,"o":"m 180 252 l 180 218 q 205 107 180 152 q 269 63 230 63 l 281 63 q 345 86 311 63 q 452 276 418 136 q 474 408 474 363 l 475 422 l 475 456 q 451 551 475 514 q 389 588 427 588 l 377 588 q 300 557 336 588 q 239 479 264 526 q 180 252 180 366 m 619 353 l 626 353 q 798 416 704 353 q 848 511 848 450 l 848 526 q 832 571 848 555 q 791 588 815 588 l 783 588 q 693 543 738 588 q 628 443 648 498 q 608 381 608 388 l 608 371 q 619 353 608 353 m 46 233 l 46 252 q 79 410 46 332 q 288 631 149 572 q 401 652 340 652 q 546 593 487 652 q 585 562 578 562 q 626 587 591 562 q 705 632 661 612 q 806 653 748 653 l 823 653 q 934 615 895 653 q 973 523 973 578 q 911 391 973 440 q 702 313 850 342 q 619 292 631 299 q 593 216 593 275 q 628 122 593 157 q 709 87 663 87 q 819 119 755 87 q 889 150 883 150 q 905 129 905 150 q 891 106 905 124 q 794 31 860 64 q 665 -3 729 -3 q 571 14 602 -3 q 514 56 541 31 q 479 81 487 81 q 437 60 469 81 q 264 -5 337 -5 q 263 -5 264 -5 l 245 -5 q 104 58 163 -5 q 46 233 46 122 z "},"":{"ha":708,"x_min":40,"x_max":723,"o":"m 489 1027 l 479 1027 q 431 1075 458 1027 q 386 1149 423 1088 q 348 1219 348 1211 q 375 1243 348 1243 q 449 1190 391 1243 q 517 1137 507 1137 q 604 1190 527 1137 q 702 1242 680 1242 q 723 1231 723 1242 l 723 1222 q 620 1121 723 1215 q 489 1027 517 1027 m 701 914 q 705 905 701 914 q 709 836 709 895 q 684 726 709 777 q 658 705 673 705 q 610 765 637 705 q 546 854 583 825 q 448 884 508 884 q 342 847 389 884 q 296 745 296 810 q 352 625 296 680 q 469 538 378 600 q 603 420 559 477 q 646 294 646 363 q 563 85 646 167 q 450 16 517 41 q 319 -9 382 -9 l 296 -9 q 205 4 260 -9 q 117 20 150 16 q 68 31 83 23 q 40 115 40 43 l 40 136 q 62 239 40 198 q 98 259 73 259 q 137 194 106 259 q 201 104 168 130 q 331 63 254 63 q 457 112 407 63 q 507 226 507 161 q 450 348 507 292 q 345 429 445 353 q 205 558 245 505 q 166 680 166 611 q 257 884 166 813 q 467 956 349 956 q 556 943 509 956 q 618 930 604 930 l 637 930 l 656 932 q 701 914 693 932 z "},"":{"ha":505,"x_min":7,"x_max":566,"o":"m 341 733 l 331 733 q 291 777 313 733 q 208 951 208 942 q 235 973 208 973 q 305 911 253 973 q 366 850 357 850 q 449 911 369 850 q 547 972 528 972 q 566 958 566 972 q 467 842 566 951 q 341 733 367 733 m 7 83 l 7 97 q 25 156 7 138 q 62 174 43 174 q 104 135 81 174 q 154 79 128 97 q 216 62 179 62 q 281 86 254 62 q 309 148 309 111 q 288 210 309 184 q 210 288 267 236 q 129 377 152 340 q 106 468 106 414 q 174 595 106 542 q 334 648 242 648 l 348 648 q 444 623 401 648 q 487 569 487 597 q 470 518 487 541 q 431 496 452 496 q 377 538 410 496 q 302 581 345 581 q 240 557 260 581 q 220 494 220 532 q 296 392 220 455 q 400 288 372 329 q 427 179 427 247 q 358 54 427 112 q 190 -5 288 -5 l 176 -5 q 56 23 104 -5 q 7 83 7 51 z "},"":{"ha":870,"x_min":148,"x_max":928,"o":"m 443 1028 q 427 1030 437 1030 q 401 1046 418 1030 q 385 1087 385 1063 l 385 1101 q 410 1158 385 1134 q 467 1183 434 1183 l 469 1183 l 471 1182 q 516 1164 498 1182 q 534 1118 534 1146 l 534 1111 q 512 1055 534 1082 q 463 1028 490 1028 l 443 1028 m 785 1095 q 761 1052 785 1076 q 715 1028 737 1028 l 695 1028 q 659 1043 677 1028 q 640 1076 640 1059 q 638 1083 638 1081 l 637 1095 l 637 1100 l 637 1102 l 637 1107 q 639 1114 639 1112 q 662 1160 639 1137 q 718 1183 686 1183 l 740 1181 q 769 1165 753 1181 q 785 1133 785 1149 l 787 1121 l 787 1107 q 785 1095 785 1099 m 774 894 l 790 894 q 928 864 928 894 q 880 834 928 854 q 804 785 831 814 q 557 435 711 683 q 512 315 526 386 q 483 127 483 167 q 510 65 483 87 q 564 8 564 22 q 410 -9 564 -9 l 323 -9 l 277 -11 l 254 -11 q 214 10 214 -11 q 259 52 214 27 q 319 109 303 76 q 356 231 336 142 q 377 396 377 321 q 337 556 377 418 q 256 771 297 694 q 193 831 237 806 q 148 863 148 857 q 202 877 148 877 q 298 884 256 877 q 345 891 340 891 q 378 873 378 891 q 370 857 378 869 q 363 831 363 845 q 471 601 363 818 q 519 545 500 545 q 638 687 529 545 q 747 837 747 830 l 739 876 q 774 894 739 894 z "},"":{"ha":842,"x_min":32,"x_max":866,"o":"m 543 1005 q 501 1049 526 1005 q 446 1136 475 1093 q 417 1189 417 1178 l 417 1193 q 444 1218 417 1218 q 517 1166 460 1218 q 584 1114 574 1114 q 629 1138 594 1114 q 711 1190 663 1162 q 770 1217 759 1217 q 789 1201 789 1217 q 620 1032 789 1171 q 553 1004 586 1004 l 548 1005 l 543 1005 m 810 918 q 866 897 866 918 l 866 880 q 730 700 866 863 l 692 656 q 617 571 654 614 q 546 481 579 528 q 467 389 512 435 q 328 224 422 343 q 233 90 233 106 q 360 67 233 67 q 415 66 387 67 l 471 65 q 625 84 580 65 q 700 146 671 104 q 770 222 751 222 q 785 181 785 222 q 765 80 785 140 q 723 -1 745 19 q 631 -20 702 -20 l 604 -20 q 472 -15 566 -20 q 300 -9 378 -9 l 273 -8 q 218 -7 245 -7 l 191 -8 l 136 -11 q 47 0 62 -11 q 32 37 32 12 q 326 431 32 78 q 363 470 335 441 l 401 508 q 546 671 438 547 q 654 802 654 795 q 634 832 654 827 q 559 837 615 837 l 503 838 q 329 817 371 838 q 251 738 288 795 q 192 680 214 680 q 181 734 181 680 q 198 837 181 788 q 225 897 214 886 q 425 916 245 916 l 452 916 q 507 915 479 915 l 562 913 l 646 914 l 758 918 l 810 918 z "},"":{"ha":640,"x_min":42,"x_max":627,"o":"m 406 726 l 391 726 q 355 766 375 726 q 272 937 272 932 q 298 959 272 959 l 302 959 q 369 900 315 959 q 429 840 424 840 q 511 900 434 840 q 602 959 588 959 l 606 959 q 627 945 627 959 l 627 941 q 526 826 627 927 q 406 726 425 726 m 237 634 l 255 634 q 373 620 298 634 q 473 606 448 606 q 543 616 498 606 q 597 627 588 627 q 626 606 626 627 q 470 418 626 578 q 272 208 314 258 q 230 124 230 157 q 243 112 230 115 q 438 91 325 91 q 503 110 479 91 l 513 120 l 531 141 q 560 157 546 157 q 574 132 574 157 q 544 19 574 63 q 436 -25 513 -25 l 418 -25 q 283 -2 382 -25 q 158 22 184 22 q 110 18 131 22 l 94 14 q 58 9 75 9 q 42 24 42 9 q 106 144 42 64 q 281 329 129 173 q 434 498 434 486 q 253 526 434 526 q 185 496 208 526 q 131 446 147 446 q 114 477 114 446 q 145 591 114 547 q 237 634 176 634 z "},"":{"ha":563,"x_min":-130,"x_max":677,"o":"m 677 927 q 611 864 677 864 q 566 889 593 864 q 514 914 540 914 q 431 835 471 914 q 391 668 391 755 q 448 622 391 638 q 505 593 505 605 q 440 548 505 553 q 351 488 376 543 q 288 201 340 465 q 188 -139 235 -62 q 79 -255 140 -216 q -36 -294 18 -294 q -110 -277 -90 -294 q -130 -245 -130 -260 q -113 -212 -130 -231 q -76 -193 -96 -193 q -41 -196 -56 -193 l -14 -203 q 96 -100 60 -203 q 167 208 121 -25 q 213 475 213 441 q 193 536 213 510 q 170 558 188 542 q 153 582 153 574 q 189 614 153 585 q 240 662 225 642 q 291 772 256 682 q 368 902 326 860 q 554 991 456 990 q 633 978 602 991 q 677 927 677 960 z "},"":{"ha":553,"x_min":175,"x_max":553,"o":"m 553 777 l 553 772 q 522 750 553 750 l 517 750 q 446 814 495 750 q 383 878 396 878 q 300 815 380 878 q 198 753 220 753 q 175 767 175 753 l 175 772 q 217 825 175 779 q 297 915 258 870 q 344 968 335 960 q 412 1000 382 1000 l 417 999 q 454 983 443 999 q 509 873 465 967 q 553 777 553 779 z "},"":{"ha":540,"x_min":209,"x_max":585,"o":"m 209 958 q 241 981 209 981 l 245 981 q 314 920 262 981 q 372 859 365 859 q 458 920 388 860 q 557 980 530 980 q 585 965 585 980 q 402 764 585 932 q 343 745 380 745 l 338 745 q 294 785 315 745 q 209 958 209 945 z "},"":{"ha":558,"x_min":207,"x_max":591,"o":"m 382 751 l 354 751 q 250 802 292 751 q 207 920 207 853 q 236 946 207 946 l 240 946 q 268 911 246 946 q 316 859 290 876 q 395 843 342 843 q 529 916 465 843 q 566 946 557 946 l 570 946 q 591 930 591 946 q 521 814 591 878 q 382 751 451 751 z "},"":{"ha":447,"x_min":257,"x_max":416,"o":"m 257 833 l 257 848 q 280 909 257 881 q 340 937 303 937 l 351 937 q 397 918 378 937 q 416 871 416 899 l 416 858 q 392 800 416 828 q 333 772 369 772 l 328 772 l 307 774 q 275 792 292 774 q 257 833 257 810 z "},"":{"ha":520,"x_min":212,"x_max":481,"o":"m 279 880 l 279 859 q 298 817 279 835 q 338 798 316 798 l 347 798 q 364 800 353 800 q 395 823 376 800 q 413 863 413 846 q 413 865 413 864 l 414 874 l 414 890 q 413 902 413 896 q 397 929 413 909 q 353 949 380 949 l 351 949 q 303 928 324 949 q 282 891 282 907 q 279 880 279 883 m 212 855 l 212 868 q 257 967 212 927 q 352 1007 302 1007 l 365 1007 q 445 974 408 1007 q 481 897 481 941 l 481 879 q 439 784 481 826 q 355 742 397 742 l 346 741 l 324 741 q 311 742 315 742 q 244 778 275 742 q 212 855 212 813 z "},"":{"ha":512,"x_min":89,"x_max":349,"o":"m 334 -212 q 349 -229 349 -212 q 310 -273 349 -245 q 221 -300 271 -300 l 209 -302 l 197 -302 l 192 -301 q 117 -273 145 -301 q 89 -194 89 -245 q 151 -77 89 -144 q 239 -5 189 -35 q 305 24 288 24 l 311 24 q 328 16 328 24 q 286 -31 328 7 q 203 -168 203 -109 q 220 -206 203 -190 q 269 -222 236 -222 l 334 -212 z "},"":{"ha":581,"x_min":158,"x_max":615,"o":"m 312 940 l 323 940 l 328 939 q 408 909 355 939 q 489 880 461 880 q 552 907 516 880 q 595 935 589 935 q 615 916 615 935 q 562 827 615 872 q 463 781 508 781 l 452 781 q 366 812 416 781 q 285 842 315 842 q 220 815 255 842 q 179 788 184 788 q 158 806 158 788 q 210 892 158 844 q 312 940 262 940 z "},"":{"ha":637,"x_min":221,"x_max":685,"o":"m 410 991 l 421 991 q 475 961 475 991 l 475 955 q 369 836 475 929 q 251 742 264 742 l 245 742 q 221 758 221 742 l 221 761 q 353 958 221 787 q 410 991 379 991 m 422 758 l 422 764 q 564 959 422 799 q 623 990 592 990 l 627 990 q 685 957 685 990 q 578 837 685 932 q 448 742 471 742 l 442 742 q 422 758 422 742 z "},"":{"ha":736,"x_min":75,"x_max":696,"o":"m 108 304 q 75 329 75 304 q 109 390 75 385 q 399 392 121 392 l 643 393 l 650 393 q 696 369 696 393 q 663 308 696 313 q 371 306 650 306 l 178 306 l 137 304 l 108 304 z "},"":{"ha":1205,"x_min":77,"x_max":1163,"o":"m 1133 392 q 1163 375 1163 392 l 1163 364 q 1117 307 1163 311 q 595 306 1103 306 l 307 306 l 283 305 l 225 305 l 214 306 l 191 306 l 120 304 l 109 304 q 77 321 77 304 l 77 332 q 112 389 77 383 q 366 392 132 392 l 389 392 l 401 391 l 808 392 l 831 392 l 842 391 l 1098 392 l 1133 392 z "},"":{"ha":343,"x_min":144,"x_max":353,"o":"m 230 648 l 220 648 l 215 648 q 163 670 182 648 q 144 725 144 691 l 144 745 q 146 760 146 755 q 211 904 146 818 q 324 991 275 991 l 328 991 q 353 971 353 991 l 353 964 q 331 935 353 956 q 264 817 264 868 q 289 775 264 800 q 314 724 314 750 q 289 673 314 698 q 230 648 264 648 z "},"":{"ha":345,"x_min":149,"x_max":363,"o":"m 283 977 l 298 977 q 346 957 328 977 q 363 908 363 937 l 363 883 q 362 868 362 873 q 295 723 362 812 q 177 633 228 633 l 169 633 q 149 659 149 633 q 195 714 149 664 q 240 804 240 765 q 219 848 240 817 q 197 906 197 878 q 224 955 197 933 q 283 977 251 977 z "},"":{"ha":347,"x_min":29,"x_max":240,"o":"m 29 -155 l 29 -149 q 53 -119 30 -141 q 123 -9 123 -56 q 98 37 123 9 q 73 91 73 64 q 100 142 73 118 q 168 166 127 166 l 172 166 q 221 147 202 166 q 240 94 240 128 l 240 68 q 182 -77 240 -6 q 52 -176 101 -176 l 48 -176 q 29 -155 29 -176 z "},"":{"ha":578,"x_min":145,"x_max":602,"o":"m 353 964 l 353 957 q 331 925 353 947 q 267 811 267 861 q 291 767 267 793 q 315 712 315 740 q 287 662 315 685 q 227 640 259 640 l 221 640 q 165 662 184 640 q 145 722 145 684 l 145 732 q 198 878 145 808 q 324 983 277 983 l 332 983 q 353 964 353 983 m 481 640 l 462 640 q 412 661 431 640 q 393 719 393 682 l 393 734 q 444 876 393 808 q 578 983 525 983 q 602 957 602 983 q 581 926 602 947 q 515 812 515 861 q 538 767 515 793 q 562 714 562 740 q 538 665 562 689 q 481 640 513 640 z "},"":{"ha":579,"x_min":141,"x_max":603,"o":"m 355 894 l 355 869 q 302 732 355 802 q 168 620 218 620 l 164 620 q 141 646 141 620 l 142 649 l 142 652 q 162 677 142 659 q 231 790 231 739 q 210 833 231 807 q 189 889 189 860 q 214 940 189 918 q 269 962 239 962 l 279 964 l 284 964 l 290 963 q 337 943 319 963 q 355 894 355 923 m 603 884 l 603 879 l 602 873 q 541 719 602 793 q 411 619 460 619 q 388 645 388 619 l 388 648 q 411 678 388 656 q 479 793 479 740 q 458 834 479 808 q 437 887 437 861 q 461 938 437 914 q 517 962 485 962 l 528 964 l 532 964 l 537 963 q 586 942 569 963 q 603 884 603 920 z "},"":{"ha":587,"x_min":20,"x_max":481,"o":"m 156 168 l 165 168 l 171 167 q 217 146 200 167 q 233 95 233 125 l 233 75 q 179 -67 233 5 q 48 -176 97 -176 l 40 -176 q 20 -153 20 -176 l 20 -149 q 75 -84 20 -145 q 110 -3 110 -45 q 89 38 110 12 q 67 93 67 64 q 93 144 67 121 q 156 168 119 168 m 402 167 l 417 167 q 464 147 446 167 q 481 96 481 127 l 481 71 q 410 -90 481 -3 q 294 -177 338 -177 l 290 -177 q 267 -151 267 -177 l 267 -148 q 292 -117 266 -142 q 357 -2 357 -52 q 336 39 357 15 q 315 91 315 62 q 341 143 315 120 q 402 167 368 167 z "},"":{"ha":651,"x_min":107,"x_max":647,"o":"m 647 663 l 647 650 q 617 608 647 622 q 543 593 587 593 l 475 595 q 408 513 408 595 l 409 478 q 383 240 409 385 q 345 -20 357 95 q 330 -148 333 -135 q 289 -191 319 -191 q 252 -134 252 -191 l 254 -115 l 257 -95 q 273 96 262 -50 q 284 310 284 242 q 300 465 284 378 l 304 481 l 308 497 q 314 553 314 529 q 239 595 314 595 l 153 589 q 107 639 107 589 q 133 688 107 669 q 189 707 159 707 q 243 697 193 707 q 318 687 293 687 q 343 781 343 687 l 336 892 q 355 958 336 935 q 433 980 374 980 q 470 943 470 980 q 448 843 470 932 q 427 715 427 755 q 455 690 427 690 l 585 705 q 647 663 647 705 z "},"":{"ha":668,"x_min":75,"x_max":659,"o":"m 350 708 q 354 715 350 708 q 358 752 358 721 q 356 831 358 784 l 355 855 l 350 902 q 459 981 350 981 q 485 953 485 981 q 461 837 485 924 q 437 721 437 749 q 459 693 437 693 q 524 703 470 693 q 600 712 577 712 q 641 699 623 712 q 659 654 659 686 q 553 602 659 602 l 532 603 l 509 605 q 437 585 453 605 q 421 490 421 565 l 422 467 q 423 423 423 435 q 413 360 423 410 q 402 260 402 309 q 465 222 402 222 l 486 223 q 579 227 542 227 q 602 197 602 227 q 581 139 602 166 q 515 111 559 111 l 472 115 q 408 119 422 119 q 369 91 376 119 q 366 1 366 77 l 370 -94 q 344 -153 370 -130 q 264 -177 319 -177 q 238 -156 238 -177 l 283 75 q 245 112 283 112 l 142 106 q 75 152 75 106 l 75 172 q 105 211 75 197 q 178 224 135 224 l 196 222 q 236 218 235 218 q 288 250 277 218 q 298 350 298 281 q 313 466 298 418 q 327 562 327 515 q 251 602 327 602 l 231 600 l 209 600 q 146 599 187 599 q 121 638 121 599 q 148 695 121 677 q 209 713 175 713 l 317 696 q 350 708 341 696 z "},"":{"ha":545,"x_min":121,"x_max":467,"o":"m 467 446 l 467 423 q 408 294 467 344 q 285 244 349 244 l 274 244 q 164 291 208 244 q 121 399 121 338 l 121 410 q 173 538 121 481 q 297 595 225 595 l 319 595 q 424 548 380 595 q 467 446 467 500 z "},"":{"ha":1035,"x_min":44,"x_max":930,"o":"m 225 100 l 225 80 q 200 23 225 58 q 133 -12 176 -12 l 118 -12 q 65 14 87 -12 q 44 67 44 39 l 44 73 l 45 76 q 69 136 45 102 q 129 170 94 170 l 134 172 l 151 172 q 202 148 178 172 q 225 100 225 125 m 575 68 q 546 17 575 46 q 484 -12 517 -12 l 473 -12 q 419 11 443 -12 q 396 62 396 35 l 396 79 q 426 141 396 111 q 481 170 455 170 l 486 172 l 503 172 q 554 148 530 172 q 577 97 577 125 l 577 83 q 575 68 575 73 m 749 77 l 751 91 q 780 143 751 113 q 848 172 810 172 q 874 170 859 170 q 910 145 889 170 q 930 92 930 121 l 930 89 q 906 24 930 58 q 852 -9 882 -9 q 843 -11 846 -11 l 832 -12 l 829 -12 q 774 9 800 -12 q 749 68 749 31 l 749 73 l 749 77 z "},"":{"ha":1412,"x_min":77,"x_max":1337,"o":"m 177 659 l 177 627 q 179 605 179 614 q 202 544 179 570 q 251 518 225 518 l 264 518 q 347 578 309 518 q 385 711 385 639 l 385 739 q 364 821 385 791 q 307 852 342 852 l 303 851 q 217 792 254 851 q 180 681 180 734 q 177 659 177 663 m 707 395 l 694 395 q 615 340 655 395 q 575 224 575 285 q 572 202 572 207 l 572 165 q 574 153 574 157 q 596 90 574 118 q 654 61 618 61 l 659 62 q 741 120 704 62 q 779 236 779 179 l 779 240 l 780 245 l 781 263 l 781 277 q 760 365 781 334 q 707 395 739 395 m 1163 395 l 1150 395 q 1077 349 1107 395 q 1031 220 1031 276 q 1029 208 1029 212 l 1028 184 l 1028 180 q 1050 93 1028 123 q 1107 62 1072 62 l 1111 62 l 1115 62 q 1199 123 1160 62 q 1237 264 1237 183 l 1237 273 q 1216 365 1237 334 q 1163 395 1194 395 m 77 633 l 77 646 l 77 653 q 150 830 77 747 q 226 886 181 866 q 310 906 271 906 l 324 906 q 437 861 388 906 q 486 745 486 815 l 486 717 q 413 539 486 623 q 337 484 382 504 q 260 464 292 464 l 232 464 q 123 513 169 464 q 77 633 77 563 m 781 853 q 846 893 817 893 q 876 872 876 893 q 188 64 876 842 q 125 26 154 26 q 96 47 96 26 q 781 853 96 78 m 472 174 l 472 195 q 544 372 472 295 q 711 450 616 450 q 832 405 783 450 q 881 283 881 359 l 881 256 q 809 84 881 161 q 656 7 738 7 l 629 7 q 519 55 567 7 q 472 174 472 102 m 1154 450 l 1181 450 q 1291 403 1244 450 q 1337 283 1337 356 l 1337 262 q 1269 87 1337 167 q 1105 7 1200 7 l 1092 7 l 1084 8 q 974 57 1020 8 q 928 176 928 106 l 928 196 q 996 368 928 290 q 1075 429 1031 408 q 1154 450 1120 450 z "},"":{"ha":440,"x_min":90,"x_max":409,"o":"m 409 574 q 409 568 409 574 q 316 449 408 548 q 224 334 224 350 q 274 231 224 327 q 325 113 324 134 q 295 85 325 85 q 208 177 279 85 q 135 265 180 214 q 90 330 90 317 l 90 336 q 231 471 90 348 q 385 593 371 593 q 409 574 409 593 z "},"":{"ha":441,"x_min":69,"x_max":389,"o":"m 69 107 q 162 229 69 123 q 254 344 254 335 q 204 447 254 353 q 155 567 155 542 q 182 593 155 593 q 292 474 196 593 q 389 342 389 355 q 264 222 389 323 l 94 84 q 69 102 69 84 l 69 107 z "},"":{"ha":496,"x_min":-138,"x_max":653,"o":"m 614 918 q 653 904 653 918 l 653 894 q -17 28 653 873 q -103 -38 -69 -38 q -138 -16 -137 -38 q 526 842 -138 5 q 614 918 586 918 z "},"":{"ha":842,"x_min":59,"x_max":821,"o":"m 330 410 q 450 406 351 406 q 577 378 549 406 q 491 338 577 347 q 377 316 405 330 q 317 250 317 288 q 372 137 317 182 q 503 93 426 93 q 617 129 551 93 q 699 165 684 165 q 731 146 731 165 q 708 96 731 132 q 643 35 685 60 q 449 -9 568 -9 q 248 63 330 -9 q 141 248 186 119 q 116 307 125 294 q 83 336 106 319 q 59 363 59 353 q 96 407 59 385 q 132 450 132 428 q 121 482 132 472 l 104 490 q 81 513 81 500 q 119 558 81 540 q 212 665 158 576 q 463 876 307 823 q 618 898 527 898 q 779 859 710 898 q 821 778 821 836 q 781 721 821 721 q 700 763 758 721 q 574 804 642 804 q 449 760 507 804 q 373 620 373 701 q 417 574 373 588 q 536 560 443 566 q 630 538 630 554 q 579 498 630 513 q 444 489 549 489 q 315 478 338 489 q 291 446 291 467 q 330 410 291 418 z "},"":{"ha":1266,"x_min":164,"x_max":1272,"o":"m 431 646 q 428 558 428 585 q 434 523 428 531 q 468 506 441 514 q 495 486 495 498 q 457 463 495 463 l 446 463 l 433 464 l 361 464 l 288 463 q 259 482 259 463 q 289 505 259 496 q 328 531 319 515 q 338 669 338 548 l 342 742 q 345 826 345 791 q 336 875 345 861 q 298 888 328 888 q 208 834 248 888 q 180 813 193 813 q 164 836 164 813 l 164 848 q 198 945 164 945 l 209 943 l 220 941 l 244 940 q 292 939 269 939 l 498 939 q 570 941 547 939 l 593 944 q 621 888 621 944 l 621 877 l 620 865 q 603 814 620 814 q 573 837 592 814 q 553 861 555 860 q 479 886 528 886 q 442 851 452 886 q 437 779 437 834 l 435 707 l 431 646 m 959 621 q 1032 753 971 621 q 1120 917 1093 886 q 1210 947 1147 947 q 1272 930 1272 947 q 1250 906 1272 923 q 1222 864 1227 888 q 1217 697 1217 840 q 1223 541 1217 553 q 1246 512 1228 529 q 1264 489 1264 496 q 1175 466 1264 466 l 1133 465 q 1081 486 1081 465 q 1098 505 1081 490 q 1122 540 1115 519 q 1128 739 1128 561 l 1129 782 l 1130 802 q 1121 817 1130 817 q 1015 606 1113 817 l 997 567 q 970 510 972 513 q 928 485 956 485 q 848 650 913 485 q 774 815 783 815 q 761 622 761 815 l 760 601 q 760 566 760 580 q 775 519 760 551 q 790 479 790 487 q 757 465 790 465 l 736 466 l 715 466 q 645 490 645 466 q 669 512 645 495 q 698 555 692 529 q 720 829 720 654 q 714 882 720 867 q 692 909 708 897 q 676 928 676 922 q 746 945 676 945 q 842 903 815 945 q 903 756 849 892 q 959 621 957 621 z "},"":{"ha":726,"x_min":79,"x_max":682,"o":"m 133 435 l 666 435 q 682 416 682 435 l 682 410 q 654 347 682 355 q 396 343 642 343 l 96 343 q 79 362 79 343 l 79 369 q 89 420 79 406 q 133 435 99 435 z "}}}
